G75*
G70*
%OFA0B0*%
%FSLAX24Y24*%
%IPPOS*%
%LPD*%
%AMOC8*
5,1,8,0,0,1.08239X$1,22.5*
%
%ADD10C,0.0160*%
%ADD11C,0.0070*%
%ADD12C,0.0080*%
%ADD13OC8,0.0630*%
%ADD14C,0.0630*%
%ADD15C,0.2000*%
%ADD16OC8,0.0560*%
%ADD17R,0.0512X0.0630*%
%ADD18R,0.0157X0.0709*%
%ADD19R,0.0709X0.0157*%
%ADD20R,0.0080X0.0080*%
%ADD21C,0.0040*%
%ADD22OC8,0.0760*%
%ADD23R,0.0787X0.0709*%
%ADD24R,0.0630X0.0512*%
%ADD25R,0.0630X0.0709*%
%ADD26R,0.2441X0.2126*%
%ADD27R,0.0630X0.0394*%
%ADD28OC8,0.0790*%
%ADD29OC8,0.1500*%
%ADD30C,0.0520*%
%ADD31C,0.0600*%
%ADD32OC8,0.0600*%
%ADD33R,0.0709X0.0472*%
%ADD34C,0.0100*%
%ADD35C,0.1699*%
%ADD36C,0.0120*%
%ADD37C,0.0400*%
%ADD38C,0.0320*%
%ADD39C,0.0240*%
%ADD40C,0.0400*%
%ADD41C,0.0480*%
D10*
X004646Y000363D02*
X004646Y036583D01*
X054646Y036583D01*
X054646Y000363D01*
X004646Y000363D01*
X028046Y014483D02*
X028846Y014483D01*
X028606Y014723D01*
X028606Y014983D01*
X028346Y015243D01*
X028086Y015503D01*
X027926Y015503D01*
X028006Y015243D02*
X028346Y015243D01*
X028606Y014983D02*
X027986Y014983D01*
X027966Y014723D02*
X028606Y014723D01*
X027646Y022863D02*
X027646Y024938D01*
X026646Y024938D02*
X026646Y022863D01*
X025646Y022863D02*
X025646Y024938D01*
X024646Y024938D02*
X024646Y022863D01*
X019146Y031600D02*
X019157Y031610D01*
X019146Y031621D01*
X019146Y032812D02*
X019145Y032813D01*
D11*
X006034Y037377D02*
X005945Y037289D01*
X005680Y037289D01*
X005680Y037112D02*
X005680Y037642D01*
X005945Y037642D01*
X006034Y037554D01*
X006034Y037377D01*
X005481Y037200D02*
X005481Y037554D01*
X005393Y037642D01*
X005216Y037642D01*
X005127Y037554D01*
X005127Y037200D01*
X005216Y037112D01*
X005393Y037112D01*
X005481Y037200D01*
X004752Y037112D02*
X004752Y037642D01*
X004575Y037642D02*
X004929Y037642D01*
D12*
X011834Y002927D02*
X011834Y002823D01*
X011834Y002616D02*
X011834Y002203D01*
X011731Y002203D02*
X011938Y002203D01*
X012161Y002203D02*
X012161Y002616D01*
X012471Y002616D01*
X012574Y002513D01*
X012574Y002203D01*
X012805Y002203D02*
X013012Y002203D01*
X012908Y002203D02*
X012908Y002616D01*
X012805Y002616D01*
X012908Y002823D02*
X012908Y002927D01*
X013235Y002823D02*
X013235Y002203D01*
X013648Y002203D01*
X013879Y002203D02*
X013879Y002616D01*
X014086Y002823D01*
X014293Y002616D01*
X014293Y002203D01*
X014293Y002513D02*
X013879Y002513D01*
X015168Y002616D02*
X015375Y002203D01*
X015582Y002616D01*
X016457Y002616D02*
X016664Y002823D01*
X016664Y002203D01*
X016457Y002203D02*
X016871Y002203D01*
X017102Y002203D02*
X017205Y002203D01*
X017205Y002306D01*
X017102Y002306D01*
X017102Y002203D01*
X017424Y002203D02*
X017838Y002203D01*
X017631Y002203D02*
X017631Y002823D01*
X017424Y002616D01*
X018713Y002823D02*
X018713Y002203D01*
X019127Y002203D01*
X019358Y002203D02*
X019358Y002823D01*
X019668Y002823D01*
X019771Y002720D01*
X019771Y002513D01*
X019668Y002410D01*
X019358Y002410D01*
X020002Y002823D02*
X020416Y002823D01*
X020209Y002823D02*
X020209Y002203D01*
X021291Y002410D02*
X021291Y002616D01*
X021498Y002823D01*
X021721Y002513D02*
X021721Y002306D01*
X021824Y002203D01*
X022135Y002203D01*
X022366Y002203D02*
X022572Y002410D01*
X022572Y002616D01*
X022366Y002823D01*
X022135Y002616D02*
X021824Y002616D01*
X021721Y002513D01*
X021498Y002203D02*
X021291Y002410D01*
X022795Y002203D02*
X023209Y002616D01*
X023209Y002720D01*
X023105Y002823D01*
X022899Y002823D01*
X022795Y002720D01*
X023440Y002720D02*
X023440Y002306D01*
X023853Y002720D01*
X023853Y002306D01*
X023750Y002203D01*
X023543Y002203D01*
X023440Y002306D01*
X023209Y002203D02*
X022795Y002203D01*
X023440Y002720D02*
X023543Y002823D01*
X023750Y002823D01*
X023853Y002720D01*
X024084Y002720D02*
X024188Y002823D01*
X024394Y002823D01*
X024498Y002720D01*
X024084Y002306D01*
X024188Y002203D01*
X024394Y002203D01*
X024498Y002306D01*
X024498Y002720D01*
X024729Y002720D02*
X024832Y002823D01*
X025039Y002823D01*
X025142Y002720D01*
X025142Y002616D01*
X025039Y002513D01*
X025142Y002410D01*
X025142Y002306D01*
X025039Y002203D01*
X024832Y002203D01*
X024729Y002306D01*
X024936Y002513D02*
X025039Y002513D01*
X025373Y002513D02*
X025787Y002513D01*
X026018Y002513D02*
X026018Y002823D01*
X026431Y002823D01*
X026328Y002616D02*
X026431Y002513D01*
X026431Y002306D01*
X026328Y002203D01*
X026121Y002203D01*
X026018Y002306D01*
X026018Y002513D02*
X026225Y002616D01*
X026328Y002616D01*
X027307Y002410D02*
X027617Y002203D01*
X027844Y002306D02*
X027947Y002203D01*
X028154Y002203D01*
X028258Y002306D01*
X028258Y002513D01*
X028154Y002616D01*
X027947Y002616D01*
X027844Y002513D01*
X027844Y002306D01*
X027617Y002616D02*
X027307Y002410D01*
X027307Y002203D02*
X027307Y002823D01*
X028489Y002513D02*
X028592Y002616D01*
X028902Y002616D01*
X028799Y002410D02*
X028592Y002410D01*
X028489Y002513D01*
X028489Y002203D02*
X028799Y002203D01*
X028902Y002306D01*
X028799Y002410D01*
X029133Y002616D02*
X029340Y002616D01*
X029236Y002720D02*
X029236Y002306D01*
X029340Y002203D01*
X029563Y002306D02*
X029666Y002410D01*
X029976Y002410D01*
X029976Y002513D02*
X029976Y002203D01*
X029666Y002203D01*
X029563Y002306D01*
X029666Y002616D02*
X029873Y002616D01*
X029976Y002513D01*
X030207Y002306D02*
X030207Y002720D01*
X030311Y002823D01*
X030517Y002823D01*
X030621Y002720D01*
X030621Y002513D01*
X030517Y002410D01*
X030517Y002616D01*
X030311Y002616D01*
X030311Y002410D01*
X030517Y002410D01*
X030621Y002306D02*
X030517Y002203D01*
X030311Y002203D01*
X030207Y002306D01*
X030852Y002203D02*
X030852Y002616D01*
X030955Y002616D01*
X031059Y002513D01*
X031162Y002616D01*
X031265Y002513D01*
X031265Y002203D01*
X031059Y002203D02*
X031059Y002513D01*
X031496Y002513D02*
X031496Y002306D01*
X031600Y002203D01*
X031910Y002203D01*
X032141Y002306D02*
X032244Y002203D01*
X032554Y002203D01*
X032554Y002616D01*
X032785Y002306D02*
X032889Y002306D01*
X032889Y002203D01*
X032785Y002203D01*
X032785Y002306D01*
X033108Y002306D02*
X033211Y002203D01*
X033521Y002203D01*
X033752Y002203D02*
X034166Y002203D01*
X034166Y002616D02*
X033752Y002616D01*
X033521Y002616D02*
X033211Y002616D01*
X033108Y002513D01*
X033108Y002306D01*
X033752Y002203D02*
X034166Y002616D01*
X032141Y002616D02*
X032141Y002306D01*
X031910Y002616D02*
X031600Y002616D01*
X031496Y002513D01*
X024084Y002306D02*
X024084Y002720D01*
X011834Y002616D02*
X011731Y002616D01*
X011500Y002513D02*
X011500Y002203D01*
X011293Y002203D02*
X011293Y002513D01*
X011397Y002616D01*
X011500Y002513D01*
X011293Y002513D02*
X011190Y002616D01*
X011086Y002616D01*
X011086Y002203D01*
D13*
X008896Y009093D03*
X007896Y009633D03*
X008896Y010183D03*
X007896Y010723D03*
X008896Y011263D03*
X007896Y011813D03*
X007896Y012893D03*
X008896Y012353D03*
X008896Y013443D03*
X007896Y013983D03*
X008896Y014523D03*
X007896Y015073D03*
X008896Y015613D03*
X008896Y016703D03*
X007896Y017243D03*
X008896Y017783D03*
X007896Y018333D03*
X008896Y018873D03*
X007896Y019413D03*
X007896Y020503D03*
X008896Y021043D03*
X007896Y021593D03*
X008896Y019963D03*
X007896Y016153D03*
D14*
X008896Y022133D03*
D15*
X008396Y024873D03*
X008396Y006353D03*
D16*
X031596Y014813D03*
X032146Y015313D03*
X032696Y015813D03*
X037996Y011363D03*
X046546Y010963D03*
X046546Y009963D03*
X047546Y009963D03*
X047546Y010963D03*
X047546Y011963D03*
X046546Y011963D03*
X046546Y008963D03*
X047546Y008963D03*
X047546Y007963D03*
X046546Y007963D03*
X046546Y006963D03*
X047546Y006963D03*
X047546Y005963D03*
X046546Y005963D03*
X046546Y004963D03*
X047546Y004963D03*
X051546Y004963D03*
X051546Y005963D03*
X052546Y005963D03*
X052546Y004963D03*
X052546Y006963D03*
X051546Y006963D03*
X051546Y007963D03*
X052546Y007963D03*
X052546Y008963D03*
X051546Y008963D03*
X051546Y009963D03*
X051546Y010963D03*
X052546Y010963D03*
X052546Y009963D03*
X052546Y011963D03*
X051546Y011963D03*
X051546Y016463D03*
X051546Y017463D03*
X052546Y017463D03*
X052546Y016463D03*
X052546Y018463D03*
X051546Y018463D03*
X051546Y019463D03*
X051546Y020463D03*
X052546Y020463D03*
X052546Y019463D03*
X052546Y021463D03*
X051546Y021463D03*
X051546Y022463D03*
X051546Y023463D03*
X052546Y023463D03*
X052546Y022463D03*
X047546Y022463D03*
X046546Y022463D03*
X046546Y023463D03*
X047546Y023463D03*
X047546Y021463D03*
X046546Y021463D03*
X046546Y020463D03*
X046546Y019463D03*
X047546Y019463D03*
X047546Y020463D03*
X047546Y018463D03*
X046546Y018463D03*
X046546Y017463D03*
X046546Y016463D03*
X047546Y016463D03*
X047546Y017463D03*
X047546Y027963D03*
X046546Y027963D03*
X046546Y028963D03*
X046546Y029963D03*
X047546Y029963D03*
X047546Y028963D03*
X047546Y030963D03*
X046546Y030963D03*
X046546Y031963D03*
X046546Y032963D03*
X047546Y032963D03*
X047546Y031963D03*
X047546Y033963D03*
X046546Y033963D03*
X046546Y034963D03*
X047546Y034963D03*
X051546Y031963D03*
X052546Y031963D03*
X052546Y030963D03*
X051546Y030963D03*
X051546Y029963D03*
X051546Y028963D03*
X052546Y028963D03*
X052546Y029963D03*
X052546Y027963D03*
X051546Y027963D03*
X027646Y022863D03*
X026646Y022863D03*
X025646Y022863D03*
X024646Y022863D03*
X026446Y030263D03*
X026446Y031263D03*
D17*
X013620Y022263D03*
X012872Y022263D03*
X011720Y022263D03*
X010972Y022263D03*
X010972Y021263D03*
X011720Y021263D03*
X011720Y020263D03*
X010972Y020263D03*
X010972Y019263D03*
X011720Y019263D03*
X011720Y018263D03*
X010972Y018263D03*
X010972Y017263D03*
X011720Y017263D03*
X012872Y017263D03*
X013620Y017263D03*
X013620Y018263D03*
X012872Y018263D03*
X012872Y019263D03*
X013620Y019263D03*
X013620Y020263D03*
X012872Y020263D03*
X012872Y021263D03*
X013620Y021263D03*
X013620Y016263D03*
X012872Y016263D03*
X012872Y015263D03*
X013620Y015263D03*
X013620Y014263D03*
X012872Y014263D03*
X011720Y014263D03*
X010972Y014263D03*
X010972Y015263D03*
X011720Y015263D03*
X011720Y016263D03*
X010972Y016263D03*
X010972Y013263D03*
X011720Y013263D03*
X011720Y012263D03*
X010972Y012263D03*
X010972Y011263D03*
X011720Y011263D03*
X012872Y011263D03*
X013620Y011263D03*
X013620Y012263D03*
X012872Y012263D03*
X012872Y013263D03*
X013620Y013263D03*
X043672Y011963D03*
X044420Y011963D03*
X044420Y010963D03*
X043672Y010963D03*
X043672Y009963D03*
X044420Y009963D03*
X044420Y008963D03*
X043672Y008963D03*
X043672Y007963D03*
X044420Y007963D03*
X044420Y006963D03*
X043672Y006963D03*
X043672Y005963D03*
X044420Y005963D03*
X044420Y004963D03*
X043672Y004963D03*
X049672Y004963D03*
X050420Y004963D03*
X050420Y005963D03*
X049672Y005963D03*
X049672Y006963D03*
X050420Y006963D03*
X050420Y007963D03*
X049672Y007963D03*
X049672Y008963D03*
X050420Y008963D03*
X050420Y009963D03*
X049672Y009963D03*
X049672Y010963D03*
X050420Y010963D03*
X050420Y011963D03*
X049672Y011963D03*
X049672Y016463D03*
X050420Y016463D03*
X050420Y017463D03*
X049672Y017463D03*
X049672Y018463D03*
X050420Y018463D03*
X050420Y019463D03*
X049672Y019463D03*
X049672Y020463D03*
X050420Y020463D03*
X050420Y021463D03*
X049672Y021463D03*
X049672Y022463D03*
X050420Y022463D03*
X050420Y023463D03*
X049672Y023463D03*
X044420Y023463D03*
X043672Y023463D03*
X043672Y022463D03*
X044420Y022463D03*
X044420Y021463D03*
X043672Y021463D03*
X043672Y020463D03*
X044420Y020463D03*
X044420Y019463D03*
X043672Y019463D03*
X043672Y018463D03*
X044420Y018463D03*
X044420Y017463D03*
X043672Y017463D03*
X043672Y016463D03*
X044420Y016463D03*
X049672Y027963D03*
X050420Y027963D03*
X050420Y028963D03*
X049672Y028963D03*
X049672Y029963D03*
X050420Y029963D03*
X050420Y030963D03*
X049672Y030963D03*
X049672Y031963D03*
X050420Y031963D03*
D18*
X027132Y017027D03*
X026876Y017027D03*
X026620Y017027D03*
X026364Y017027D03*
X026108Y017027D03*
X025852Y017027D03*
X025596Y017027D03*
X025341Y017027D03*
X025085Y017027D03*
X024829Y017027D03*
X024573Y017027D03*
X024317Y017027D03*
X024061Y017027D03*
X023805Y017027D03*
X023549Y017027D03*
X023293Y017027D03*
X023037Y017027D03*
X022782Y017027D03*
X022526Y017027D03*
X022270Y017027D03*
X022014Y017027D03*
X021758Y017027D03*
X021502Y017027D03*
X021246Y017027D03*
X020990Y017027D03*
X020734Y017027D03*
X020478Y017027D03*
X020222Y017027D03*
X019967Y017027D03*
X019711Y017027D03*
X019711Y010649D03*
X019967Y010649D03*
X020222Y010649D03*
X020478Y010649D03*
X020734Y010649D03*
X020990Y010649D03*
X021246Y010649D03*
X021502Y010649D03*
X021758Y010649D03*
X022014Y010649D03*
X022270Y010649D03*
X022526Y010649D03*
X022782Y010649D03*
X023037Y010649D03*
X023293Y010649D03*
X023549Y010649D03*
X023805Y010649D03*
X024061Y010649D03*
X024317Y010649D03*
X024573Y010649D03*
X024829Y010649D03*
X025085Y010649D03*
X025341Y010649D03*
X025596Y010649D03*
X025852Y010649D03*
X026108Y010649D03*
X026364Y010649D03*
X026620Y010649D03*
X026876Y010649D03*
X027132Y010649D03*
D19*
X027791Y011407D03*
X027791Y011663D03*
X027791Y011919D03*
X027791Y012174D03*
X027791Y012430D03*
X027791Y012686D03*
X027791Y012942D03*
X027791Y013198D03*
X027791Y013454D03*
X027791Y013710D03*
X027791Y013966D03*
X027791Y014222D03*
X027791Y014478D03*
X027791Y014734D03*
X027791Y014989D03*
X027791Y015245D03*
X027791Y015501D03*
X027791Y015757D03*
X027791Y016013D03*
X027791Y016269D03*
X019051Y016269D03*
X019051Y016013D03*
X019051Y015757D03*
X019051Y015501D03*
X019051Y015245D03*
X019051Y014989D03*
X019051Y014734D03*
X019051Y014478D03*
X019051Y014222D03*
X019051Y013966D03*
X019051Y013710D03*
X019051Y013454D03*
X019051Y013198D03*
X019051Y012942D03*
X019051Y012686D03*
X019051Y012430D03*
X019051Y012174D03*
X019051Y011919D03*
X019051Y011663D03*
X019051Y011407D03*
D20*
X030618Y013781D03*
X030757Y013642D03*
X030896Y013503D03*
X031035Y013363D03*
X031174Y013224D03*
X031314Y013085D03*
X031453Y012946D03*
X031592Y012807D03*
X031731Y012668D03*
X031871Y012528D03*
X032010Y012389D03*
X032149Y012250D03*
X032288Y012111D03*
X032427Y011972D03*
X032566Y011832D03*
X032706Y011693D03*
X032845Y011554D03*
X032984Y011415D03*
X033123Y011276D03*
X033262Y011136D03*
X033402Y010997D03*
X033541Y010858D03*
X033680Y010719D03*
X033819Y010580D03*
X033958Y010440D03*
X034098Y010301D03*
X034237Y010162D03*
X034376Y010023D03*
X034515Y009884D03*
X034654Y009744D03*
X034794Y009605D03*
X034933Y009466D03*
X035072Y009327D03*
X035211Y009188D03*
X035350Y009048D03*
X035489Y008909D03*
X036603Y008909D03*
X036742Y009048D03*
X036881Y009188D03*
X037021Y009327D03*
X037160Y009466D03*
X037299Y009605D03*
X037438Y009744D03*
X037577Y009884D03*
X037717Y010023D03*
X037856Y010162D03*
X037995Y010301D03*
X038134Y010440D03*
X038273Y010580D03*
X038413Y010719D03*
X038552Y010858D03*
X038691Y010997D03*
X038830Y011136D03*
X038969Y011276D03*
X039109Y011415D03*
X039248Y011554D03*
X039387Y011693D03*
X039526Y011832D03*
X039665Y011972D03*
X039805Y012111D03*
X039944Y012250D03*
X040083Y012389D03*
X040222Y012528D03*
X040361Y012668D03*
X040501Y012807D03*
X040640Y012946D03*
X040779Y013085D03*
X040918Y013224D03*
X041057Y013363D03*
X041196Y013503D03*
X041336Y013642D03*
X041475Y013781D03*
X041475Y014895D03*
X041336Y015034D03*
X041196Y015173D03*
X041057Y015312D03*
X040918Y015451D03*
X040779Y015591D03*
X040640Y015730D03*
X040501Y015869D03*
X040361Y016008D03*
X040222Y016147D03*
X040083Y016287D03*
X039944Y016426D03*
X039805Y016565D03*
X039665Y016704D03*
X039526Y016843D03*
X039387Y016983D03*
X039248Y017122D03*
X039109Y017261D03*
X038969Y017400D03*
X038830Y017539D03*
X038691Y017678D03*
X038552Y017818D03*
X038413Y017957D03*
X038273Y018096D03*
X038134Y018235D03*
X037995Y018375D03*
X037856Y018514D03*
X037717Y018653D03*
X037577Y018792D03*
X037438Y018931D03*
X037299Y019070D03*
X037160Y019210D03*
X037021Y019349D03*
X036881Y019488D03*
X036742Y019627D03*
X036603Y019766D03*
X035489Y019766D03*
X035350Y019627D03*
X035211Y019488D03*
X035072Y019349D03*
X034933Y019210D03*
X034794Y019070D03*
X034654Y018931D03*
X034515Y018792D03*
X034376Y018653D03*
X034237Y018514D03*
X034098Y018375D03*
X033958Y018235D03*
X033819Y018096D03*
X033680Y017957D03*
X033541Y017818D03*
X033402Y017678D03*
X033262Y017539D03*
X033123Y017400D03*
X032984Y017261D03*
X032845Y017122D03*
X032706Y016983D03*
X032566Y016843D03*
X032427Y016704D03*
X032288Y016565D03*
X032149Y016426D03*
X032010Y016287D03*
X031871Y016147D03*
X031731Y016008D03*
X031592Y015869D03*
X031453Y015730D03*
X031314Y015591D03*
X031174Y015451D03*
X031035Y015312D03*
X030896Y015173D03*
X030757Y015034D03*
X030618Y014895D03*
D21*
X030649Y014932D02*
X030511Y014932D01*
X030550Y014894D02*
X030688Y014894D01*
X030726Y014855D02*
X030588Y014855D01*
X030627Y014817D02*
X030765Y014817D01*
X030803Y014778D02*
X030665Y014778D01*
X030704Y014739D02*
X030768Y014739D01*
X030736Y014707D02*
X030805Y014776D01*
X030499Y015082D01*
X030430Y015013D01*
X030736Y014707D01*
X030805Y014776D01*
X030499Y015082D01*
X030430Y015013D01*
X030736Y014707D01*
X030875Y014846D02*
X030944Y014916D01*
X030639Y015221D01*
X030569Y015152D01*
X030875Y014846D01*
X030944Y014916D01*
X030639Y015221D01*
X030569Y015152D01*
X030875Y014846D01*
X030866Y014855D02*
X030884Y014855D01*
X030923Y014894D02*
X030828Y014894D01*
X030789Y014932D02*
X030928Y014932D01*
X030889Y014971D02*
X030751Y014971D01*
X030712Y015009D02*
X030851Y015009D01*
X030812Y015048D02*
X030674Y015048D01*
X030635Y015086D02*
X030774Y015086D01*
X030735Y015125D02*
X030597Y015125D01*
X030581Y015163D02*
X030696Y015163D01*
X030658Y015202D02*
X030619Y015202D01*
X030709Y015291D02*
X031014Y014986D01*
X031084Y015055D01*
X030778Y015360D01*
X030709Y015291D01*
X030778Y015360D01*
X031084Y015055D01*
X031014Y014986D01*
X030709Y015291D01*
X030721Y015279D02*
X030859Y015279D01*
X030821Y015318D02*
X030735Y015318D01*
X030774Y015356D02*
X030782Y015356D01*
X030848Y015431D02*
X030917Y015500D01*
X031223Y015194D01*
X031154Y015125D01*
X031153Y015125D01*
X031154Y015125D02*
X030848Y015431D01*
X030917Y015500D01*
X031223Y015194D01*
X031154Y015125D01*
X030848Y015431D01*
X030851Y015433D02*
X030983Y015433D01*
X030945Y015472D02*
X030889Y015472D01*
X030884Y015395D02*
X031022Y015395D01*
X031060Y015356D02*
X030922Y015356D01*
X030961Y015318D02*
X031099Y015318D01*
X031138Y015279D02*
X030999Y015279D01*
X031038Y015241D02*
X031176Y015241D01*
X031215Y015202D02*
X031076Y015202D01*
X031115Y015163D02*
X031192Y015163D01*
X031293Y015264D02*
X030987Y015570D01*
X031056Y015639D01*
X031362Y015333D01*
X031293Y015264D01*
X031362Y015333D01*
X031056Y015639D01*
X030987Y015570D01*
X031293Y015264D01*
X031278Y015279D02*
X031308Y015279D01*
X031346Y015318D02*
X031239Y015318D01*
X031201Y015356D02*
X031339Y015356D01*
X031300Y015395D02*
X031162Y015395D01*
X031123Y015433D02*
X031262Y015433D01*
X031223Y015472D02*
X031085Y015472D01*
X031046Y015510D02*
X031185Y015510D01*
X031146Y015549D02*
X031008Y015549D01*
X031005Y015587D02*
X031108Y015587D01*
X031069Y015626D02*
X031043Y015626D01*
X031126Y015709D02*
X031432Y015403D01*
X031501Y015472D01*
X031195Y015778D01*
X031126Y015709D01*
X031195Y015778D01*
X031501Y015472D01*
X031432Y015403D01*
X031126Y015709D01*
X031132Y015703D02*
X031270Y015703D01*
X031232Y015742D02*
X031159Y015742D01*
X031171Y015665D02*
X031309Y015665D01*
X031347Y015626D02*
X031209Y015626D01*
X031248Y015587D02*
X031386Y015587D01*
X031425Y015549D02*
X031286Y015549D01*
X031325Y015510D02*
X031463Y015510D01*
X031501Y015472D02*
X031363Y015472D01*
X031402Y015433D02*
X031462Y015433D01*
X031571Y015542D02*
X031640Y015611D01*
X031335Y015917D01*
X031265Y015848D01*
X031571Y015542D01*
X031640Y015611D01*
X031335Y015917D01*
X031265Y015848D01*
X031571Y015542D01*
X031565Y015549D02*
X031578Y015549D01*
X031616Y015587D02*
X031526Y015587D01*
X031487Y015626D02*
X031626Y015626D01*
X031587Y015665D02*
X031449Y015665D01*
X031410Y015703D02*
X031549Y015703D01*
X031510Y015742D02*
X031372Y015742D01*
X031333Y015780D02*
X031472Y015780D01*
X031433Y015819D02*
X031295Y015819D01*
X031275Y015857D02*
X031395Y015857D01*
X031356Y015896D02*
X031313Y015896D01*
X031405Y015987D02*
X031474Y016056D01*
X031780Y015751D01*
X031710Y015682D01*
X031405Y015987D01*
X031474Y016056D01*
X031780Y015751D01*
X031710Y015682D01*
X031405Y015987D01*
X031419Y015973D02*
X031557Y015973D01*
X031519Y016011D02*
X031429Y016011D01*
X031467Y016050D02*
X031480Y016050D01*
X031544Y016126D02*
X031613Y016196D01*
X031919Y015890D01*
X031849Y015821D01*
X031544Y016126D01*
X031613Y016196D01*
X031919Y015890D01*
X031849Y015821D01*
X031544Y016126D01*
X031544Y016127D02*
X031682Y016127D01*
X031720Y016089D02*
X031582Y016089D01*
X031620Y016050D02*
X031759Y016050D01*
X031797Y016011D02*
X031659Y016011D01*
X031697Y015973D02*
X031836Y015973D01*
X031874Y015934D02*
X031736Y015934D01*
X031774Y015896D02*
X031913Y015896D01*
X031886Y015857D02*
X031813Y015857D01*
X031750Y015780D02*
X031612Y015780D01*
X031650Y015742D02*
X031770Y015742D01*
X031732Y015703D02*
X031689Y015703D01*
X031712Y015819D02*
X031573Y015819D01*
X031535Y015857D02*
X031673Y015857D01*
X031634Y015896D02*
X031496Y015896D01*
X031458Y015934D02*
X031596Y015934D01*
X031583Y016166D02*
X031643Y016166D01*
X031706Y016243D02*
X031844Y016243D01*
X031806Y016281D02*
X031699Y016281D01*
X031683Y016266D02*
X031752Y016335D01*
X032058Y016029D01*
X031989Y015960D01*
X031683Y016266D01*
X031752Y016335D01*
X032058Y016029D01*
X031989Y015960D01*
X031683Y016266D01*
X031737Y016320D02*
X031767Y016320D01*
X031830Y016397D02*
X031968Y016397D01*
X031930Y016435D02*
X031853Y016435D01*
X031822Y016405D02*
X031891Y016474D01*
X032197Y016168D01*
X032128Y016099D01*
X031822Y016405D01*
X031891Y016474D01*
X032197Y016168D01*
X032128Y016099D01*
X031822Y016405D01*
X031869Y016358D02*
X032007Y016358D01*
X032046Y016320D02*
X031907Y016320D01*
X031946Y016281D02*
X032084Y016281D01*
X032123Y016243D02*
X031984Y016243D01*
X032023Y016204D02*
X032161Y016204D01*
X032194Y016166D02*
X032061Y016166D01*
X032100Y016127D02*
X032156Y016127D01*
X032037Y016050D02*
X031899Y016050D01*
X031937Y016011D02*
X032040Y016011D01*
X032002Y015973D02*
X031976Y015973D01*
X031999Y016089D02*
X031860Y016089D01*
X031822Y016127D02*
X031960Y016127D01*
X031921Y016166D02*
X031783Y016166D01*
X031745Y016204D02*
X031883Y016204D01*
X032109Y016397D02*
X032247Y016397D01*
X032208Y016435D02*
X032070Y016435D01*
X032032Y016474D02*
X032170Y016474D01*
X032131Y016512D02*
X031993Y016512D01*
X031961Y016544D02*
X032031Y016613D01*
X032336Y016307D01*
X032267Y016238D01*
X031961Y016544D01*
X032031Y016613D01*
X032336Y016307D01*
X032267Y016238D01*
X031961Y016544D01*
X031968Y016551D02*
X032093Y016551D01*
X032054Y016590D02*
X032007Y016590D01*
X032101Y016683D02*
X032170Y016752D01*
X032476Y016447D01*
X032406Y016377D01*
X032101Y016683D01*
X032170Y016752D01*
X032476Y016447D01*
X032406Y016377D01*
X032101Y016683D01*
X032117Y016667D02*
X032255Y016667D01*
X032217Y016705D02*
X032123Y016705D01*
X032161Y016744D02*
X032178Y016744D01*
X032241Y016821D02*
X032380Y016821D01*
X032418Y016782D02*
X032280Y016782D01*
X032319Y016744D02*
X032457Y016744D01*
X032495Y016705D02*
X032357Y016705D01*
X032396Y016667D02*
X032534Y016667D01*
X032572Y016628D02*
X032434Y016628D01*
X032473Y016590D02*
X032611Y016590D01*
X032615Y016586D02*
X032546Y016517D01*
X032240Y016822D01*
X032309Y016892D01*
X032615Y016586D01*
X032546Y016517D01*
X032240Y016822D01*
X032309Y016892D01*
X032615Y016586D01*
X032580Y016551D02*
X032511Y016551D01*
X032448Y016474D02*
X032310Y016474D01*
X032348Y016435D02*
X032464Y016435D01*
X032426Y016397D02*
X032387Y016397D01*
X032324Y016320D02*
X032186Y016320D01*
X032147Y016358D02*
X032285Y016358D01*
X032310Y016281D02*
X032224Y016281D01*
X032263Y016243D02*
X032272Y016243D01*
X032271Y016512D02*
X032410Y016512D01*
X032371Y016551D02*
X032233Y016551D01*
X032194Y016590D02*
X032333Y016590D01*
X032294Y016628D02*
X032156Y016628D01*
X032277Y016859D02*
X032341Y016859D01*
X032404Y016936D02*
X032542Y016936D01*
X032581Y016898D02*
X032443Y016898D01*
X032481Y016859D02*
X032620Y016859D01*
X032658Y016821D02*
X032520Y016821D01*
X032558Y016782D02*
X032697Y016782D01*
X032735Y016744D02*
X032597Y016744D01*
X032635Y016705D02*
X032734Y016705D01*
X032754Y016725D02*
X032685Y016656D01*
X032379Y016962D01*
X032448Y017031D01*
X032754Y016725D01*
X032685Y016656D01*
X032379Y016962D01*
X032448Y017031D01*
X032754Y016725D01*
X032696Y016667D02*
X032674Y016667D01*
X032824Y016795D02*
X032893Y016864D01*
X032587Y017170D01*
X032518Y017101D01*
X032824Y016795D01*
X032893Y016864D01*
X032587Y017170D01*
X032518Y017101D01*
X032824Y016795D01*
X032798Y016821D02*
X032850Y016821D01*
X032888Y016859D02*
X032760Y016859D01*
X032721Y016898D02*
X032859Y016898D01*
X032821Y016936D02*
X032683Y016936D01*
X032644Y016975D02*
X032782Y016975D01*
X032744Y017014D02*
X032605Y017014D01*
X032567Y017052D02*
X032705Y017052D01*
X032667Y017091D02*
X032528Y017091D01*
X032547Y017129D02*
X032628Y017129D01*
X032590Y017168D02*
X032585Y017168D01*
X032657Y017240D02*
X032726Y017309D01*
X033032Y017003D01*
X032963Y016934D01*
X032657Y017240D01*
X032726Y017309D01*
X033032Y017003D01*
X032963Y016934D01*
X032657Y017240D01*
X032662Y017245D02*
X032791Y017245D01*
X032752Y017283D02*
X032701Y017283D01*
X032691Y017206D02*
X032829Y017206D01*
X032868Y017168D02*
X032730Y017168D01*
X032768Y017129D02*
X032906Y017129D01*
X032945Y017091D02*
X032807Y017091D01*
X032845Y017052D02*
X032984Y017052D01*
X033022Y017014D02*
X032884Y017014D01*
X032922Y016975D02*
X033004Y016975D01*
X032965Y016936D02*
X032961Y016936D01*
X033102Y017074D02*
X033171Y017143D01*
X032866Y017448D01*
X032797Y017379D01*
X033102Y017074D01*
X033171Y017143D01*
X032866Y017448D01*
X032797Y017379D01*
X033102Y017074D01*
X033085Y017091D02*
X033119Y017091D01*
X033158Y017129D02*
X033047Y017129D01*
X033008Y017168D02*
X033146Y017168D01*
X033108Y017206D02*
X032970Y017206D01*
X032931Y017245D02*
X033069Y017245D01*
X033031Y017283D02*
X032893Y017283D01*
X032854Y017322D02*
X032992Y017322D01*
X032954Y017360D02*
X032815Y017360D01*
X032816Y017399D02*
X032915Y017399D01*
X032877Y017438D02*
X032855Y017438D01*
X032936Y017518D02*
X033241Y017213D01*
X033311Y017282D01*
X033005Y017588D01*
X032936Y017518D01*
X033005Y017588D01*
X033311Y017282D01*
X033241Y017213D01*
X032936Y017518D01*
X032940Y017515D02*
X033078Y017515D01*
X033039Y017553D02*
X032970Y017553D01*
X032978Y017476D02*
X033116Y017476D01*
X033155Y017438D02*
X033017Y017438D01*
X033055Y017399D02*
X033193Y017399D01*
X033232Y017360D02*
X033094Y017360D01*
X033132Y017322D02*
X033271Y017322D01*
X033309Y017283D02*
X033171Y017283D01*
X033209Y017245D02*
X033274Y017245D01*
X033381Y017352D02*
X033450Y017421D01*
X033144Y017727D01*
X033075Y017658D01*
X033381Y017352D01*
X033450Y017421D01*
X033144Y017727D01*
X033075Y017658D01*
X033381Y017352D01*
X033389Y017360D02*
X033372Y017360D01*
X033334Y017399D02*
X033428Y017399D01*
X033433Y017438D02*
X033295Y017438D01*
X033257Y017476D02*
X033395Y017476D01*
X033356Y017515D02*
X033218Y017515D01*
X033179Y017553D02*
X033318Y017553D01*
X033279Y017592D02*
X033141Y017592D01*
X033102Y017630D02*
X033241Y017630D01*
X033202Y017669D02*
X033086Y017669D01*
X033125Y017707D02*
X033164Y017707D01*
X033226Y017784D02*
X033365Y017784D01*
X033403Y017746D02*
X033265Y017746D01*
X033304Y017707D02*
X033442Y017707D01*
X033480Y017669D02*
X033342Y017669D01*
X033381Y017630D02*
X033519Y017630D01*
X033558Y017592D02*
X033419Y017592D01*
X033458Y017553D02*
X033582Y017553D01*
X033589Y017560D02*
X033520Y017491D01*
X033214Y017797D01*
X033283Y017866D01*
X033589Y017560D01*
X033520Y017491D01*
X033214Y017797D01*
X033283Y017866D01*
X033589Y017560D01*
X033543Y017515D02*
X033496Y017515D01*
X033621Y017669D02*
X033698Y017669D01*
X033728Y017699D02*
X033659Y017630D01*
X033353Y017936D01*
X033423Y018005D01*
X033728Y017699D01*
X033659Y017630D01*
X033353Y017936D01*
X033423Y018005D01*
X033728Y017699D01*
X033720Y017707D02*
X033582Y017707D01*
X033544Y017746D02*
X033682Y017746D01*
X033643Y017784D02*
X033505Y017784D01*
X033466Y017823D02*
X033605Y017823D01*
X033566Y017861D02*
X033428Y017861D01*
X033389Y017900D02*
X033528Y017900D01*
X033489Y017939D02*
X033356Y017939D01*
X033395Y017977D02*
X033451Y017977D01*
X033513Y018054D02*
X033652Y018054D01*
X033690Y018016D02*
X033552Y018016D01*
X033591Y017977D02*
X033729Y017977D01*
X033767Y017939D02*
X033629Y017939D01*
X033668Y017900D02*
X033806Y017900D01*
X033844Y017861D02*
X033706Y017861D01*
X033745Y017823D02*
X033852Y017823D01*
X033867Y017839D02*
X033798Y017769D01*
X033492Y018075D01*
X033562Y018144D01*
X033867Y017839D01*
X033798Y017769D01*
X033492Y018075D01*
X033562Y018144D01*
X033867Y017839D01*
X033813Y017784D02*
X033783Y017784D01*
X033937Y017909D02*
X034007Y017978D01*
X033701Y018284D01*
X033632Y018214D01*
X033937Y017909D01*
X034007Y017978D01*
X033701Y018284D01*
X033632Y018214D01*
X033937Y017909D01*
X033908Y017939D02*
X033967Y017939D01*
X034006Y017977D02*
X033869Y017977D01*
X033831Y018016D02*
X033969Y018016D01*
X033930Y018054D02*
X033792Y018054D01*
X033753Y018093D02*
X033892Y018093D01*
X033853Y018131D02*
X033715Y018131D01*
X033676Y018170D02*
X033815Y018170D01*
X033776Y018208D02*
X033638Y018208D01*
X033664Y018247D02*
X033738Y018247D01*
X033800Y018324D02*
X033939Y018324D01*
X033977Y018285D02*
X033839Y018285D01*
X033878Y018247D02*
X034016Y018247D01*
X034054Y018208D02*
X033916Y018208D01*
X033955Y018170D02*
X034093Y018170D01*
X034131Y018131D02*
X033993Y018131D01*
X034032Y018093D02*
X034122Y018093D01*
X034146Y018117D02*
X034077Y018048D01*
X033771Y018354D01*
X033840Y018423D01*
X034146Y018117D01*
X034077Y018048D01*
X033771Y018354D01*
X033840Y018423D01*
X034146Y018117D01*
X034083Y018054D02*
X034070Y018054D01*
X034216Y018187D02*
X034285Y018256D01*
X033979Y018562D01*
X033910Y018493D01*
X034216Y018187D01*
X034285Y018256D01*
X033979Y018562D01*
X033910Y018493D01*
X034216Y018187D01*
X034195Y018208D02*
X034237Y018208D01*
X034276Y018247D02*
X034156Y018247D01*
X034118Y018285D02*
X034256Y018285D01*
X034217Y018324D02*
X034079Y018324D01*
X034040Y018363D02*
X034179Y018363D01*
X034140Y018401D02*
X034002Y018401D01*
X033963Y018440D02*
X034102Y018440D01*
X034063Y018478D02*
X033925Y018478D01*
X033934Y018517D02*
X034024Y018517D01*
X033986Y018555D02*
X033973Y018555D01*
X034049Y018632D02*
X034119Y018701D01*
X034424Y018395D01*
X034355Y018326D01*
X034049Y018632D01*
X034119Y018701D01*
X034424Y018395D01*
X034355Y018326D01*
X034049Y018632D01*
X034050Y018632D02*
X034187Y018632D01*
X034226Y018594D02*
X034087Y018594D01*
X034126Y018555D02*
X034264Y018555D01*
X034303Y018517D02*
X034164Y018517D01*
X034203Y018478D02*
X034341Y018478D01*
X034380Y018440D02*
X034242Y018440D01*
X034280Y018401D02*
X034418Y018401D01*
X034391Y018363D02*
X034319Y018363D01*
X034443Y018517D02*
X034546Y018517D01*
X034563Y018535D02*
X034494Y018465D01*
X034189Y018771D01*
X034258Y018840D01*
X034563Y018535D01*
X034494Y018465D01*
X034189Y018771D01*
X034258Y018840D01*
X034563Y018535D01*
X034543Y018555D02*
X034404Y018555D01*
X034366Y018594D02*
X034504Y018594D01*
X034466Y018632D02*
X034327Y018632D01*
X034289Y018671D02*
X034427Y018671D01*
X034389Y018709D02*
X034250Y018709D01*
X034212Y018748D02*
X034350Y018748D01*
X034311Y018787D02*
X034204Y018787D01*
X034242Y018825D02*
X034273Y018825D01*
X034336Y018902D02*
X034474Y018902D01*
X034436Y018941D02*
X034358Y018941D01*
X034328Y018910D02*
X034397Y018979D01*
X034397Y018979D01*
X034703Y018674D01*
X034633Y018605D01*
X034328Y018910D01*
X034397Y018979D01*
X034703Y018674D01*
X034633Y018605D01*
X034328Y018910D01*
X034374Y018864D02*
X034513Y018864D01*
X034551Y018825D02*
X034413Y018825D01*
X034451Y018787D02*
X034590Y018787D01*
X034628Y018748D02*
X034490Y018748D01*
X034529Y018709D02*
X034667Y018709D01*
X034700Y018671D02*
X034567Y018671D01*
X034606Y018632D02*
X034661Y018632D01*
X034773Y018744D02*
X034842Y018813D01*
X034536Y019119D01*
X034467Y019050D01*
X034773Y018744D01*
X034842Y018813D01*
X034536Y019119D01*
X034467Y019050D01*
X034773Y018744D01*
X034769Y018748D02*
X034777Y018748D01*
X034815Y018787D02*
X034730Y018787D01*
X034691Y018825D02*
X034830Y018825D01*
X034791Y018864D02*
X034653Y018864D01*
X034614Y018902D02*
X034753Y018902D01*
X034714Y018941D02*
X034576Y018941D01*
X034537Y018979D02*
X034676Y018979D01*
X034637Y019018D02*
X034499Y019018D01*
X034474Y019056D02*
X034599Y019056D01*
X034560Y019095D02*
X034512Y019095D01*
X034606Y019189D02*
X034912Y018883D01*
X034981Y018952D01*
X034675Y019258D01*
X034606Y019189D01*
X034675Y019258D01*
X034981Y018952D01*
X034912Y018883D01*
X034606Y019189D01*
X034623Y019172D02*
X034761Y019172D01*
X034723Y019211D02*
X034628Y019211D01*
X034666Y019249D02*
X034684Y019249D01*
X034747Y019326D02*
X034885Y019326D01*
X034847Y019365D02*
X034782Y019365D01*
X034814Y019397D02*
X035120Y019091D01*
X035051Y019022D01*
X034745Y019328D01*
X034814Y019397D01*
X035120Y019091D01*
X035051Y019022D01*
X034745Y019328D01*
X034814Y019397D01*
X034884Y019467D02*
X034954Y019536D01*
X035259Y019231D01*
X035190Y019161D01*
X034884Y019467D01*
X034954Y019536D01*
X035259Y019231D01*
X035190Y019161D01*
X034884Y019467D01*
X034898Y019480D02*
X035009Y019480D01*
X034971Y019519D02*
X034936Y019519D01*
X034910Y019442D02*
X035048Y019442D01*
X035087Y019403D02*
X034948Y019403D01*
X034987Y019365D02*
X035125Y019365D01*
X035164Y019326D02*
X035025Y019326D01*
X035064Y019288D02*
X035202Y019288D01*
X035241Y019249D02*
X035103Y019249D01*
X035141Y019211D02*
X035239Y019211D01*
X035201Y019172D02*
X035180Y019172D01*
X035117Y019095D02*
X034978Y019095D01*
X034940Y019133D02*
X035078Y019133D01*
X035040Y019172D02*
X034901Y019172D01*
X034863Y019211D02*
X035001Y019211D01*
X034963Y019249D02*
X034824Y019249D01*
X034786Y019288D02*
X034924Y019288D01*
X034800Y019133D02*
X034661Y019133D01*
X034700Y019095D02*
X034838Y019095D01*
X034877Y019056D02*
X034739Y019056D01*
X034777Y019018D02*
X034915Y019018D01*
X034954Y018979D02*
X034816Y018979D01*
X034854Y018941D02*
X034969Y018941D01*
X034931Y018902D02*
X034893Y018902D01*
X035017Y019056D02*
X035085Y019056D01*
X035329Y019301D02*
X035024Y019606D01*
X035093Y019675D01*
X035399Y019370D01*
X035329Y019301D01*
X035399Y019370D01*
X035093Y019675D01*
X035024Y019606D01*
X035329Y019301D01*
X035304Y019326D02*
X035355Y019326D01*
X035394Y019365D02*
X035265Y019365D01*
X035227Y019403D02*
X035365Y019403D01*
X035326Y019442D02*
X035188Y019442D01*
X035150Y019480D02*
X035288Y019480D01*
X035249Y019519D02*
X035111Y019519D01*
X035073Y019557D02*
X035211Y019557D01*
X035172Y019596D02*
X035034Y019596D01*
X035052Y019634D02*
X035134Y019634D01*
X035095Y019673D02*
X035090Y019673D01*
X035163Y019745D02*
X035232Y019815D01*
X035538Y019509D01*
X035469Y019440D01*
X035163Y019745D01*
X035232Y019815D01*
X035538Y019509D01*
X035469Y019440D01*
X035163Y019745D01*
X035168Y019750D02*
X035297Y019750D01*
X035335Y019712D02*
X035197Y019712D01*
X035235Y019673D02*
X035374Y019673D01*
X035412Y019634D02*
X035274Y019634D01*
X035312Y019596D02*
X035451Y019596D01*
X035489Y019557D02*
X035351Y019557D01*
X035389Y019519D02*
X035528Y019519D01*
X035509Y019480D02*
X035428Y019480D01*
X035467Y019442D02*
X035471Y019442D01*
X035608Y019579D02*
X035677Y019648D01*
X035371Y019954D01*
X035302Y019885D01*
X035608Y019579D01*
X035677Y019648D01*
X035371Y019954D01*
X035302Y019885D01*
X035608Y019579D01*
X035591Y019596D02*
X035625Y019596D01*
X035663Y019634D02*
X035552Y019634D01*
X035514Y019673D02*
X035652Y019673D01*
X035614Y019712D02*
X035475Y019712D01*
X035437Y019750D02*
X035575Y019750D01*
X035536Y019789D02*
X035398Y019789D01*
X035360Y019827D02*
X035498Y019827D01*
X035459Y019866D02*
X035321Y019866D01*
X035322Y019904D02*
X035421Y019904D01*
X035382Y019943D02*
X035360Y019943D01*
X035258Y019789D02*
X035206Y019789D01*
X036416Y019648D02*
X036721Y019954D01*
X036791Y019885D01*
X036485Y019579D01*
X036416Y019648D01*
X036721Y019954D01*
X036791Y019885D01*
X036485Y019579D01*
X036416Y019648D01*
X036429Y019634D02*
X036540Y019634D01*
X036502Y019596D02*
X036468Y019596D01*
X036440Y019673D02*
X036579Y019673D01*
X036617Y019712D02*
X036479Y019712D01*
X036518Y019750D02*
X036656Y019750D01*
X036694Y019789D02*
X036556Y019789D01*
X036595Y019827D02*
X036733Y019827D01*
X036772Y019866D02*
X036633Y019866D01*
X036672Y019904D02*
X036771Y019904D01*
X036732Y019943D02*
X036710Y019943D01*
X036861Y019815D02*
X036555Y019509D01*
X036624Y019440D01*
X036930Y019745D01*
X036861Y019815D01*
X036930Y019745D01*
X036624Y019440D01*
X036555Y019509D01*
X036861Y019815D01*
X036835Y019789D02*
X036886Y019789D01*
X036925Y019750D02*
X036796Y019750D01*
X036757Y019712D02*
X036896Y019712D01*
X036857Y019673D02*
X036719Y019673D01*
X036680Y019634D02*
X036819Y019634D01*
X036780Y019596D02*
X036642Y019596D01*
X036603Y019557D02*
X036742Y019557D01*
X036703Y019519D02*
X036565Y019519D01*
X036583Y019480D02*
X036665Y019480D01*
X036626Y019442D02*
X036622Y019442D01*
X036694Y019370D02*
X037000Y019675D01*
X037069Y019606D01*
X036763Y019301D01*
X036694Y019370D01*
X037000Y019675D01*
X037069Y019606D01*
X036763Y019301D01*
X036694Y019370D01*
X036699Y019365D02*
X036827Y019365D01*
X036866Y019403D02*
X036728Y019403D01*
X036766Y019442D02*
X036904Y019442D01*
X036943Y019480D02*
X036805Y019480D01*
X036843Y019519D02*
X036981Y019519D01*
X037020Y019557D02*
X036882Y019557D01*
X036920Y019596D02*
X037059Y019596D01*
X037041Y019634D02*
X036959Y019634D01*
X036997Y019673D02*
X037002Y019673D01*
X037139Y019536D02*
X037208Y019467D01*
X036902Y019161D01*
X036833Y019231D01*
X037139Y019536D01*
X037208Y019467D01*
X036902Y019161D01*
X036833Y019231D01*
X037139Y019536D01*
X037122Y019519D02*
X037156Y019519D01*
X037195Y019480D02*
X037083Y019480D01*
X037044Y019442D02*
X037183Y019442D01*
X037144Y019403D02*
X037006Y019403D01*
X036967Y019365D02*
X037106Y019365D01*
X037067Y019326D02*
X036929Y019326D01*
X036890Y019288D02*
X037029Y019288D01*
X036990Y019249D02*
X036852Y019249D01*
X036853Y019211D02*
X036952Y019211D01*
X036913Y019172D02*
X036892Y019172D01*
X036972Y019091D02*
X037278Y019397D01*
X037347Y019328D01*
X037041Y019022D01*
X036972Y019091D01*
X037278Y019397D01*
X037347Y019328D01*
X037041Y019022D01*
X036972Y019091D01*
X036976Y019095D02*
X037114Y019095D01*
X037076Y019056D02*
X037007Y019056D01*
X037014Y019133D02*
X037153Y019133D01*
X037191Y019172D02*
X037053Y019172D01*
X037092Y019211D02*
X037230Y019211D01*
X037268Y019249D02*
X037130Y019249D01*
X037169Y019288D02*
X037307Y019288D01*
X037345Y019326D02*
X037207Y019326D01*
X037246Y019365D02*
X037311Y019365D01*
X037417Y019258D02*
X037486Y019189D01*
X037181Y018883D01*
X037112Y018952D01*
X037417Y019258D01*
X037486Y019189D01*
X037181Y018883D01*
X037112Y018952D01*
X037417Y019258D01*
X037409Y019249D02*
X037426Y019249D01*
X037465Y019211D02*
X037370Y019211D01*
X037332Y019172D02*
X037470Y019172D01*
X037431Y019133D02*
X037293Y019133D01*
X037254Y019095D02*
X037393Y019095D01*
X037354Y019056D02*
X037216Y019056D01*
X037177Y019018D02*
X037316Y019018D01*
X037277Y018979D02*
X037139Y018979D01*
X037123Y018941D02*
X037238Y018941D01*
X037200Y018902D02*
X037162Y018902D01*
X037251Y018813D02*
X037556Y019119D01*
X037626Y019050D01*
X037320Y018744D01*
X037251Y018813D01*
X037556Y019119D01*
X037626Y019050D01*
X037320Y018744D01*
X037251Y018813D01*
X037263Y018825D02*
X037401Y018825D01*
X037363Y018787D02*
X037277Y018787D01*
X037316Y018748D02*
X037324Y018748D01*
X037390Y018674D02*
X037696Y018979D01*
X037696Y018979D01*
X037765Y018910D01*
X037459Y018605D01*
X037390Y018674D01*
X037696Y018979D01*
X037765Y018910D01*
X037459Y018605D01*
X037390Y018674D01*
X037393Y018671D02*
X037526Y018671D01*
X037564Y018709D02*
X037426Y018709D01*
X037464Y018748D02*
X037603Y018748D01*
X037641Y018787D02*
X037503Y018787D01*
X037541Y018825D02*
X037680Y018825D01*
X037718Y018864D02*
X037580Y018864D01*
X037618Y018902D02*
X037757Y018902D01*
X037734Y018941D02*
X037657Y018941D01*
X037594Y019018D02*
X037456Y019018D01*
X037494Y019056D02*
X037619Y019056D01*
X037580Y019095D02*
X037533Y019095D01*
X037555Y018979D02*
X037417Y018979D01*
X037378Y018941D02*
X037517Y018941D01*
X037478Y018902D02*
X037340Y018902D01*
X037301Y018864D02*
X037440Y018864D01*
X037431Y018632D02*
X037487Y018632D01*
X037550Y018555D02*
X037688Y018555D01*
X037650Y018517D02*
X037547Y018517D01*
X037529Y018535D02*
X037835Y018840D01*
X037904Y018771D01*
X037598Y018465D01*
X037529Y018535D01*
X037835Y018840D01*
X037904Y018771D01*
X037598Y018465D01*
X037529Y018535D01*
X037586Y018478D02*
X037611Y018478D01*
X037674Y018401D02*
X037813Y018401D01*
X037851Y018440D02*
X037713Y018440D01*
X037751Y018478D02*
X037890Y018478D01*
X037928Y018517D02*
X037790Y018517D01*
X037828Y018555D02*
X037967Y018555D01*
X038005Y018594D02*
X037867Y018594D01*
X037905Y018632D02*
X038043Y018632D01*
X037738Y018326D01*
X037668Y018395D01*
X037974Y018701D01*
X038043Y018632D01*
X037738Y018326D01*
X037668Y018395D01*
X037974Y018701D01*
X038043Y018632D01*
X038004Y018671D02*
X037944Y018671D01*
X037881Y018748D02*
X037743Y018748D01*
X037781Y018787D02*
X037889Y018787D01*
X037850Y018825D02*
X037820Y018825D01*
X037842Y018709D02*
X037704Y018709D01*
X037665Y018671D02*
X037804Y018671D01*
X037765Y018632D02*
X037627Y018632D01*
X037588Y018594D02*
X037727Y018594D01*
X037701Y018363D02*
X037774Y018363D01*
X037837Y018285D02*
X037975Y018285D01*
X037937Y018247D02*
X037817Y018247D01*
X037808Y018256D02*
X037877Y018187D01*
X038182Y018493D01*
X038113Y018562D01*
X037808Y018256D01*
X038113Y018562D01*
X038182Y018493D01*
X037877Y018187D01*
X037808Y018256D01*
X037855Y018208D02*
X037898Y018208D01*
X037961Y018131D02*
X038099Y018131D01*
X038061Y018093D02*
X037971Y018093D01*
X037947Y018117D02*
X038252Y018423D01*
X038322Y018354D01*
X038016Y018048D01*
X037947Y018117D01*
X038252Y018423D01*
X038322Y018354D01*
X038016Y018048D01*
X037947Y018117D01*
X038000Y018170D02*
X038138Y018170D01*
X038177Y018208D02*
X038038Y018208D01*
X038077Y018247D02*
X038215Y018247D01*
X038254Y018285D02*
X038115Y018285D01*
X038154Y018324D02*
X038292Y018324D01*
X038313Y018363D02*
X038192Y018363D01*
X038231Y018401D02*
X038274Y018401D01*
X038168Y018478D02*
X038030Y018478D01*
X038068Y018517D02*
X038159Y018517D01*
X038120Y018555D02*
X038107Y018555D01*
X038129Y018440D02*
X037991Y018440D01*
X037952Y018401D02*
X038091Y018401D01*
X038052Y018363D02*
X037914Y018363D01*
X037875Y018324D02*
X038014Y018324D01*
X038010Y018054D02*
X038022Y018054D01*
X038086Y017978D02*
X038392Y018284D01*
X038461Y018214D01*
X038155Y017909D01*
X038086Y017978D01*
X038392Y018284D01*
X038461Y018214D01*
X038155Y017909D01*
X038086Y017978D01*
X038087Y017977D02*
X038224Y017977D01*
X038262Y018016D02*
X038124Y018016D01*
X038162Y018054D02*
X038301Y018054D01*
X038339Y018093D02*
X038201Y018093D01*
X038239Y018131D02*
X038378Y018131D01*
X038416Y018170D02*
X038278Y018170D01*
X038316Y018208D02*
X038455Y018208D01*
X038428Y018247D02*
X038355Y018247D01*
X038479Y018093D02*
X038582Y018093D01*
X038600Y018075D02*
X038531Y018144D01*
X038225Y017839D01*
X038294Y017769D01*
X038600Y018075D01*
X038294Y017769D01*
X038225Y017839D01*
X038531Y018144D01*
X038600Y018075D01*
X038579Y018054D02*
X038441Y018054D01*
X038402Y018016D02*
X038541Y018016D01*
X038502Y017977D02*
X038364Y017977D01*
X038325Y017939D02*
X038464Y017939D01*
X038425Y017900D02*
X038287Y017900D01*
X038248Y017861D02*
X038386Y017861D01*
X038348Y017823D02*
X038241Y017823D01*
X038279Y017784D02*
X038309Y017784D01*
X038372Y017707D02*
X038511Y017707D01*
X038549Y017746D02*
X038411Y017746D01*
X038449Y017784D02*
X038588Y017784D01*
X038626Y017823D02*
X038488Y017823D01*
X038526Y017861D02*
X038665Y017861D01*
X038703Y017900D02*
X038565Y017900D01*
X038603Y017939D02*
X038737Y017939D01*
X038739Y017936D02*
X038434Y017630D01*
X038364Y017699D01*
X038670Y018005D01*
X038739Y017936D01*
X038434Y017630D01*
X038364Y017699D01*
X038670Y018005D01*
X038739Y017936D01*
X038698Y017977D02*
X038642Y017977D01*
X038544Y018131D02*
X038518Y018131D01*
X038185Y017939D02*
X038125Y017939D01*
X038395Y017669D02*
X038472Y017669D01*
X038535Y017592D02*
X038673Y017592D01*
X038635Y017553D02*
X038511Y017553D01*
X038504Y017560D02*
X038809Y017866D01*
X038879Y017797D01*
X038573Y017491D01*
X038504Y017560D01*
X038809Y017866D01*
X038879Y017797D01*
X038573Y017491D01*
X038504Y017560D01*
X038549Y017515D02*
X038596Y017515D01*
X038659Y017438D02*
X038797Y017438D01*
X038836Y017476D02*
X038698Y017476D01*
X038736Y017515D02*
X038875Y017515D01*
X038913Y017553D02*
X038775Y017553D01*
X038813Y017592D02*
X038952Y017592D01*
X038990Y017630D02*
X038852Y017630D01*
X038890Y017669D02*
X039006Y017669D01*
X039018Y017658D02*
X038712Y017352D01*
X038643Y017421D01*
X038948Y017727D01*
X039018Y017658D01*
X038712Y017352D01*
X038643Y017421D01*
X038948Y017727D01*
X039018Y017658D01*
X038968Y017707D02*
X038929Y017707D01*
X038866Y017784D02*
X038728Y017784D01*
X038689Y017746D02*
X038828Y017746D01*
X038789Y017707D02*
X038651Y017707D01*
X038612Y017669D02*
X038751Y017669D01*
X038712Y017630D02*
X038574Y017630D01*
X038665Y017399D02*
X038759Y017399D01*
X038720Y017360D02*
X038703Y017360D01*
X038782Y017282D02*
X039088Y017588D01*
X039157Y017518D01*
X038851Y017213D01*
X038782Y017282D01*
X039088Y017588D01*
X039157Y017518D01*
X038851Y017213D01*
X038782Y017282D01*
X038784Y017283D02*
X038922Y017283D01*
X038883Y017245D02*
X038819Y017245D01*
X038822Y017322D02*
X038960Y017322D01*
X038999Y017360D02*
X038861Y017360D01*
X038899Y017399D02*
X039037Y017399D01*
X039076Y017438D02*
X038938Y017438D01*
X038976Y017476D02*
X039115Y017476D01*
X039153Y017515D02*
X039015Y017515D01*
X039053Y017553D02*
X039122Y017553D01*
X039227Y017448D02*
X038921Y017143D01*
X038990Y017074D01*
X039296Y017379D01*
X039227Y017448D01*
X039296Y017379D01*
X038990Y017074D01*
X038921Y017143D01*
X039227Y017448D01*
X039216Y017438D02*
X039238Y017438D01*
X039276Y017399D02*
X039177Y017399D01*
X039139Y017360D02*
X039277Y017360D01*
X039239Y017322D02*
X039100Y017322D01*
X039062Y017283D02*
X039200Y017283D01*
X039162Y017245D02*
X039023Y017245D01*
X038985Y017206D02*
X039123Y017206D01*
X039084Y017168D02*
X038946Y017168D01*
X038935Y017129D02*
X039046Y017129D01*
X039007Y017091D02*
X038973Y017091D01*
X039060Y017003D02*
X039366Y017309D01*
X039435Y017240D01*
X039129Y016934D01*
X039060Y017003D01*
X039366Y017309D01*
X039435Y017240D01*
X039129Y016934D01*
X039060Y017003D01*
X039071Y017014D02*
X039209Y017014D01*
X039247Y017052D02*
X039109Y017052D01*
X039148Y017091D02*
X039286Y017091D01*
X039324Y017129D02*
X039186Y017129D01*
X039225Y017168D02*
X039363Y017168D01*
X039402Y017206D02*
X039263Y017206D01*
X039302Y017245D02*
X039430Y017245D01*
X039392Y017283D02*
X039340Y017283D01*
X039464Y017129D02*
X039546Y017129D01*
X039574Y017101D02*
X039505Y017170D01*
X039199Y016864D01*
X039269Y016795D01*
X039574Y017101D01*
X039269Y016795D01*
X039199Y016864D01*
X039505Y017170D01*
X039574Y017101D01*
X039564Y017091D02*
X039426Y017091D01*
X039387Y017052D02*
X039526Y017052D01*
X039487Y017014D02*
X039349Y017014D01*
X039310Y016975D02*
X039449Y016975D01*
X039410Y016936D02*
X039272Y016936D01*
X039233Y016898D02*
X039371Y016898D01*
X039333Y016859D02*
X039204Y016859D01*
X039243Y016821D02*
X039294Y016821D01*
X039357Y016744D02*
X039496Y016744D01*
X039534Y016782D02*
X039396Y016782D01*
X039434Y016821D02*
X039573Y016821D01*
X039611Y016859D02*
X039473Y016859D01*
X039512Y016898D02*
X039650Y016898D01*
X039689Y016936D02*
X039550Y016936D01*
X039589Y016975D02*
X039700Y016975D01*
X039714Y016962D02*
X039408Y016656D01*
X039339Y016725D01*
X039644Y017031D01*
X039714Y016962D01*
X039408Y016656D01*
X039339Y016725D01*
X039644Y017031D01*
X039714Y016962D01*
X039662Y017014D02*
X039627Y017014D01*
X039508Y017168D02*
X039503Y017168D01*
X039170Y016975D02*
X039089Y016975D01*
X039127Y016936D02*
X039132Y016936D01*
X039359Y016705D02*
X039457Y016705D01*
X039419Y016667D02*
X039397Y016667D01*
X039478Y016586D02*
X039784Y016892D01*
X039853Y016822D01*
X039547Y016517D01*
X039478Y016586D01*
X039784Y016892D01*
X039853Y016822D01*
X039547Y016517D01*
X039478Y016586D01*
X039482Y016590D02*
X039620Y016590D01*
X039658Y016628D02*
X039520Y016628D01*
X039559Y016667D02*
X039697Y016667D01*
X039736Y016705D02*
X039597Y016705D01*
X039636Y016744D02*
X039774Y016744D01*
X039813Y016782D02*
X039674Y016782D01*
X039713Y016821D02*
X039851Y016821D01*
X039816Y016859D02*
X039751Y016859D01*
X039876Y016705D02*
X039970Y016705D01*
X039992Y016683D02*
X039686Y016377D01*
X039617Y016447D01*
X039923Y016752D01*
X039992Y016683D01*
X039686Y016377D01*
X039617Y016447D01*
X039923Y016752D01*
X039992Y016683D01*
X039975Y016667D02*
X039837Y016667D01*
X039799Y016628D02*
X039937Y016628D01*
X039898Y016590D02*
X039760Y016590D01*
X039721Y016551D02*
X039860Y016551D01*
X039821Y016512D02*
X039683Y016512D01*
X039644Y016474D02*
X039783Y016474D01*
X039744Y016435D02*
X039628Y016435D01*
X039667Y016397D02*
X039706Y016397D01*
X039769Y016320D02*
X039907Y016320D01*
X039945Y016358D02*
X039807Y016358D01*
X039846Y016397D02*
X039984Y016397D01*
X040022Y016435D02*
X039884Y016435D01*
X039923Y016474D02*
X040061Y016474D01*
X040100Y016512D02*
X039961Y016512D01*
X040000Y016551D02*
X040124Y016551D01*
X040131Y016544D02*
X039825Y016238D01*
X039756Y016307D01*
X040062Y016613D01*
X040131Y016544D01*
X039825Y016238D01*
X039756Y016307D01*
X040062Y016613D01*
X040131Y016544D01*
X040086Y016590D02*
X040038Y016590D01*
X039931Y016744D02*
X039914Y016744D01*
X039581Y016551D02*
X039513Y016551D01*
X039783Y016281D02*
X039868Y016281D01*
X039830Y016243D02*
X039821Y016243D01*
X039896Y016168D02*
X040201Y016474D01*
X040270Y016405D01*
X039965Y016099D01*
X039896Y016168D01*
X040201Y016474D01*
X040270Y016405D01*
X039965Y016099D01*
X039896Y016168D01*
X039898Y016166D02*
X040031Y016166D01*
X040070Y016204D02*
X039931Y016204D01*
X039970Y016243D02*
X040108Y016243D01*
X040147Y016281D02*
X040009Y016281D01*
X040047Y016320D02*
X040185Y016320D01*
X040224Y016358D02*
X040086Y016358D01*
X040124Y016397D02*
X040262Y016397D01*
X040240Y016435D02*
X040163Y016435D01*
X040287Y016281D02*
X040394Y016281D01*
X040409Y016266D02*
X040104Y015960D01*
X040035Y016029D01*
X040340Y016335D01*
X040409Y016266D01*
X040104Y015960D01*
X040035Y016029D01*
X040340Y016335D01*
X040409Y016266D01*
X040387Y016243D02*
X040248Y016243D01*
X040210Y016204D02*
X040348Y016204D01*
X040309Y016166D02*
X040171Y016166D01*
X040133Y016127D02*
X040271Y016127D01*
X040232Y016089D02*
X040094Y016089D01*
X040055Y016050D02*
X040194Y016050D01*
X040155Y016011D02*
X040052Y016011D01*
X040091Y015973D02*
X040117Y015973D01*
X040180Y015896D02*
X040318Y015896D01*
X040357Y015934D02*
X040218Y015934D01*
X040257Y015973D02*
X040395Y015973D01*
X040434Y016011D02*
X040295Y016011D01*
X040334Y016050D02*
X040472Y016050D01*
X040511Y016089D02*
X040372Y016089D01*
X040411Y016127D02*
X040548Y016127D01*
X040549Y016126D02*
X040243Y015821D01*
X040174Y015890D01*
X040480Y016196D01*
X040549Y016126D01*
X040243Y015821D01*
X040174Y015890D01*
X040480Y016196D01*
X040549Y016126D01*
X040510Y016166D02*
X040450Y016166D01*
X040355Y016320D02*
X040325Y016320D01*
X039993Y016127D02*
X039937Y016127D01*
X040207Y015857D02*
X040280Y015857D01*
X040342Y015780D02*
X040481Y015780D01*
X040519Y015819D02*
X040381Y015819D01*
X040420Y015857D02*
X040558Y015857D01*
X040596Y015896D02*
X040458Y015896D01*
X040497Y015934D02*
X040635Y015934D01*
X040674Y015973D02*
X040535Y015973D01*
X040574Y016011D02*
X040664Y016011D01*
X040688Y015987D02*
X040382Y015682D01*
X040313Y015751D01*
X040619Y016056D01*
X040688Y015987D01*
X040382Y015682D01*
X040313Y015751D01*
X040619Y016056D01*
X040688Y015987D01*
X040625Y016050D02*
X040612Y016050D01*
X040758Y015917D02*
X040827Y015848D01*
X040521Y015542D01*
X040452Y015611D01*
X040758Y015917D01*
X040827Y015848D01*
X040521Y015542D01*
X040452Y015611D01*
X040758Y015917D01*
X040737Y015896D02*
X040779Y015896D01*
X040818Y015857D02*
X040698Y015857D01*
X040659Y015819D02*
X040798Y015819D01*
X040759Y015780D02*
X040621Y015780D01*
X040582Y015742D02*
X040721Y015742D01*
X040682Y015703D02*
X040544Y015703D01*
X040505Y015665D02*
X040644Y015665D01*
X040605Y015626D02*
X040467Y015626D01*
X040476Y015587D02*
X040567Y015587D01*
X040528Y015549D02*
X040515Y015549D01*
X040591Y015472D02*
X040897Y015778D01*
X040966Y015709D01*
X040661Y015403D01*
X040591Y015472D01*
X040897Y015778D01*
X040966Y015709D01*
X040661Y015403D01*
X040591Y015472D01*
X040592Y015472D02*
X040729Y015472D01*
X040768Y015510D02*
X040630Y015510D01*
X040668Y015549D02*
X040806Y015549D01*
X040845Y015587D02*
X040707Y015587D01*
X040745Y015626D02*
X040883Y015626D01*
X040922Y015665D02*
X040784Y015665D01*
X040822Y015703D02*
X040960Y015703D01*
X040934Y015742D02*
X040861Y015742D01*
X040985Y015587D02*
X041088Y015587D01*
X041106Y015570D02*
X041036Y015639D01*
X040731Y015333D01*
X040800Y015264D01*
X041106Y015570D01*
X040800Y015264D01*
X040731Y015333D01*
X041036Y015639D01*
X041106Y015570D01*
X041085Y015549D02*
X040946Y015549D01*
X040908Y015510D02*
X041046Y015510D01*
X041008Y015472D02*
X040869Y015472D01*
X040831Y015433D02*
X040969Y015433D01*
X040931Y015395D02*
X040792Y015395D01*
X040754Y015356D02*
X040892Y015356D01*
X040854Y015318D02*
X040746Y015318D01*
X040785Y015279D02*
X040815Y015279D01*
X040878Y015202D02*
X041016Y015202D01*
X040978Y015163D02*
X040900Y015163D01*
X040870Y015194D02*
X040939Y015125D01*
X040939Y015125D01*
X041245Y015431D01*
X041176Y015500D01*
X040870Y015194D01*
X041176Y015500D01*
X041245Y015431D01*
X040939Y015125D01*
X040870Y015194D01*
X040916Y015241D02*
X041055Y015241D01*
X041093Y015279D02*
X040955Y015279D01*
X040994Y015318D02*
X041132Y015318D01*
X041170Y015356D02*
X041032Y015356D01*
X041071Y015395D02*
X041209Y015395D01*
X041242Y015433D02*
X041109Y015433D01*
X041148Y015472D02*
X041203Y015472D01*
X041315Y015360D02*
X041384Y015291D01*
X041078Y014986D01*
X041009Y015055D01*
X041315Y015360D01*
X041384Y015291D01*
X041078Y014986D01*
X041009Y015055D01*
X041315Y015360D01*
X041311Y015356D02*
X041319Y015356D01*
X041358Y015318D02*
X041272Y015318D01*
X041233Y015279D02*
X041372Y015279D01*
X041333Y015241D02*
X041195Y015241D01*
X041156Y015202D02*
X041295Y015202D01*
X041256Y015163D02*
X041118Y015163D01*
X041079Y015125D02*
X041218Y015125D01*
X041179Y015086D02*
X041041Y015086D01*
X041016Y015048D02*
X041140Y015048D01*
X041102Y015009D02*
X041054Y015009D01*
X041148Y014916D02*
X041454Y015221D01*
X041523Y015152D01*
X041217Y014846D01*
X041148Y014916D01*
X041454Y015221D01*
X041523Y015152D01*
X041217Y014846D01*
X041148Y014916D01*
X041165Y014932D02*
X041303Y014932D01*
X041265Y014894D02*
X041170Y014894D01*
X041209Y014855D02*
X041226Y014855D01*
X041289Y014778D02*
X041428Y014778D01*
X041466Y014817D02*
X041328Y014817D01*
X041366Y014855D02*
X041505Y014855D01*
X041543Y014894D02*
X041405Y014894D01*
X041443Y014932D02*
X041582Y014932D01*
X041620Y014971D02*
X041482Y014971D01*
X041520Y015009D02*
X041659Y015009D01*
X041662Y015013D02*
X041357Y014707D01*
X041287Y014776D01*
X041593Y015082D01*
X041662Y015013D01*
X041357Y014707D01*
X041287Y014776D01*
X041593Y015082D01*
X041662Y015013D01*
X041627Y015048D02*
X041559Y015048D01*
X041496Y015125D02*
X041358Y015125D01*
X041396Y015163D02*
X041512Y015163D01*
X041473Y015202D02*
X041435Y015202D01*
X041457Y015086D02*
X041319Y015086D01*
X041280Y015048D02*
X041419Y015048D01*
X041380Y015009D02*
X041242Y015009D01*
X041203Y014971D02*
X041342Y014971D01*
X041324Y014739D02*
X041389Y014739D01*
X041357Y013969D02*
X041662Y013663D01*
X041593Y013594D01*
X041287Y013899D01*
X041357Y013969D01*
X041662Y013663D01*
X041593Y013594D01*
X041287Y013899D01*
X041357Y013969D01*
X041395Y013930D02*
X041318Y013930D01*
X041295Y013892D02*
X041434Y013892D01*
X041472Y013853D02*
X041334Y013853D01*
X041372Y013814D02*
X041511Y013814D01*
X041549Y013776D02*
X041411Y013776D01*
X041449Y013737D02*
X041588Y013737D01*
X041626Y013699D02*
X041488Y013699D01*
X041527Y013660D02*
X041660Y013660D01*
X041621Y013622D02*
X041565Y013622D01*
X041502Y013545D02*
X041364Y013545D01*
X041325Y013583D02*
X041463Y013583D01*
X041425Y013622D02*
X041287Y013622D01*
X041248Y013660D02*
X041386Y013660D01*
X041348Y013699D02*
X041210Y013699D01*
X041171Y013737D02*
X041309Y013737D01*
X041271Y013776D02*
X041164Y013776D01*
X041148Y013760D02*
X041217Y013829D01*
X041523Y013524D01*
X041454Y013454D01*
X041148Y013760D01*
X041217Y013829D01*
X041523Y013524D01*
X041454Y013454D01*
X041148Y013760D01*
X041203Y013814D02*
X041232Y013814D01*
X041078Y013690D02*
X041384Y013384D01*
X041315Y013315D01*
X041009Y013621D01*
X041078Y013690D01*
X041384Y013384D01*
X041315Y013315D01*
X041009Y013621D01*
X041078Y013690D01*
X041048Y013660D02*
X041108Y013660D01*
X041147Y013622D02*
X041010Y013622D01*
X041047Y013583D02*
X041185Y013583D01*
X041224Y013545D02*
X041085Y013545D01*
X041124Y013506D02*
X041262Y013506D01*
X041301Y013468D02*
X041162Y013468D01*
X041201Y013429D02*
X041339Y013429D01*
X041378Y013390D02*
X041240Y013390D01*
X041278Y013352D02*
X041351Y013352D01*
X041441Y013468D02*
X041467Y013468D01*
X041506Y013506D02*
X041402Y013506D01*
X041176Y013313D02*
X041038Y013313D01*
X041077Y013275D02*
X041215Y013275D01*
X041245Y013245D02*
X041176Y013176D01*
X040870Y013482D01*
X040939Y013551D01*
X041245Y013245D01*
X041176Y013176D01*
X040870Y013482D01*
X040939Y013551D01*
X041245Y013245D01*
X041236Y013236D02*
X041115Y013236D01*
X041154Y013198D02*
X041197Y013198D01*
X041106Y013106D02*
X041036Y013037D01*
X040731Y013343D01*
X040800Y013412D01*
X041106Y013106D01*
X041036Y013037D01*
X040731Y013343D01*
X040800Y013412D01*
X041106Y013106D01*
X041091Y013121D02*
X040953Y013121D01*
X040991Y013082D02*
X041082Y013082D01*
X041043Y013044D02*
X041030Y013044D01*
X040966Y012967D02*
X040897Y012898D01*
X040591Y013203D01*
X040661Y013272D01*
X040966Y012967D01*
X040897Y012898D01*
X040591Y013203D01*
X040661Y013272D01*
X040966Y012967D01*
X040966Y012966D02*
X040828Y012966D01*
X040867Y012928D02*
X040928Y012928D01*
X040928Y013005D02*
X040790Y013005D01*
X040751Y013044D02*
X040889Y013044D01*
X040851Y013082D02*
X040713Y013082D01*
X040674Y013121D02*
X040812Y013121D01*
X040774Y013159D02*
X040636Y013159D01*
X040597Y013198D02*
X040735Y013198D01*
X040697Y013236D02*
X040624Y013236D01*
X040521Y013133D02*
X040827Y012828D01*
X040758Y012758D01*
X040452Y013064D01*
X040521Y013133D01*
X040827Y012828D01*
X040758Y012758D01*
X040452Y013064D01*
X040521Y013133D01*
X040509Y013121D02*
X040534Y013121D01*
X040573Y013082D02*
X040470Y013082D01*
X040473Y013044D02*
X040611Y013044D01*
X040650Y013005D02*
X040511Y013005D01*
X040550Y012966D02*
X040688Y012966D01*
X040727Y012928D02*
X040589Y012928D01*
X040627Y012889D02*
X040765Y012889D01*
X040804Y012851D02*
X040666Y012851D01*
X040704Y012812D02*
X040812Y012812D01*
X040773Y012774D02*
X040743Y012774D01*
X040680Y012697D02*
X040541Y012697D01*
X040503Y012735D02*
X040641Y012735D01*
X040603Y012774D02*
X040464Y012774D01*
X040426Y012812D02*
X040564Y012812D01*
X040525Y012851D02*
X040387Y012851D01*
X040349Y012889D02*
X040487Y012889D01*
X040448Y012928D02*
X040316Y012928D01*
X040313Y012925D02*
X040382Y012994D01*
X040688Y012688D01*
X040619Y012619D01*
X040313Y012925D01*
X040382Y012994D01*
X040688Y012688D01*
X040619Y012619D01*
X040313Y012925D01*
X040355Y012966D02*
X040410Y012966D01*
X040286Y012812D02*
X040200Y012812D01*
X040174Y012786D02*
X040243Y012855D01*
X040549Y012549D01*
X040480Y012480D01*
X040174Y012786D01*
X040243Y012855D01*
X040549Y012549D01*
X040480Y012480D01*
X040174Y012786D01*
X040186Y012774D02*
X040324Y012774D01*
X040363Y012735D02*
X040224Y012735D01*
X040263Y012697D02*
X040401Y012697D01*
X040440Y012658D02*
X040302Y012658D01*
X040340Y012620D02*
X040478Y012620D01*
X040517Y012581D02*
X040379Y012581D01*
X040417Y012543D02*
X040542Y012543D01*
X040504Y012504D02*
X040456Y012504D01*
X040393Y012427D02*
X040254Y012427D01*
X040216Y012465D02*
X040354Y012465D01*
X040316Y012504D02*
X040177Y012504D01*
X040139Y012543D02*
X040277Y012543D01*
X040238Y012581D02*
X040100Y012581D01*
X040062Y012620D02*
X040200Y012620D01*
X040161Y012658D02*
X040046Y012658D01*
X040035Y012647D02*
X040104Y012716D01*
X040409Y012410D01*
X040340Y012341D01*
X040035Y012647D01*
X040104Y012716D01*
X040409Y012410D01*
X040340Y012341D01*
X040035Y012647D01*
X040085Y012697D02*
X040123Y012697D01*
X040239Y012851D02*
X040247Y012851D01*
X040580Y012658D02*
X040658Y012658D01*
X040619Y012620D02*
X040618Y012620D01*
X040388Y012388D02*
X040293Y012388D01*
X040331Y012350D02*
X040349Y012350D01*
X040270Y012271D02*
X039965Y012577D01*
X039896Y012507D01*
X040201Y012202D01*
X040270Y012271D01*
X040201Y012202D01*
X039896Y012507D01*
X039965Y012577D01*
X040270Y012271D01*
X040269Y012273D02*
X040130Y012273D01*
X040092Y012311D02*
X040230Y012311D01*
X040191Y012350D02*
X040053Y012350D01*
X040015Y012388D02*
X040153Y012388D01*
X040114Y012427D02*
X039976Y012427D01*
X039938Y012465D02*
X040076Y012465D01*
X040037Y012504D02*
X039899Y012504D01*
X039931Y012543D02*
X039999Y012543D01*
X039874Y012388D02*
X039776Y012388D01*
X039756Y012368D02*
X039825Y012437D01*
X040131Y012132D01*
X040062Y012062D01*
X039756Y012368D01*
X039825Y012437D01*
X040131Y012132D01*
X040062Y012062D01*
X039756Y012368D01*
X039775Y012350D02*
X039913Y012350D01*
X039951Y012311D02*
X039813Y012311D01*
X039852Y012273D02*
X039990Y012273D01*
X040029Y012234D02*
X039890Y012234D01*
X039929Y012196D02*
X040067Y012196D01*
X040106Y012157D02*
X039967Y012157D01*
X040006Y012119D02*
X040118Y012119D01*
X040080Y012080D02*
X040044Y012080D01*
X039982Y012003D02*
X039843Y012003D01*
X039805Y012041D02*
X039943Y012041D01*
X039904Y012080D02*
X039766Y012080D01*
X039728Y012119D02*
X039866Y012119D01*
X039827Y012157D02*
X039689Y012157D01*
X039651Y012196D02*
X039789Y012196D01*
X039750Y012234D02*
X039622Y012234D01*
X039617Y012229D02*
X039686Y012298D01*
X039992Y011992D01*
X039923Y011923D01*
X039617Y012229D01*
X039686Y012298D01*
X039992Y011992D01*
X039923Y011923D01*
X039617Y012229D01*
X039661Y012273D02*
X039712Y012273D01*
X039815Y012427D02*
X039836Y012427D01*
X040169Y012234D02*
X040234Y012234D01*
X039964Y011964D02*
X039882Y011964D01*
X039920Y011926D02*
X039925Y011926D01*
X039853Y011853D02*
X039784Y011784D01*
X039478Y012090D01*
X039547Y012159D01*
X039853Y011853D01*
X039784Y011784D01*
X039478Y012090D01*
X039547Y012159D01*
X039853Y011853D01*
X039848Y011849D02*
X039719Y011849D01*
X039680Y011887D02*
X039819Y011887D01*
X039780Y011926D02*
X039642Y011926D01*
X039603Y011964D02*
X039742Y011964D01*
X039703Y012003D02*
X039565Y012003D01*
X039526Y012041D02*
X039664Y012041D01*
X039626Y012080D02*
X039488Y012080D01*
X039507Y012119D02*
X039587Y012119D01*
X039549Y012157D02*
X039545Y012157D01*
X039408Y012020D02*
X039714Y011714D01*
X039644Y011645D01*
X039339Y011951D01*
X039408Y012020D01*
X039714Y011714D01*
X039644Y011645D01*
X039339Y011951D01*
X039408Y012020D01*
X039391Y012003D02*
X039425Y012003D01*
X039463Y011964D02*
X039352Y011964D01*
X039364Y011926D02*
X039502Y011926D01*
X039540Y011887D02*
X039402Y011887D01*
X039441Y011849D02*
X039579Y011849D01*
X039618Y011810D02*
X039479Y011810D01*
X039518Y011772D02*
X039656Y011772D01*
X039695Y011733D02*
X039556Y011733D01*
X039595Y011695D02*
X039694Y011695D01*
X039656Y011656D02*
X039633Y011656D01*
X039570Y011579D02*
X039432Y011579D01*
X039393Y011617D02*
X039532Y011617D01*
X039493Y011656D02*
X039355Y011656D01*
X039316Y011695D02*
X039455Y011695D01*
X039416Y011733D02*
X039278Y011733D01*
X039239Y011772D02*
X039378Y011772D01*
X039339Y011810D02*
X039201Y011810D01*
X039199Y011811D02*
X039269Y011881D01*
X039574Y011575D01*
X039505Y011506D01*
X039199Y011811D01*
X039269Y011881D01*
X039574Y011575D01*
X039505Y011506D01*
X039199Y011811D01*
X039237Y011849D02*
X039301Y011849D01*
X039176Y011695D02*
X039083Y011695D01*
X039060Y011672D02*
X039129Y011741D01*
X039435Y011436D01*
X039366Y011367D01*
X039060Y011672D01*
X039129Y011741D01*
X039435Y011436D01*
X039366Y011367D01*
X039060Y011672D01*
X039077Y011656D02*
X039215Y011656D01*
X039253Y011617D02*
X039115Y011617D01*
X039154Y011579D02*
X039292Y011579D01*
X039331Y011540D02*
X039192Y011540D01*
X039231Y011502D02*
X039369Y011502D01*
X039408Y011463D02*
X039269Y011463D01*
X039308Y011425D02*
X039424Y011425D01*
X039386Y011386D02*
X039346Y011386D01*
X039283Y011309D02*
X039145Y011309D01*
X039184Y011271D02*
X039270Y011271D01*
X039296Y011296D02*
X039227Y011227D01*
X038921Y011533D01*
X038990Y011602D01*
X039296Y011296D01*
X039227Y011227D01*
X038921Y011533D01*
X038990Y011602D01*
X039296Y011296D01*
X039245Y011348D02*
X039106Y011348D01*
X039068Y011386D02*
X039206Y011386D01*
X039168Y011425D02*
X039029Y011425D01*
X038991Y011463D02*
X039129Y011463D01*
X039091Y011502D02*
X038952Y011502D01*
X038928Y011540D02*
X039052Y011540D01*
X039013Y011579D02*
X038967Y011579D01*
X038851Y011463D02*
X039157Y011157D01*
X039088Y011088D01*
X038782Y011394D01*
X038851Y011463D01*
X039157Y011157D01*
X039088Y011088D01*
X038782Y011394D01*
X038851Y011463D01*
X038813Y011425D02*
X038889Y011425D01*
X038928Y011386D02*
X038790Y011386D01*
X038828Y011348D02*
X038966Y011348D01*
X039005Y011309D02*
X038867Y011309D01*
X038905Y011271D02*
X039044Y011271D01*
X039082Y011232D02*
X038944Y011232D01*
X038982Y011194D02*
X039121Y011194D01*
X039155Y011155D02*
X039021Y011155D01*
X039059Y011116D02*
X039116Y011116D01*
X039018Y011018D02*
X038712Y011324D01*
X038643Y011255D01*
X038948Y010949D01*
X039018Y011018D01*
X038948Y010949D01*
X038643Y011255D01*
X038712Y011324D01*
X039018Y011018D01*
X039000Y011001D02*
X038897Y011001D01*
X038935Y010962D02*
X038962Y010962D01*
X038996Y011039D02*
X038858Y011039D01*
X038819Y011078D02*
X038958Y011078D01*
X038919Y011116D02*
X038781Y011116D01*
X038742Y011155D02*
X038881Y011155D01*
X038842Y011194D02*
X038704Y011194D01*
X038665Y011232D02*
X038804Y011232D01*
X038765Y011271D02*
X038659Y011271D01*
X038697Y011309D02*
X038726Y011309D01*
X038573Y011185D02*
X038879Y010879D01*
X038809Y010810D01*
X038504Y011115D01*
X038573Y011185D01*
X038879Y010879D01*
X038809Y010810D01*
X038504Y011115D01*
X038573Y011185D01*
X038602Y011155D02*
X038543Y011155D01*
X038505Y011116D02*
X038641Y011116D01*
X038679Y011078D02*
X038541Y011078D01*
X038580Y011039D02*
X038718Y011039D01*
X038757Y011001D02*
X038618Y011001D01*
X038657Y010962D02*
X038795Y010962D01*
X038834Y010924D02*
X038695Y010924D01*
X038734Y010885D02*
X038872Y010885D01*
X038846Y010847D02*
X038772Y010847D01*
X038709Y010770D02*
X038571Y010770D01*
X038532Y010808D02*
X038671Y010808D01*
X038632Y010847D02*
X038494Y010847D01*
X038455Y010885D02*
X038594Y010885D01*
X038555Y010924D02*
X038417Y010924D01*
X038378Y010962D02*
X038517Y010962D01*
X038478Y011001D02*
X038389Y011001D01*
X038364Y010976D02*
X038434Y011045D01*
X038739Y010740D01*
X038670Y010671D01*
X038364Y010976D01*
X038434Y011045D01*
X038739Y010740D01*
X038670Y010671D01*
X038364Y010976D01*
X038427Y011039D02*
X038440Y011039D01*
X038294Y010906D02*
X038600Y010601D01*
X038531Y010531D01*
X038225Y010837D01*
X038294Y010906D01*
X038600Y010601D01*
X038531Y010531D01*
X038225Y010837D01*
X038294Y010906D01*
X038273Y010885D02*
X038315Y010885D01*
X038354Y010847D02*
X038235Y010847D01*
X038254Y010808D02*
X038392Y010808D01*
X038431Y010770D02*
X038293Y010770D01*
X038331Y010731D02*
X038470Y010731D01*
X038508Y010692D02*
X038370Y010692D01*
X038408Y010654D02*
X038547Y010654D01*
X038585Y010615D02*
X038447Y010615D01*
X038485Y010577D02*
X038576Y010577D01*
X038538Y010538D02*
X038524Y010538D01*
X038461Y010461D02*
X038392Y010392D01*
X038086Y010698D01*
X038155Y010767D01*
X038461Y010461D01*
X038323Y010461D01*
X038361Y010423D02*
X038422Y010423D01*
X038392Y010392D02*
X038461Y010461D01*
X038155Y010767D01*
X038086Y010698D01*
X038392Y010392D01*
X038322Y010322D02*
X038252Y010253D01*
X037947Y010559D01*
X038016Y010628D01*
X038322Y010322D01*
X038252Y010253D01*
X037947Y010559D01*
X038016Y010628D01*
X038322Y010322D01*
X038307Y010307D02*
X038199Y010307D01*
X038237Y010268D02*
X038268Y010268D01*
X038298Y010346D02*
X038160Y010346D01*
X038121Y010384D02*
X038260Y010384D01*
X038221Y010423D02*
X038083Y010423D01*
X038044Y010461D02*
X038183Y010461D01*
X038144Y010500D02*
X038006Y010500D01*
X037967Y010538D02*
X038105Y010538D01*
X038067Y010577D02*
X037965Y010577D01*
X038003Y010615D02*
X038028Y010615D01*
X038091Y010692D02*
X038230Y010692D01*
X038268Y010654D02*
X038130Y010654D01*
X038168Y010615D02*
X038307Y010615D01*
X038345Y010577D02*
X038207Y010577D01*
X038246Y010538D02*
X038384Y010538D01*
X038422Y010500D02*
X038284Y010500D01*
X038191Y010731D02*
X038119Y010731D01*
X037877Y010489D02*
X038182Y010183D01*
X038113Y010114D01*
X038114Y010114D01*
X038113Y010114D02*
X037808Y010419D01*
X037877Y010489D01*
X038182Y010183D01*
X038113Y010114D01*
X037808Y010419D01*
X037877Y010489D01*
X037904Y010461D02*
X037849Y010461D01*
X037811Y010423D02*
X037943Y010423D01*
X037981Y010384D02*
X037843Y010384D01*
X037881Y010346D02*
X038020Y010346D01*
X038058Y010307D02*
X037920Y010307D01*
X037959Y010268D02*
X038097Y010268D01*
X038135Y010230D02*
X037997Y010230D01*
X038036Y010191D02*
X038174Y010191D01*
X038152Y010153D02*
X038074Y010153D01*
X038011Y010076D02*
X037873Y010076D01*
X037834Y010114D02*
X037973Y010114D01*
X037934Y010153D02*
X037796Y010153D01*
X037757Y010191D02*
X037896Y010191D01*
X037857Y010230D02*
X037719Y010230D01*
X037680Y010268D02*
X037819Y010268D01*
X037780Y010307D02*
X037695Y010307D01*
X037668Y010280D02*
X037738Y010350D01*
X038043Y010044D01*
X037974Y009975D01*
X037668Y010280D01*
X037738Y010350D01*
X038043Y010044D01*
X037974Y009975D01*
X037668Y010280D01*
X037734Y010346D02*
X037742Y010346D01*
X037598Y010210D02*
X037904Y009905D01*
X037835Y009835D01*
X037529Y010141D01*
X037598Y010210D01*
X037904Y009905D01*
X037835Y009835D01*
X037529Y010141D01*
X037598Y010210D01*
X037579Y010191D02*
X037617Y010191D01*
X037656Y010153D02*
X037541Y010153D01*
X037556Y010114D02*
X037694Y010114D01*
X037733Y010076D02*
X037594Y010076D01*
X037633Y010037D02*
X037771Y010037D01*
X037810Y009999D02*
X037672Y009999D01*
X037710Y009960D02*
X037848Y009960D01*
X037887Y009922D02*
X037749Y009922D01*
X037787Y009883D02*
X037883Y009883D01*
X037844Y009844D02*
X037826Y009844D01*
X037763Y009767D02*
X037625Y009767D01*
X037663Y009729D02*
X037728Y009729D01*
X037696Y009696D02*
X037765Y009765D01*
X037459Y010071D01*
X037390Y010002D01*
X037696Y009696D01*
X037765Y009765D01*
X037459Y010071D01*
X037390Y010002D01*
X037696Y009696D01*
X037626Y009626D02*
X037556Y009557D01*
X037251Y009863D01*
X037320Y009932D01*
X037626Y009626D01*
X037556Y009557D01*
X037251Y009863D01*
X037320Y009932D01*
X037626Y009626D01*
X037613Y009613D02*
X037500Y009613D01*
X037539Y009575D02*
X037574Y009575D01*
X037600Y009652D02*
X037462Y009652D01*
X037423Y009690D02*
X037561Y009690D01*
X037523Y009729D02*
X037385Y009729D01*
X037346Y009767D02*
X037484Y009767D01*
X037446Y009806D02*
X037307Y009806D01*
X037269Y009844D02*
X037407Y009844D01*
X037369Y009883D02*
X037271Y009883D01*
X037310Y009922D02*
X037330Y009922D01*
X037393Y009999D02*
X037532Y009999D01*
X037570Y009960D02*
X037432Y009960D01*
X037470Y009922D02*
X037609Y009922D01*
X037647Y009883D02*
X037509Y009883D01*
X037547Y009844D02*
X037686Y009844D01*
X037724Y009806D02*
X037586Y009806D01*
X037493Y010037D02*
X037425Y010037D01*
X037181Y009793D02*
X037486Y009487D01*
X037417Y009418D01*
X037112Y009724D01*
X037181Y009793D01*
X037486Y009487D01*
X037417Y009418D01*
X037112Y009724D01*
X037181Y009793D01*
X037156Y009767D02*
X037206Y009767D01*
X037245Y009729D02*
X037117Y009729D01*
X037145Y009690D02*
X037283Y009690D01*
X037322Y009652D02*
X037183Y009652D01*
X037222Y009613D02*
X037360Y009613D01*
X037399Y009575D02*
X037261Y009575D01*
X037299Y009536D02*
X037437Y009536D01*
X037476Y009498D02*
X037338Y009498D01*
X037376Y009459D02*
X037459Y009459D01*
X037420Y009421D02*
X037415Y009421D01*
X037347Y009348D02*
X037278Y009279D01*
X036972Y009584D01*
X037041Y009653D01*
X037347Y009348D01*
X037278Y009279D01*
X036972Y009584D01*
X037041Y009653D01*
X037347Y009348D01*
X037343Y009343D02*
X037213Y009343D01*
X037252Y009305D02*
X037304Y009305D01*
X037313Y009382D02*
X037175Y009382D01*
X037136Y009421D02*
X037274Y009421D01*
X037236Y009459D02*
X037098Y009459D01*
X037059Y009498D02*
X037197Y009498D01*
X037159Y009536D02*
X037021Y009536D01*
X036982Y009575D02*
X037120Y009575D01*
X037082Y009613D02*
X037001Y009613D01*
X037040Y009652D02*
X037043Y009652D01*
X036902Y009514D02*
X037208Y009209D01*
X037139Y009139D01*
X036833Y009445D01*
X036902Y009514D01*
X037208Y009209D01*
X037139Y009139D01*
X036833Y009445D01*
X036902Y009514D01*
X036886Y009498D02*
X036919Y009498D01*
X036958Y009459D02*
X036847Y009459D01*
X036858Y009421D02*
X036996Y009421D01*
X037035Y009382D02*
X036896Y009382D01*
X036935Y009343D02*
X037073Y009343D01*
X037112Y009305D02*
X036974Y009305D01*
X037012Y009266D02*
X037150Y009266D01*
X037189Y009228D02*
X037051Y009228D01*
X037089Y009189D02*
X037189Y009189D01*
X037150Y009151D02*
X037128Y009151D01*
X037065Y009074D02*
X036926Y009074D01*
X036888Y009112D02*
X037026Y009112D01*
X036988Y009151D02*
X036849Y009151D01*
X036811Y009189D02*
X036949Y009189D01*
X036910Y009228D02*
X036772Y009228D01*
X036734Y009266D02*
X036872Y009266D01*
X036833Y009305D02*
X036695Y009305D01*
X036694Y009306D02*
X036763Y009375D01*
X037069Y009069D01*
X037000Y009000D01*
X036694Y009306D01*
X036763Y009375D01*
X037069Y009069D01*
X037000Y009000D01*
X036694Y009306D01*
X036732Y009343D02*
X036795Y009343D01*
X036671Y009189D02*
X036577Y009189D01*
X036555Y009167D02*
X036624Y009236D01*
X036930Y008930D01*
X036861Y008861D01*
X036555Y009167D01*
X036624Y009236D01*
X036930Y008930D01*
X036861Y008861D01*
X036555Y009167D01*
X036571Y009151D02*
X036709Y009151D01*
X036748Y009112D02*
X036609Y009112D01*
X036648Y009074D02*
X036786Y009074D01*
X036825Y009035D02*
X036686Y009035D01*
X036725Y008997D02*
X036863Y008997D01*
X036902Y008958D02*
X036764Y008958D01*
X036802Y008919D02*
X036919Y008919D01*
X036880Y008881D02*
X036841Y008881D01*
X036778Y008804D02*
X036639Y008804D01*
X036601Y008842D02*
X036739Y008842D01*
X036701Y008881D02*
X036562Y008881D01*
X036524Y008919D02*
X036662Y008919D01*
X036624Y008958D02*
X036485Y008958D01*
X036447Y008997D02*
X036585Y008997D01*
X036546Y009035D02*
X036423Y009035D01*
X036416Y009028D02*
X036485Y009097D01*
X036791Y008791D01*
X036721Y008722D01*
X036416Y009028D01*
X036485Y009097D01*
X036791Y008791D01*
X036721Y008722D01*
X036416Y009028D01*
X036462Y009074D02*
X036508Y009074D01*
X036616Y009228D02*
X036632Y009228D01*
X036965Y009035D02*
X037035Y009035D01*
X036765Y008765D02*
X036678Y008765D01*
X036717Y008727D02*
X036726Y008727D01*
X035677Y009028D02*
X035371Y008722D01*
X035302Y008791D01*
X035608Y009097D01*
X035677Y009028D01*
X035371Y008722D01*
X035302Y008791D01*
X035608Y009097D01*
X035677Y009028D01*
X035669Y009035D02*
X035546Y009035D01*
X035508Y008997D02*
X035646Y008997D01*
X035607Y008958D02*
X035469Y008958D01*
X035431Y008919D02*
X035569Y008919D01*
X035530Y008881D02*
X035392Y008881D01*
X035353Y008842D02*
X035492Y008842D01*
X035453Y008804D02*
X035315Y008804D01*
X035328Y008765D02*
X035415Y008765D01*
X035376Y008727D02*
X035366Y008727D01*
X035232Y008861D02*
X035538Y009167D01*
X035469Y009236D01*
X035163Y008930D01*
X035232Y008861D01*
X035538Y009167D01*
X035469Y009236D01*
X035163Y008930D01*
X035232Y008861D01*
X035212Y008881D02*
X035252Y008881D01*
X035290Y008919D02*
X035174Y008919D01*
X035191Y008958D02*
X035329Y008958D01*
X035368Y008997D02*
X035229Y008997D01*
X035268Y009035D02*
X035406Y009035D01*
X035445Y009074D02*
X035306Y009074D01*
X035345Y009112D02*
X035483Y009112D01*
X035522Y009151D02*
X035383Y009151D01*
X035422Y009189D02*
X035515Y009189D01*
X035477Y009228D02*
X035460Y009228D01*
X035398Y009305D02*
X035259Y009305D01*
X035221Y009266D02*
X035359Y009266D01*
X035320Y009228D02*
X035182Y009228D01*
X035144Y009189D02*
X035282Y009189D01*
X035243Y009151D02*
X035105Y009151D01*
X035067Y009112D02*
X035205Y009112D01*
X035166Y009074D02*
X035028Y009074D01*
X035024Y009069D02*
X035329Y009375D01*
X035399Y009306D01*
X035093Y009000D01*
X035024Y009069D01*
X035329Y009375D01*
X035399Y009306D01*
X035093Y009000D01*
X035024Y009069D01*
X035058Y009035D02*
X035128Y009035D01*
X035003Y009189D02*
X034904Y009189D01*
X034884Y009209D02*
X035190Y009514D01*
X035259Y009445D01*
X034954Y009139D01*
X034884Y009209D01*
X035190Y009514D01*
X035259Y009445D01*
X034954Y009139D01*
X034884Y009209D01*
X034904Y009228D02*
X035042Y009228D01*
X035081Y009266D02*
X034942Y009266D01*
X034981Y009305D02*
X035119Y009305D01*
X035158Y009343D02*
X035019Y009343D01*
X035058Y009382D02*
X035196Y009382D01*
X035235Y009421D02*
X035096Y009421D01*
X035135Y009459D02*
X035245Y009459D01*
X035207Y009498D02*
X035173Y009498D01*
X035111Y009575D02*
X034972Y009575D01*
X035011Y009613D02*
X035091Y009613D01*
X035120Y009584D02*
X034814Y009279D01*
X034745Y009348D01*
X035051Y009653D01*
X035120Y009584D01*
X034814Y009279D01*
X034745Y009348D01*
X035051Y009653D01*
X035120Y009584D01*
X035072Y009536D02*
X034934Y009536D01*
X034895Y009498D02*
X035034Y009498D01*
X034995Y009459D02*
X034857Y009459D01*
X034818Y009421D02*
X034956Y009421D01*
X034918Y009382D02*
X034780Y009382D01*
X034750Y009343D02*
X034879Y009343D01*
X034841Y009305D02*
X034788Y009305D01*
X034675Y009418D02*
X034981Y009724D01*
X034912Y009793D01*
X034606Y009487D01*
X034675Y009418D01*
X034981Y009724D01*
X034912Y009793D01*
X034606Y009487D01*
X034675Y009418D01*
X034673Y009421D02*
X034678Y009421D01*
X034716Y009459D02*
X034634Y009459D01*
X034617Y009498D02*
X034755Y009498D01*
X034794Y009536D02*
X034655Y009536D01*
X034694Y009575D02*
X034832Y009575D01*
X034871Y009613D02*
X034732Y009613D01*
X034771Y009652D02*
X034909Y009652D01*
X034948Y009690D02*
X034809Y009690D01*
X034848Y009729D02*
X034976Y009729D01*
X034937Y009767D02*
X034887Y009767D01*
X034824Y009844D02*
X034685Y009844D01*
X034647Y009806D02*
X034785Y009806D01*
X034747Y009767D02*
X034608Y009767D01*
X034570Y009729D02*
X034708Y009729D01*
X034669Y009690D02*
X034531Y009690D01*
X034493Y009652D02*
X034631Y009652D01*
X034592Y009613D02*
X034480Y009613D01*
X034467Y009626D02*
X034773Y009932D01*
X034842Y009863D01*
X034536Y009557D01*
X034467Y009626D01*
X034773Y009932D01*
X034842Y009863D01*
X034536Y009557D01*
X034467Y009626D01*
X034518Y009575D02*
X034554Y009575D01*
X034430Y009729D02*
X034364Y009729D01*
X034397Y009696D02*
X034703Y010002D01*
X034633Y010071D01*
X034328Y009765D01*
X034397Y009696D01*
X034703Y010002D01*
X034633Y010071D01*
X034328Y009765D01*
X034397Y009696D01*
X034330Y009767D02*
X034468Y009767D01*
X034507Y009806D02*
X034368Y009806D01*
X034407Y009844D02*
X034545Y009844D01*
X034584Y009883D02*
X034445Y009883D01*
X034484Y009922D02*
X034622Y009922D01*
X034661Y009960D02*
X034522Y009960D01*
X034561Y009999D02*
X034699Y009999D01*
X034667Y010037D02*
X034599Y010037D01*
X034537Y010114D02*
X034398Y010114D01*
X034360Y010076D02*
X034498Y010076D01*
X034460Y010037D02*
X034321Y010037D01*
X034283Y009999D02*
X034421Y009999D01*
X034383Y009960D02*
X034244Y009960D01*
X034206Y009922D02*
X034344Y009922D01*
X034305Y009883D02*
X034210Y009883D01*
X034189Y009905D02*
X034258Y009835D01*
X034563Y010141D01*
X034494Y010210D01*
X034189Y009905D01*
X034494Y010210D01*
X034563Y010141D01*
X034258Y009835D01*
X034189Y009905D01*
X034249Y009844D02*
X034267Y009844D01*
X034119Y009975D02*
X034424Y010280D01*
X034355Y010350D01*
X034049Y010044D01*
X034119Y009975D01*
X034424Y010280D01*
X034355Y010350D01*
X034049Y010044D01*
X034119Y009975D01*
X034143Y009999D02*
X034094Y009999D01*
X034056Y010037D02*
X034181Y010037D01*
X034220Y010076D02*
X034081Y010076D01*
X034120Y010114D02*
X034258Y010114D01*
X034297Y010153D02*
X034158Y010153D01*
X034197Y010191D02*
X034335Y010191D01*
X034374Y010230D02*
X034235Y010230D01*
X034274Y010268D02*
X034412Y010268D01*
X034398Y010307D02*
X034312Y010307D01*
X034351Y010346D02*
X034359Y010346D01*
X034285Y010419D02*
X033979Y010114D01*
X033910Y010183D01*
X034216Y010489D01*
X034285Y010419D01*
X033979Y010114D01*
X033980Y010114D01*
X033979Y010114D02*
X033910Y010183D01*
X034216Y010489D01*
X034285Y010419D01*
X034282Y010423D02*
X034150Y010423D01*
X034188Y010461D02*
X034243Y010461D01*
X034250Y010384D02*
X034111Y010384D01*
X034073Y010346D02*
X034211Y010346D01*
X034173Y010307D02*
X034034Y010307D01*
X033996Y010268D02*
X034134Y010268D01*
X034095Y010230D02*
X033957Y010230D01*
X033919Y010191D02*
X034057Y010191D01*
X034018Y010153D02*
X033940Y010153D01*
X033840Y010253D02*
X034146Y010559D01*
X034077Y010628D01*
X033771Y010322D01*
X033840Y010253D01*
X034146Y010559D01*
X034077Y010628D01*
X033771Y010322D01*
X033840Y010253D01*
X033825Y010268D02*
X033856Y010268D01*
X033894Y010307D02*
X033786Y010307D01*
X033794Y010346D02*
X033933Y010346D01*
X033971Y010384D02*
X033833Y010384D01*
X033871Y010423D02*
X034010Y010423D01*
X034048Y010461D02*
X033910Y010461D01*
X033949Y010500D02*
X034087Y010500D01*
X034125Y010538D02*
X033987Y010538D01*
X034026Y010577D02*
X034128Y010577D01*
X034089Y010615D02*
X034064Y010615D01*
X034001Y010692D02*
X033863Y010692D01*
X033824Y010654D02*
X033963Y010654D01*
X033924Y010615D02*
X033786Y010615D01*
X033747Y010577D02*
X033886Y010577D01*
X033847Y010538D02*
X033709Y010538D01*
X033670Y010500D02*
X033809Y010500D01*
X033770Y010461D02*
X033632Y010461D01*
X033937Y010767D01*
X034007Y010698D01*
X033701Y010392D01*
X033632Y010461D01*
X033937Y010767D01*
X034007Y010698D01*
X033701Y010392D01*
X033632Y010461D01*
X033670Y010423D02*
X033731Y010423D01*
X033607Y010577D02*
X033516Y010577D01*
X033492Y010601D02*
X033798Y010906D01*
X033867Y010837D01*
X033562Y010531D01*
X033492Y010601D01*
X033798Y010906D01*
X033867Y010837D01*
X033562Y010531D01*
X033492Y010601D01*
X033507Y010615D02*
X033646Y010615D01*
X033684Y010654D02*
X033546Y010654D01*
X033584Y010692D02*
X033723Y010692D01*
X033761Y010731D02*
X033623Y010731D01*
X033662Y010770D02*
X033800Y010770D01*
X033838Y010808D02*
X033700Y010808D01*
X033739Y010847D02*
X033858Y010847D01*
X033819Y010885D02*
X033777Y010885D01*
X033714Y010962D02*
X033576Y010962D01*
X033537Y010924D02*
X033676Y010924D01*
X033637Y010885D02*
X033499Y010885D01*
X033460Y010847D02*
X033599Y010847D01*
X033560Y010808D02*
X033422Y010808D01*
X033383Y010770D02*
X033522Y010770D01*
X033483Y010731D02*
X033362Y010731D01*
X033353Y010740D02*
X033659Y011045D01*
X033728Y010976D01*
X033423Y010671D01*
X033353Y010740D01*
X033659Y011045D01*
X033728Y010976D01*
X033423Y010671D01*
X033353Y010740D01*
X033401Y010692D02*
X033445Y010692D01*
X033555Y010538D02*
X033569Y010538D01*
X033901Y010731D02*
X033974Y010731D01*
X033704Y011001D02*
X033614Y011001D01*
X033653Y011039D02*
X033665Y011039D01*
X033589Y011115D02*
X033283Y010810D01*
X033214Y010879D01*
X033520Y011185D01*
X033589Y011115D01*
X033283Y010810D01*
X033214Y010879D01*
X033520Y011185D01*
X033589Y011115D01*
X033588Y011116D02*
X033452Y011116D01*
X033413Y011078D02*
X033551Y011078D01*
X033513Y011039D02*
X033375Y011039D01*
X033336Y011001D02*
X033474Y011001D01*
X033436Y010962D02*
X033297Y010962D01*
X033259Y010924D02*
X033397Y010924D01*
X033359Y010885D02*
X033220Y010885D01*
X033246Y010847D02*
X033320Y010847D01*
X033196Y011001D02*
X033092Y011001D01*
X033075Y011018D02*
X033381Y011324D01*
X033450Y011255D01*
X033144Y010949D01*
X033075Y011018D01*
X033381Y011324D01*
X033450Y011255D01*
X033144Y010949D01*
X033075Y011018D01*
X033096Y011039D02*
X033235Y011039D01*
X033273Y011078D02*
X033135Y011078D01*
X033173Y011116D02*
X033312Y011116D01*
X033350Y011155D02*
X033212Y011155D01*
X033250Y011194D02*
X033389Y011194D01*
X033427Y011232D02*
X033289Y011232D01*
X033328Y011271D02*
X033434Y011271D01*
X033395Y011309D02*
X033366Y011309D01*
X033303Y011386D02*
X033165Y011386D01*
X033203Y011425D02*
X033280Y011425D01*
X033311Y011394D02*
X033241Y011463D01*
X032936Y011157D01*
X033005Y011088D01*
X033311Y011394D01*
X033005Y011088D01*
X032936Y011157D01*
X033241Y011463D01*
X033311Y011394D01*
X033264Y011348D02*
X033126Y011348D01*
X033088Y011309D02*
X033226Y011309D01*
X033187Y011271D02*
X033049Y011271D01*
X033011Y011232D02*
X033149Y011232D01*
X033110Y011194D02*
X032972Y011194D01*
X032938Y011155D02*
X033072Y011155D01*
X033033Y011116D02*
X032977Y011116D01*
X032866Y011227D02*
X033171Y011533D01*
X033102Y011602D01*
X032797Y011296D01*
X032866Y011227D01*
X033171Y011533D01*
X033102Y011602D01*
X032797Y011296D01*
X032866Y011227D01*
X032861Y011232D02*
X032871Y011232D01*
X032909Y011271D02*
X032822Y011271D01*
X032809Y011309D02*
X032948Y011309D01*
X032986Y011348D02*
X032848Y011348D01*
X032886Y011386D02*
X033025Y011386D01*
X033063Y011425D02*
X032925Y011425D01*
X032963Y011463D02*
X033102Y011463D01*
X033140Y011502D02*
X033002Y011502D01*
X033041Y011540D02*
X033164Y011540D01*
X033126Y011579D02*
X033079Y011579D01*
X033016Y011656D02*
X032878Y011656D01*
X032916Y011695D02*
X033010Y011695D01*
X033032Y011672D02*
X032726Y011367D01*
X032657Y011436D01*
X032963Y011741D01*
X033032Y011672D01*
X032726Y011367D01*
X032657Y011436D01*
X032963Y011741D01*
X033032Y011672D01*
X032977Y011617D02*
X032839Y011617D01*
X032801Y011579D02*
X032939Y011579D01*
X032900Y011540D02*
X032762Y011540D01*
X032724Y011502D02*
X032862Y011502D01*
X032823Y011463D02*
X032685Y011463D01*
X032668Y011425D02*
X032785Y011425D01*
X032746Y011386D02*
X032707Y011386D01*
X032587Y011506D02*
X032893Y011811D01*
X032824Y011881D01*
X032518Y011575D01*
X032587Y011506D01*
X032893Y011811D01*
X032824Y011881D01*
X032518Y011575D01*
X032587Y011506D01*
X032553Y011540D02*
X032622Y011540D01*
X032661Y011579D02*
X032522Y011579D01*
X032561Y011617D02*
X032699Y011617D01*
X032738Y011656D02*
X032599Y011656D01*
X032638Y011695D02*
X032776Y011695D01*
X032815Y011733D02*
X032676Y011733D01*
X032715Y011772D02*
X032853Y011772D01*
X032892Y011810D02*
X032754Y011810D01*
X032792Y011849D02*
X032856Y011849D01*
X032754Y011951D02*
X032448Y011645D01*
X032379Y011714D01*
X032685Y012020D01*
X032754Y011951D01*
X032448Y011645D01*
X032379Y011714D01*
X032685Y012020D01*
X032754Y011951D01*
X032740Y011964D02*
X032629Y011964D01*
X032591Y011926D02*
X032729Y011926D01*
X032691Y011887D02*
X032552Y011887D01*
X032514Y011849D02*
X032652Y011849D01*
X032613Y011810D02*
X032475Y011810D01*
X032436Y011772D02*
X032575Y011772D01*
X032536Y011733D02*
X032398Y011733D01*
X032399Y011695D02*
X032498Y011695D01*
X032459Y011656D02*
X032437Y011656D01*
X032309Y011784D02*
X032615Y012090D01*
X032546Y012159D01*
X032240Y011853D01*
X032309Y011784D01*
X032615Y012090D01*
X032546Y012159D01*
X032240Y011853D01*
X032309Y011784D01*
X032283Y011810D02*
X032335Y011810D01*
X032374Y011849D02*
X032244Y011849D01*
X032274Y011887D02*
X032412Y011887D01*
X032451Y011926D02*
X032312Y011926D01*
X032351Y011964D02*
X032489Y011964D01*
X032528Y012003D02*
X032389Y012003D01*
X032428Y012041D02*
X032566Y012041D01*
X032605Y012080D02*
X032467Y012080D01*
X032505Y012119D02*
X032586Y012119D01*
X032547Y012157D02*
X032544Y012157D01*
X032476Y012229D02*
X032170Y011923D01*
X032101Y011992D01*
X032406Y012298D01*
X032476Y012229D01*
X032170Y011923D01*
X032101Y011992D01*
X032406Y012298D01*
X032476Y012229D01*
X032470Y012234D02*
X032342Y012234D01*
X032304Y012196D02*
X032442Y012196D01*
X032404Y012157D02*
X032265Y012157D01*
X032227Y012119D02*
X032365Y012119D01*
X032326Y012080D02*
X032188Y012080D01*
X032150Y012041D02*
X032288Y012041D01*
X032249Y012003D02*
X032111Y012003D01*
X032129Y011964D02*
X032211Y011964D01*
X032172Y011926D02*
X032167Y011926D01*
X032031Y012062D02*
X032336Y012368D01*
X032267Y012437D01*
X031961Y012132D01*
X032031Y012062D01*
X032336Y012368D01*
X032267Y012437D01*
X031961Y012132D01*
X032031Y012062D01*
X032048Y012080D02*
X032013Y012080D01*
X031975Y012119D02*
X032087Y012119D01*
X032125Y012157D02*
X031987Y012157D01*
X032025Y012196D02*
X032164Y012196D01*
X032202Y012234D02*
X032064Y012234D01*
X032103Y012273D02*
X032241Y012273D01*
X032279Y012311D02*
X032141Y012311D01*
X032180Y012350D02*
X032318Y012350D01*
X032316Y012388D02*
X032218Y012388D01*
X032257Y012427D02*
X032278Y012427D01*
X032197Y012507D02*
X032128Y012577D01*
X031822Y012271D01*
X031891Y012202D01*
X032197Y012507D01*
X031891Y012202D01*
X031822Y012271D01*
X032128Y012577D01*
X032197Y012507D01*
X032194Y012504D02*
X032055Y012504D01*
X032017Y012465D02*
X032155Y012465D01*
X032117Y012427D02*
X031978Y012427D01*
X031940Y012388D02*
X032078Y012388D01*
X032039Y012350D02*
X031901Y012350D01*
X031863Y012311D02*
X032001Y012311D01*
X031962Y012273D02*
X031824Y012273D01*
X031859Y012234D02*
X031924Y012234D01*
X031800Y012388D02*
X031705Y012388D01*
X031683Y012410D02*
X031989Y012716D01*
X032058Y012647D01*
X031752Y012341D01*
X031683Y012410D01*
X031989Y012716D01*
X032058Y012647D01*
X031752Y012341D01*
X031683Y012410D01*
X031700Y012427D02*
X031838Y012427D01*
X031877Y012465D02*
X031738Y012465D01*
X031777Y012504D02*
X031915Y012504D01*
X031954Y012543D02*
X031816Y012543D01*
X031854Y012581D02*
X031993Y012581D01*
X032031Y012620D02*
X031893Y012620D01*
X031931Y012658D02*
X032046Y012658D01*
X032008Y012697D02*
X031970Y012697D01*
X031907Y012774D02*
X031768Y012774D01*
X031730Y012735D02*
X031868Y012735D01*
X031830Y012697D02*
X031691Y012697D01*
X031653Y012658D02*
X031791Y012658D01*
X031753Y012620D02*
X031614Y012620D01*
X031576Y012581D02*
X031714Y012581D01*
X031675Y012543D02*
X031551Y012543D01*
X031544Y012549D02*
X031613Y012480D01*
X031919Y012786D01*
X031849Y012855D01*
X031544Y012549D01*
X031849Y012855D01*
X031919Y012786D01*
X031613Y012480D01*
X031544Y012549D01*
X031589Y012504D02*
X031637Y012504D01*
X031743Y012350D02*
X031761Y012350D01*
X032094Y012543D02*
X032162Y012543D01*
X032381Y012273D02*
X032432Y012273D01*
X032668Y012003D02*
X032702Y012003D01*
X032955Y011733D02*
X032971Y011733D01*
X033490Y011155D02*
X033550Y011155D01*
X033158Y010962D02*
X033131Y010962D01*
X034437Y010153D02*
X034552Y010153D01*
X034513Y010191D02*
X034475Y010191D01*
X034762Y009922D02*
X034783Y009922D01*
X034821Y009883D02*
X034724Y009883D01*
X035049Y009652D02*
X035053Y009652D01*
X035298Y009343D02*
X035361Y009343D01*
X035585Y009074D02*
X035631Y009074D01*
X034965Y009151D02*
X034942Y009151D01*
X037912Y010037D02*
X038037Y010037D01*
X037998Y009999D02*
X037950Y009999D01*
X038648Y010692D02*
X038692Y010692D01*
X038731Y010731D02*
X038610Y010731D01*
X039222Y011232D02*
X039232Y011232D01*
X039470Y011540D02*
X039540Y011540D01*
X039757Y011810D02*
X039810Y011810D01*
X039138Y011733D02*
X039121Y011733D01*
X040799Y013275D02*
X040937Y013275D01*
X040975Y013236D02*
X040837Y013236D01*
X040876Y013198D02*
X041014Y013198D01*
X041052Y013159D02*
X040914Y013159D01*
X040898Y013313D02*
X040760Y013313D01*
X040740Y013352D02*
X040860Y013352D01*
X040821Y013390D02*
X040779Y013390D01*
X040884Y013468D02*
X041022Y013468D01*
X040984Y013506D02*
X040894Y013506D01*
X040933Y013545D02*
X040945Y013545D01*
X040923Y013429D02*
X041061Y013429D01*
X041099Y013390D02*
X040961Y013390D01*
X041000Y013352D02*
X041138Y013352D01*
X040691Y015433D02*
X040631Y015433D01*
X040404Y015703D02*
X040361Y015703D01*
X040322Y015742D02*
X040442Y015742D01*
X041024Y015626D02*
X041049Y015626D01*
X038852Y017823D02*
X038766Y017823D01*
X038805Y017861D02*
X038814Y017861D01*
X036789Y019326D02*
X036738Y019326D01*
X034507Y018478D02*
X034482Y018478D01*
X034149Y018671D02*
X034088Y018671D01*
X033862Y018401D02*
X033819Y018401D01*
X033780Y018363D02*
X033900Y018363D01*
X033613Y018093D02*
X033510Y018093D01*
X033549Y018131D02*
X033575Y018131D01*
X033288Y017861D02*
X033279Y017861D01*
X033240Y017823D02*
X033326Y017823D01*
X032504Y016975D02*
X032392Y016975D01*
X032431Y017014D02*
X032465Y017014D01*
X030898Y015241D02*
X030759Y015241D01*
X030798Y015202D02*
X030936Y015202D01*
X030975Y015163D02*
X030837Y015163D01*
X030875Y015125D02*
X031013Y015125D01*
X031052Y015086D02*
X030914Y015086D01*
X030952Y015048D02*
X031077Y015048D01*
X031038Y015009D02*
X030991Y015009D01*
X030611Y014971D02*
X030473Y014971D01*
X030434Y015009D02*
X030572Y015009D01*
X030534Y015048D02*
X030465Y015048D01*
X030736Y013969D02*
X030805Y013899D01*
X030499Y013594D01*
X030430Y013663D01*
X030736Y013969D01*
X030805Y013899D01*
X030499Y013594D01*
X030430Y013663D01*
X030736Y013969D01*
X030698Y013930D02*
X030774Y013930D01*
X030797Y013892D02*
X030659Y013892D01*
X030620Y013853D02*
X030759Y013853D01*
X030720Y013814D02*
X030582Y013814D01*
X030543Y013776D02*
X030682Y013776D01*
X030643Y013737D02*
X030505Y013737D01*
X030466Y013699D02*
X030605Y013699D01*
X030566Y013660D02*
X030433Y013660D01*
X030471Y013622D02*
X030528Y013622D01*
X030591Y013545D02*
X030729Y013545D01*
X030767Y013583D02*
X030629Y013583D01*
X030668Y013622D02*
X030806Y013622D01*
X030845Y013660D02*
X030706Y013660D01*
X030745Y013699D02*
X030883Y013699D01*
X030922Y013737D02*
X030783Y013737D01*
X030822Y013776D02*
X030929Y013776D01*
X030944Y013760D02*
X030639Y013454D01*
X030569Y013524D01*
X030875Y013829D01*
X030944Y013760D01*
X030639Y013454D01*
X030569Y013524D01*
X030875Y013829D01*
X030944Y013760D01*
X030890Y013814D02*
X030860Y013814D01*
X030985Y013660D02*
X031044Y013660D01*
X031014Y013690D02*
X031084Y013621D01*
X030778Y013315D01*
X030709Y013384D01*
X031014Y013690D01*
X031084Y013621D01*
X030778Y013315D01*
X030709Y013384D01*
X031014Y013690D01*
X030946Y013622D02*
X031083Y013622D01*
X031046Y013583D02*
X030907Y013583D01*
X030869Y013545D02*
X031007Y013545D01*
X030969Y013506D02*
X030830Y013506D01*
X030792Y013468D02*
X030930Y013468D01*
X030892Y013429D02*
X030753Y013429D01*
X030715Y013390D02*
X030853Y013390D01*
X030814Y013352D02*
X030741Y013352D01*
X030652Y013468D02*
X030626Y013468D01*
X030587Y013506D02*
X030690Y013506D01*
X030916Y013313D02*
X031054Y013313D01*
X031016Y013275D02*
X030878Y013275D01*
X030848Y013245D02*
X031154Y013551D01*
X031223Y013482D01*
X030917Y013176D01*
X030848Y013245D01*
X031154Y013551D01*
X031223Y013482D01*
X030917Y013176D01*
X030848Y013245D01*
X030857Y013236D02*
X030977Y013236D01*
X030939Y013198D02*
X030895Y013198D01*
X030987Y013106D02*
X031293Y013412D01*
X031362Y013343D01*
X031056Y013037D01*
X030987Y013106D01*
X031293Y013412D01*
X031362Y013343D01*
X031056Y013037D01*
X030987Y013106D01*
X031002Y013121D02*
X031140Y013121D01*
X031179Y013159D02*
X031040Y013159D01*
X031079Y013198D02*
X031217Y013198D01*
X031256Y013236D02*
X031117Y013236D01*
X031156Y013275D02*
X031294Y013275D01*
X031333Y013313D02*
X031194Y013313D01*
X031233Y013352D02*
X031353Y013352D01*
X031314Y013390D02*
X031271Y013390D01*
X031209Y013468D02*
X031070Y013468D01*
X031109Y013506D02*
X031198Y013506D01*
X031160Y013545D02*
X031147Y013545D01*
X031170Y013429D02*
X031032Y013429D01*
X030993Y013390D02*
X031132Y013390D01*
X031093Y013352D02*
X030955Y013352D01*
X031011Y013082D02*
X031101Y013082D01*
X031063Y013044D02*
X031049Y013044D01*
X031126Y012967D02*
X031195Y012898D01*
X031501Y013203D01*
X031432Y013272D01*
X031126Y012967D01*
X031432Y013272D01*
X031501Y013203D01*
X031195Y012898D01*
X031126Y012967D01*
X031127Y012966D02*
X031264Y012966D01*
X031226Y012928D02*
X031165Y012928D01*
X031165Y013005D02*
X031303Y013005D01*
X031341Y013044D02*
X031203Y013044D01*
X031242Y013082D02*
X031380Y013082D01*
X031418Y013121D02*
X031280Y013121D01*
X031319Y013159D02*
X031457Y013159D01*
X031496Y013198D02*
X031357Y013198D01*
X031396Y013236D02*
X031468Y013236D01*
X031571Y013133D02*
X031640Y013064D01*
X031335Y012758D01*
X031265Y012828D01*
X031571Y013133D01*
X031640Y013064D01*
X031335Y012758D01*
X031265Y012828D01*
X031571Y013133D01*
X031558Y013121D02*
X031584Y013121D01*
X031622Y013082D02*
X031520Y013082D01*
X031481Y013044D02*
X031620Y013044D01*
X031581Y013005D02*
X031443Y013005D01*
X031404Y012966D02*
X031543Y012966D01*
X031504Y012928D02*
X031366Y012928D01*
X031327Y012889D02*
X031466Y012889D01*
X031427Y012851D02*
X031289Y012851D01*
X031281Y012812D02*
X031389Y012812D01*
X031350Y012774D02*
X031319Y012774D01*
X031405Y012688D02*
X031710Y012994D01*
X031780Y012925D01*
X031474Y012619D01*
X031405Y012688D01*
X031710Y012994D01*
X031780Y012925D01*
X031474Y012619D01*
X031405Y012688D01*
X031413Y012697D02*
X031551Y012697D01*
X031590Y012735D02*
X031451Y012735D01*
X031490Y012774D02*
X031628Y012774D01*
X031667Y012812D02*
X031529Y012812D01*
X031567Y012851D02*
X031706Y012851D01*
X031744Y012889D02*
X031606Y012889D01*
X031644Y012928D02*
X031777Y012928D01*
X031738Y012966D02*
X031683Y012966D01*
X031807Y012812D02*
X031892Y012812D01*
X031854Y012851D02*
X031845Y012851D01*
X031513Y012658D02*
X031435Y012658D01*
X031473Y012620D02*
X031474Y012620D01*
D22*
X027646Y024938D03*
X026646Y024938D03*
X025646Y024938D03*
X024646Y024938D03*
X023646Y024938D03*
X022646Y024938D03*
D23*
X032771Y024463D03*
X034346Y024463D03*
X034346Y022463D03*
X032771Y022463D03*
D24*
X034521Y033414D03*
X034521Y034162D03*
X035834Y034174D03*
X035834Y033426D03*
X037146Y033426D03*
X037146Y034174D03*
X038396Y034174D03*
X038396Y033426D03*
D25*
X043295Y034963D03*
X044397Y034963D03*
X035047Y029613D03*
X033945Y029613D03*
X023697Y026938D03*
X022595Y026938D03*
X020247Y028613D03*
X019145Y028613D03*
X019145Y032813D03*
X020247Y032813D03*
X043495Y015463D03*
X044597Y015463D03*
X049495Y015463D03*
X050597Y015463D03*
X050597Y012963D03*
X049495Y012963D03*
X044597Y003963D03*
X043495Y003963D03*
X049495Y026963D03*
X050597Y026963D03*
D26*
X022031Y030713D03*
D27*
X019157Y031610D03*
X019157Y029815D03*
D28*
X015746Y029963D03*
X015746Y027963D03*
D29*
X008446Y030563D03*
X005946Y030563D03*
X007196Y028813D03*
D30*
X032046Y027963D03*
X035046Y027963D03*
X035046Y021963D03*
X032046Y021963D03*
D31*
X013146Y030863D03*
D32*
X011146Y030863D03*
X011146Y032863D03*
X013146Y032863D03*
D33*
X034521Y032387D03*
X035834Y032387D03*
X037146Y032387D03*
X038396Y032387D03*
X038396Y031088D03*
X037146Y031088D03*
X035834Y031088D03*
X034521Y031088D03*
D34*
X034521Y030675D01*
X033945Y030099D01*
X033945Y029613D01*
X034521Y031088D02*
X034521Y031113D01*
X035834Y031088D02*
X035834Y031088D01*
X035834Y030463D01*
X037096Y030463D01*
X037096Y019981D01*
X036742Y019627D01*
X036603Y019766D02*
X036546Y019810D01*
X036546Y020313D01*
X037296Y019903D02*
X037296Y030613D01*
X037146Y030763D01*
X037146Y031088D01*
X037146Y031088D01*
X037146Y031113D01*
X037496Y030463D02*
X038396Y030463D01*
X038396Y031088D01*
X037496Y030463D02*
X037496Y019824D01*
X037021Y019349D01*
X037160Y019210D02*
X037721Y019771D01*
X037721Y027405D01*
X043129Y032813D01*
X043246Y032813D01*
X043246Y032815D01*
X043248Y032816D01*
X045400Y032816D01*
X046546Y033963D01*
X046546Y034962D02*
X046547Y034963D01*
X046571Y034963D01*
X046546Y032963D02*
X045997Y032413D01*
X043248Y032413D01*
X043247Y032413D01*
X043225Y032413D01*
X037921Y027109D01*
X037921Y019693D01*
X037299Y019070D01*
X037438Y018931D02*
X038121Y019614D01*
X038121Y026813D01*
X043271Y031963D01*
X046546Y031963D01*
X047046Y031463D02*
X047546Y031963D01*
X049672Y031963D01*
X050420Y031963D02*
X051546Y031963D01*
X051546Y030963D02*
X050420Y030963D01*
X049672Y030963D02*
X047546Y030963D01*
X047046Y030463D01*
X043246Y030463D01*
X038721Y025938D01*
X038721Y019101D01*
X037995Y018375D01*
X037856Y018514D02*
X038521Y019179D01*
X038521Y026213D01*
X043271Y030963D01*
X046546Y030963D01*
X046571Y030963D01*
X047046Y031463D02*
X043246Y031463D01*
X038321Y026538D01*
X038321Y019258D01*
X037717Y018653D01*
X037577Y018792D02*
X037196Y018411D01*
X037196Y018363D01*
X038134Y018235D02*
X038946Y019047D01*
X038946Y025638D01*
X043271Y029963D01*
X046546Y029963D01*
X047021Y029463D02*
X047521Y029963D01*
X047546Y029963D01*
X049672Y029963D01*
X050420Y029963D02*
X051446Y029963D01*
X051546Y029863D01*
X051546Y029963D01*
X051546Y028963D02*
X050420Y028963D01*
X049746Y028963D02*
X049672Y028963D01*
X047546Y028963D01*
X047046Y028463D01*
X043246Y028463D01*
X039621Y024838D01*
X039621Y018887D01*
X038552Y017818D01*
X038413Y017957D02*
X039396Y018941D01*
X039396Y025088D01*
X043271Y028963D01*
X046546Y028963D01*
X047021Y029463D02*
X043246Y029463D01*
X039171Y025388D01*
X039171Y018994D01*
X038273Y018096D01*
X038691Y017678D02*
X039846Y018834D01*
X039846Y024538D01*
X043271Y027963D01*
X046546Y027963D01*
X047046Y027463D02*
X047546Y027963D01*
X049672Y027963D01*
X050420Y027963D02*
X051546Y027963D01*
X051546Y028963D02*
X051646Y028963D01*
X047046Y027463D02*
X043271Y027463D01*
X040071Y024263D01*
X040071Y018780D01*
X038830Y017539D01*
X038969Y017400D02*
X040296Y018727D01*
X040296Y020413D01*
X043346Y023463D01*
X043672Y023463D01*
X043346Y022963D02*
X047846Y022963D01*
X048346Y023463D01*
X049672Y023463D01*
X050420Y023463D02*
X051546Y023463D01*
X051546Y022463D02*
X050420Y022463D01*
X049672Y022463D02*
X048346Y022463D01*
X047846Y021963D01*
X043346Y021963D01*
X040971Y019588D01*
X040971Y018288D01*
X039526Y016843D01*
X039665Y016704D02*
X041196Y018235D01*
X041196Y019313D01*
X043346Y021463D01*
X043672Y021463D01*
X043346Y020963D02*
X047846Y020963D01*
X048346Y021463D01*
X049672Y021463D01*
X050420Y021463D02*
X051546Y021463D01*
X051546Y020463D02*
X050420Y020463D01*
X049672Y020463D02*
X048346Y020463D01*
X047846Y019963D01*
X043346Y019963D01*
X041871Y018488D01*
X041871Y018075D01*
X040083Y016287D01*
X039944Y016426D02*
X041646Y018128D01*
X041646Y018763D01*
X043346Y020463D01*
X043672Y020463D01*
X043346Y020963D02*
X041421Y019038D01*
X041421Y018182D01*
X039805Y016565D01*
X040222Y016147D02*
X042096Y018022D01*
X042096Y018213D01*
X043346Y019463D01*
X043672Y019463D01*
X043316Y018963D02*
X047846Y018963D01*
X048346Y019463D01*
X049672Y019463D01*
X050420Y019463D02*
X051546Y019463D01*
X051546Y018463D02*
X050420Y018463D01*
X049672Y018463D02*
X048346Y018463D01*
X047846Y017963D01*
X043151Y017963D01*
X040779Y015591D01*
X040640Y015730D02*
X043373Y018463D01*
X043672Y018463D01*
X043316Y018963D02*
X040361Y016008D01*
X040918Y015451D02*
X042930Y017463D01*
X043672Y017463D01*
X042708Y016963D02*
X047846Y016963D01*
X048346Y017463D01*
X049672Y017463D01*
X050420Y017463D02*
X051546Y017463D01*
X051546Y016463D02*
X050420Y016463D01*
X049672Y016463D02*
X048346Y016463D01*
X047846Y015963D01*
X042265Y015963D01*
X041336Y015034D01*
X041475Y014895D02*
X041475Y014891D01*
X040946Y014363D01*
X041475Y013781D02*
X041593Y013663D01*
X041996Y013663D01*
X041336Y013642D02*
X042515Y012463D01*
X048346Y012463D01*
X048846Y011963D01*
X049672Y011963D01*
X050420Y011963D02*
X051546Y011963D01*
X051546Y010963D02*
X050420Y010963D01*
X049672Y010963D02*
X048846Y010963D01*
X048346Y011463D01*
X042680Y011463D01*
X040918Y013224D01*
X040779Y013085D02*
X042901Y010963D01*
X043672Y010963D01*
X043123Y010463D02*
X048346Y010463D01*
X048846Y009963D01*
X049672Y009963D01*
X050420Y009963D02*
X051546Y009963D01*
X051546Y008963D02*
X050420Y008963D01*
X049672Y008963D02*
X048846Y008963D01*
X048346Y009463D01*
X042646Y009463D01*
X042646Y010163D01*
X041246Y011563D01*
X041246Y011783D01*
X040361Y012668D01*
X040501Y012807D02*
X042846Y010461D01*
X042846Y009963D01*
X043672Y009963D01*
X043123Y010463D02*
X040640Y012946D01*
X041196Y013503D02*
X042736Y011963D01*
X043672Y011963D01*
X044420Y011963D02*
X046546Y011963D01*
X046546Y010963D02*
X044420Y010963D01*
X044420Y009963D02*
X046546Y009963D01*
X046546Y008963D02*
X044420Y008963D01*
X043672Y008963D02*
X042346Y008963D01*
X042346Y010163D01*
X041046Y011463D01*
X041046Y011704D01*
X040222Y012528D01*
X040083Y012389D02*
X040846Y011626D01*
X040846Y011263D01*
X042046Y010063D01*
X042046Y008463D01*
X048346Y008463D01*
X048846Y007963D01*
X049672Y007963D01*
X050420Y007963D02*
X051546Y007963D01*
X051546Y006963D02*
X050420Y006963D01*
X049672Y006963D02*
X048846Y006963D01*
X048346Y007463D01*
X041446Y007463D01*
X041446Y009863D01*
X040446Y010863D01*
X040446Y011469D01*
X039805Y012111D01*
X039944Y012250D02*
X040646Y011547D01*
X040646Y011063D01*
X041746Y009963D01*
X041746Y007963D01*
X043672Y007963D01*
X044420Y007963D02*
X046546Y007963D01*
X046546Y006963D02*
X044420Y006963D01*
X043672Y006963D02*
X041146Y006963D01*
X041146Y009763D01*
X040246Y010663D01*
X040246Y011391D01*
X039665Y011972D01*
X039526Y011832D02*
X040046Y011312D01*
X040046Y010463D01*
X040846Y009663D01*
X040846Y006463D01*
X048346Y006463D01*
X048846Y005963D01*
X049672Y005963D01*
X050420Y005963D02*
X051546Y005963D01*
X051546Y004963D02*
X050420Y004963D01*
X049672Y004963D02*
X048846Y004963D01*
X048346Y005463D01*
X040246Y005463D01*
X040246Y009463D01*
X039646Y010063D01*
X039646Y011155D01*
X039248Y011554D01*
X039387Y011693D02*
X039846Y011234D01*
X039846Y010263D01*
X040546Y009563D01*
X040546Y005963D01*
X043672Y005963D01*
X044420Y005963D02*
X046546Y005963D01*
X046546Y004963D02*
X044420Y004963D01*
X043672Y004963D02*
X039946Y004963D01*
X039946Y009363D01*
X039446Y009863D01*
X039446Y010799D01*
X038969Y011276D01*
X038552Y010858D02*
X038997Y010413D01*
X039046Y010413D01*
X038413Y010719D02*
X037996Y011135D01*
X037996Y011363D01*
X038273Y010580D02*
X039646Y009207D01*
X039646Y004163D01*
X014446Y004163D01*
X014446Y010763D01*
X012872Y010763D01*
X012872Y011263D01*
X011720Y011263D01*
X010972Y011263D02*
X008896Y011263D01*
X010746Y012263D02*
X010972Y012263D01*
X010746Y012263D02*
X009566Y013443D01*
X008896Y013443D01*
X008896Y014523D02*
X009486Y014523D01*
X010746Y013263D01*
X010972Y013263D01*
X011720Y013263D02*
X012872Y013263D01*
X012872Y012763D01*
X014846Y012763D01*
X014846Y004563D01*
X039246Y004563D01*
X039246Y009050D01*
X037995Y010301D01*
X037856Y010162D02*
X039046Y008972D01*
X039046Y004763D01*
X015046Y004763D01*
X015046Y013763D01*
X012872Y013763D01*
X012872Y014263D01*
X011720Y014263D01*
X010972Y014263D02*
X010746Y014263D01*
X009396Y015613D01*
X008896Y015613D01*
X008896Y016703D02*
X009306Y016703D01*
X010746Y015263D01*
X010972Y015263D01*
X011720Y015263D02*
X012872Y015263D01*
X012872Y014763D01*
X015246Y014763D01*
X015246Y004963D01*
X038846Y004963D01*
X038846Y008893D01*
X037717Y010023D01*
X037577Y009884D02*
X038646Y008815D01*
X038646Y005163D01*
X015446Y005163D01*
X015446Y015763D01*
X012872Y015763D01*
X012872Y016263D01*
X011720Y016263D01*
X010972Y016263D02*
X010746Y016263D01*
X009226Y017783D01*
X008896Y017783D01*
X009676Y018333D02*
X007896Y018333D01*
X008896Y018873D02*
X010136Y018873D01*
X010746Y018263D01*
X010972Y018263D01*
X011720Y018263D02*
X012872Y018263D01*
X012872Y017763D01*
X015846Y017763D01*
X015846Y005563D01*
X037646Y005563D01*
X037646Y008980D01*
X037160Y009466D01*
X037299Y009605D02*
X038046Y008858D01*
X038046Y008563D01*
X038446Y008736D02*
X038446Y005363D01*
X015646Y005363D01*
X015646Y016763D01*
X012872Y016763D01*
X012872Y017263D01*
X011720Y017263D01*
X010972Y017263D02*
X010746Y017263D01*
X009676Y018333D01*
X010746Y019263D02*
X010972Y019263D01*
X010746Y019263D02*
X010046Y019963D01*
X008896Y019963D01*
X008896Y021043D02*
X009966Y021043D01*
X010746Y020263D01*
X010972Y020263D01*
X011720Y020263D02*
X012872Y020263D01*
X012872Y019763D01*
X016246Y019763D01*
X016246Y005963D01*
X037246Y005963D01*
X037246Y008823D01*
X036881Y009188D01*
X036742Y009048D02*
X037046Y008744D01*
X037046Y006163D01*
X016446Y006163D01*
X016446Y020763D01*
X012872Y020763D01*
X012872Y021263D01*
X011720Y021263D01*
X010972Y021263D02*
X010746Y021263D01*
X010416Y021593D01*
X007896Y021593D01*
X008896Y022133D02*
X010846Y022133D01*
X010846Y022163D01*
X010972Y022263D01*
X011720Y022263D02*
X012872Y022263D01*
X012872Y021763D01*
X016646Y021763D01*
X016646Y006363D01*
X034746Y006363D01*
X034746Y008444D01*
X035350Y009048D01*
X035489Y008909D02*
X035246Y008666D01*
X035246Y008413D01*
X035211Y009188D02*
X032786Y006763D01*
X021896Y006763D01*
X019967Y008693D01*
X019967Y010649D01*
X020222Y010649D02*
X020222Y008737D01*
X021996Y006963D01*
X032708Y006963D01*
X035072Y009327D01*
X034933Y009466D02*
X032630Y007163D01*
X022096Y007163D01*
X020990Y008269D01*
X020990Y010649D01*
X020734Y010649D02*
X020734Y009901D01*
X020596Y009763D01*
X021246Y010649D02*
X021246Y008313D01*
X022196Y007363D01*
X032551Y007363D01*
X034794Y009605D01*
X034654Y009744D02*
X032473Y007563D01*
X022296Y007563D01*
X021502Y008357D01*
X021502Y010649D01*
X021758Y010649D02*
X021758Y008401D01*
X022396Y007763D01*
X032394Y007763D01*
X034515Y009884D01*
X034376Y010023D02*
X032316Y007963D01*
X023596Y007963D01*
X022526Y009034D01*
X022526Y010649D01*
X022782Y010649D02*
X022796Y010663D01*
X022796Y009163D01*
X023796Y008163D01*
X031959Y008163D01*
X034098Y010301D01*
X034237Y010162D02*
X034737Y010663D01*
X034796Y010663D01*
X033958Y010440D02*
X031881Y008363D01*
X024096Y008363D01*
X024061Y008398D01*
X024061Y010649D01*
X023805Y010649D02*
X023805Y009872D01*
X023696Y009763D01*
X023168Y009763D01*
X023037Y009894D01*
X023037Y009972D01*
X023037Y010649D01*
X022796Y010663D02*
X022796Y010663D01*
X022014Y010649D02*
X022014Y009945D01*
X022196Y009763D01*
X024317Y010649D02*
X024317Y008642D01*
X024396Y008563D01*
X031803Y008563D01*
X033819Y010580D01*
X033680Y010719D02*
X031724Y008763D01*
X025196Y008763D01*
X025085Y008874D01*
X025085Y010649D01*
X025341Y010649D02*
X025341Y009019D01*
X025396Y008963D01*
X031646Y008963D01*
X033541Y010858D01*
X033402Y010997D02*
X031567Y009163D01*
X025596Y009163D01*
X025596Y010663D01*
X025596Y010663D01*
X025596Y010649D01*
X025852Y010649D02*
X025852Y009407D01*
X025896Y009363D01*
X031489Y009363D01*
X033262Y011136D01*
X033123Y011276D02*
X031410Y009563D01*
X026696Y009563D01*
X026620Y009639D01*
X026620Y010649D01*
X026876Y010649D02*
X026876Y009763D01*
X030775Y009763D01*
X032706Y011693D01*
X032566Y011832D02*
X032566Y011832D01*
X030696Y009963D01*
X027696Y009963D01*
X027546Y010113D01*
X028046Y010163D02*
X027546Y010663D01*
X028196Y010513D02*
X028346Y010363D01*
X030540Y010363D01*
X032288Y012111D01*
X032427Y011972D02*
X030619Y010163D01*
X028046Y010163D01*
X028646Y010763D02*
X028846Y010563D01*
X030183Y010563D01*
X032010Y012389D01*
X031871Y012528D02*
X031871Y012537D01*
X030246Y010913D01*
X029146Y010913D01*
X029546Y011263D02*
X030327Y011263D01*
X031731Y012668D01*
X031731Y012653D01*
X031734Y012650D01*
X031592Y012807D02*
X030548Y011763D01*
X029546Y011763D01*
X029446Y012213D02*
X028796Y011413D01*
X027796Y011413D01*
X027796Y011412D01*
X027791Y011407D01*
X027791Y011663D02*
X027792Y011663D01*
X028746Y011663D01*
X029396Y012463D01*
X030691Y012463D01*
X031314Y013085D01*
X031453Y012946D02*
X030720Y012213D01*
X029446Y012213D01*
X028646Y012763D02*
X028314Y012430D01*
X027791Y012430D01*
X027796Y012663D02*
X028246Y012663D01*
X028546Y012963D01*
X030635Y012963D01*
X031035Y013363D01*
X031174Y013224D02*
X030713Y012763D01*
X028646Y012763D01*
X027796Y012681D02*
X027791Y012686D01*
X027796Y012681D02*
X027796Y012663D01*
X027791Y013198D02*
X027806Y013213D01*
X030606Y013213D01*
X030896Y013503D01*
X030757Y013642D02*
X030578Y013463D01*
X027796Y013463D01*
X027796Y013459D01*
X027791Y013454D01*
X027791Y013710D02*
X028493Y013710D01*
X028696Y013963D01*
X028437Y014222D01*
X027791Y014222D01*
X028796Y015263D02*
X028302Y015757D01*
X027791Y015757D01*
X027791Y016013D02*
X028346Y016013D01*
X028896Y015463D01*
X030606Y015463D01*
X030896Y015173D01*
X030757Y015034D02*
X030528Y015263D01*
X028796Y015263D01*
X028996Y015663D02*
X028390Y016269D01*
X027791Y016269D01*
X026876Y017027D02*
X026876Y018080D01*
X026884Y018088D01*
X031322Y018088D01*
X032566Y016843D01*
X032427Y016707D02*
X032427Y016704D01*
X031369Y017763D01*
X031246Y017863D01*
X027796Y017863D01*
X027646Y017713D01*
X028046Y017413D02*
X028246Y017613D01*
X031246Y017613D01*
X032288Y016565D01*
X032288Y016534D01*
X032296Y016525D01*
X032149Y016426D02*
X031412Y017163D01*
X031196Y017363D01*
X028696Y017363D01*
X028546Y017263D01*
X028996Y017013D02*
X029777Y017013D01*
X029796Y016993D01*
X030496Y016263D01*
X031446Y016263D01*
X031731Y016008D01*
X031871Y016139D02*
X032196Y015813D01*
X032696Y015813D01*
X032146Y015313D02*
X031592Y015867D01*
X031592Y015869D01*
X031453Y015730D02*
X031096Y016063D01*
X029996Y016063D01*
X029396Y016663D01*
X029246Y015863D02*
X030763Y015863D01*
X031174Y015451D01*
X031035Y015312D02*
X030685Y015663D01*
X028996Y015663D01*
X031314Y015591D02*
X031596Y015258D01*
X031596Y014813D01*
X031146Y014313D02*
X031446Y014013D01*
X032596Y014013D01*
X031146Y014313D02*
X031146Y014310D01*
X030618Y013781D01*
X031871Y016139D02*
X031871Y016147D01*
X032010Y016287D02*
X031633Y016663D01*
X031296Y016663D01*
X032706Y016983D02*
X031413Y018275D01*
X026659Y018275D01*
X026620Y018237D01*
X026620Y017027D01*
X026108Y017027D02*
X026108Y017725D01*
X026296Y017913D01*
X025852Y018431D02*
X025884Y018463D01*
X031504Y018463D01*
X032845Y017122D01*
X033123Y017400D02*
X031873Y018650D01*
X025621Y018650D01*
X025596Y018626D01*
X025596Y017027D01*
X025341Y017027D02*
X025341Y018820D01*
X025359Y018838D01*
X031964Y018838D01*
X033262Y017539D01*
X033402Y017678D02*
X032055Y019025D01*
X025096Y019025D01*
X025085Y019014D01*
X025085Y017027D01*
X024829Y017027D02*
X024829Y017780D01*
X024696Y017913D01*
X023805Y017766D02*
X023662Y017910D01*
X023471Y017913D01*
X023196Y017913D01*
X023037Y017754D01*
X023037Y017027D01*
X022782Y017027D02*
X022782Y019573D01*
X022796Y019588D01*
X032328Y019588D01*
X033819Y018096D01*
X033680Y017957D02*
X032236Y019400D01*
X024109Y019400D01*
X024061Y019403D01*
X024061Y017027D01*
X023805Y017027D02*
X023805Y017766D01*
X024317Y017027D02*
X024317Y019209D01*
X024321Y019213D01*
X032146Y019213D01*
X033541Y017818D01*
X033958Y018235D02*
X032418Y019775D01*
X022534Y019775D01*
X022526Y019717D01*
X022526Y017027D01*
X022014Y017027D02*
X022014Y017780D01*
X022146Y017913D01*
X020734Y017825D02*
X020646Y017913D01*
X020734Y017825D02*
X020734Y017027D01*
X020990Y017027D02*
X020990Y020482D01*
X021034Y020525D01*
X033060Y020525D01*
X034654Y018931D01*
X034515Y018792D02*
X032969Y020338D01*
X021296Y020338D01*
X021246Y020288D01*
X021246Y017027D01*
X021502Y017027D02*
X021502Y020094D01*
X021509Y020150D01*
X032878Y020150D01*
X034376Y018653D01*
X034237Y018514D02*
X032787Y019963D01*
X021771Y019963D01*
X021758Y019949D01*
X021758Y017027D01*
X021996Y017063D02*
X022014Y017045D01*
X022014Y017027D01*
X020222Y017027D02*
X020222Y020676D01*
X020259Y020713D01*
X033430Y020713D01*
X034933Y019210D01*
X035072Y019349D02*
X033520Y020900D01*
X019996Y020900D01*
X019967Y020871D01*
X019967Y017027D01*
X019646Y016013D02*
X019051Y016013D01*
X019051Y015757D02*
X019602Y015757D01*
X019646Y015713D01*
X025602Y015707D01*
X025896Y015463D01*
X025696Y015113D02*
X026296Y015113D01*
X025896Y014763D02*
X025696Y014763D01*
X025214Y015245D01*
X019051Y015245D01*
X019051Y014989D02*
X025120Y014989D01*
X025696Y014413D01*
X026296Y014413D01*
X025896Y014063D02*
X025646Y014063D01*
X024976Y014734D01*
X019051Y014734D01*
X019051Y015501D02*
X025308Y015501D01*
X025696Y015113D01*
X026046Y015913D02*
X026296Y015813D01*
X026046Y015913D02*
X019746Y015913D01*
X019646Y016013D01*
X016046Y018763D02*
X016046Y005763D01*
X037446Y005763D01*
X037446Y008901D01*
X037021Y009327D01*
X037438Y009744D02*
X038446Y008736D01*
X039446Y009128D02*
X039446Y004363D01*
X014646Y004363D01*
X014646Y011763D01*
X012872Y011763D01*
X012872Y012263D01*
X011720Y012263D01*
X013620Y012263D02*
X014246Y012263D01*
X014246Y013263D02*
X013620Y013263D01*
X013620Y014263D02*
X014246Y014263D01*
X014246Y015263D02*
X013620Y015263D01*
X013620Y016163D02*
X013620Y016263D01*
X014246Y016263D01*
X014246Y017263D02*
X013620Y017263D01*
X013620Y018263D02*
X014246Y018263D01*
X014246Y019263D02*
X013620Y019263D01*
X012872Y019263D02*
X012872Y018763D01*
X016046Y018763D01*
X014246Y020263D02*
X013620Y020263D01*
X013620Y021263D02*
X014246Y021263D01*
X014246Y022263D02*
X013620Y022263D01*
X012872Y019263D02*
X011720Y019263D01*
X019051Y012942D02*
X019576Y012942D01*
X019896Y013263D01*
X026446Y013263D01*
X026446Y012313D01*
X026046Y011963D02*
X026046Y013063D01*
X019996Y013063D01*
X019620Y012686D01*
X019051Y012686D01*
X019051Y012430D02*
X019664Y012430D01*
X020096Y012863D01*
X025646Y012863D01*
X025646Y012313D01*
X025296Y012663D02*
X025296Y011913D01*
X024946Y012313D02*
X024796Y012463D01*
X020296Y012463D01*
X019752Y011919D01*
X019051Y011919D01*
X019051Y012174D02*
X019708Y012174D01*
X020196Y012663D01*
X025296Y012663D01*
X024596Y011913D02*
X024246Y012263D01*
X020396Y012263D01*
X019796Y011663D01*
X019051Y011663D01*
X019051Y011407D02*
X019840Y011407D01*
X020496Y012063D01*
X023896Y012063D01*
X024046Y011913D01*
X024829Y010649D02*
X024829Y009895D01*
X024696Y009763D01*
X026108Y009851D02*
X026108Y010649D01*
X026108Y009851D02*
X026196Y009763D01*
X020478Y011463D02*
X020446Y011463D01*
X014246Y011263D02*
X013620Y011263D01*
X025852Y017027D02*
X025852Y018431D01*
X034794Y019070D02*
X035346Y018518D01*
X035346Y018363D01*
X035646Y018963D02*
X035646Y019053D01*
X035211Y019488D01*
X035350Y019627D02*
X035046Y019931D01*
X035046Y021963D01*
X037296Y019903D02*
X036881Y019488D01*
X036046Y019363D02*
X035893Y019363D01*
X035489Y019766D01*
X038660Y016813D02*
X039109Y017261D01*
X039248Y017122D02*
X040521Y018395D01*
X040521Y020138D01*
X043346Y022963D01*
X043346Y022463D02*
X043672Y022463D01*
X043346Y022463D02*
X040746Y019863D01*
X040746Y018342D01*
X039387Y016983D01*
X038660Y016813D02*
X038646Y016813D01*
X041057Y015312D02*
X042708Y016963D01*
X042486Y016463D02*
X043672Y016463D01*
X044420Y016463D02*
X046546Y016463D01*
X046546Y017463D02*
X044420Y017463D01*
X044420Y018463D02*
X046546Y018463D01*
X046546Y019463D02*
X044420Y019463D01*
X044420Y020463D02*
X046546Y020463D01*
X046546Y021463D02*
X044420Y021463D01*
X044420Y022463D02*
X046546Y022463D01*
X046546Y023463D02*
X044420Y023463D01*
X042486Y016463D02*
X041196Y015173D01*
X038134Y010440D02*
X039446Y009128D01*
X036246Y009266D02*
X036046Y009463D01*
X035834Y032363D02*
X035834Y032387D01*
X035834Y033426D01*
X035834Y032387D02*
X035834Y032387D01*
X037146Y032387D02*
X037146Y032387D01*
X037146Y033426D01*
X038396Y033426D02*
X038396Y032387D01*
X034521Y032387D02*
X034521Y033414D01*
D35*
X051306Y033832D03*
X008012Y033832D03*
X008012Y003119D03*
X051306Y003119D03*
D36*
X039109Y011415D02*
X038260Y012263D01*
X038246Y012263D01*
X040246Y014163D02*
X040258Y014163D01*
X041057Y013363D01*
X039694Y015063D02*
X039646Y015063D01*
X039694Y015063D02*
X040501Y015869D01*
X035646Y018263D02*
X035601Y018263D01*
X034794Y019070D01*
X034098Y018375D02*
X034546Y017926D01*
X034546Y017863D01*
X033746Y016499D02*
X032984Y017261D01*
X033746Y016499D02*
X033746Y016363D01*
X030618Y014895D02*
X029728Y014895D01*
X029646Y014863D01*
X029246Y015863D02*
X028896Y016213D01*
X028896Y016313D01*
X027791Y015501D02*
X026946Y015501D01*
X026946Y015263D02*
X026946Y015245D01*
X027791Y015245D01*
X027791Y014989D02*
X026946Y014989D01*
X026946Y014963D01*
X026946Y014763D02*
X026946Y014734D01*
X027791Y014734D01*
X027791Y014478D02*
X026946Y014478D01*
X026946Y013966D02*
X027791Y013966D01*
X027791Y012942D02*
X026946Y012942D01*
X026946Y012663D01*
X026946Y012174D02*
X026946Y012163D01*
X026946Y012174D02*
X027791Y012174D01*
X027791Y011919D02*
X028502Y011919D01*
X028646Y012063D01*
X026364Y011463D02*
X026364Y011445D01*
X026346Y011463D01*
X026364Y011463D01*
X026364Y011445D02*
X026364Y010649D01*
X024573Y010649D02*
X024573Y011463D01*
X023346Y011463D02*
X023293Y011463D01*
X023293Y010649D01*
X022270Y010649D02*
X022270Y011463D01*
X020478Y011463D02*
X020478Y010649D01*
X019051Y013710D02*
X019048Y013713D01*
X017996Y013713D01*
X019051Y014222D02*
X019887Y014222D01*
X020046Y014063D01*
X019846Y016269D02*
X019051Y016269D01*
X018340Y016269D01*
X018246Y016363D01*
X019846Y016313D02*
X019846Y016269D01*
X020478Y016313D02*
X020496Y016313D01*
X020478Y016413D01*
X020478Y016313D02*
X020478Y017027D01*
X022270Y017027D02*
X022270Y016413D01*
X022296Y016313D01*
X023549Y016313D02*
X023549Y017027D01*
X024573Y017027D02*
X024573Y016413D01*
X024596Y016313D01*
X026364Y016313D02*
X026364Y017027D01*
X032149Y012250D02*
X032862Y012963D01*
X033046Y012963D01*
X033254Y011963D02*
X033446Y011963D01*
X033446Y011877D01*
X032984Y011415D01*
X032845Y011554D02*
X033254Y011963D01*
X036046Y009463D02*
X036050Y009463D01*
X036603Y008909D01*
D37*
X036046Y009813D03*
X034796Y010663D03*
X033446Y011963D03*
X031146Y014313D03*
X029646Y014863D03*
X028696Y013963D03*
X026946Y012663D03*
X026446Y012313D03*
X026046Y011963D03*
X025646Y012313D03*
X025296Y011913D03*
X024946Y012313D03*
X024596Y011913D03*
X024046Y011913D03*
X025896Y014063D03*
X026296Y014413D03*
X025896Y014763D03*
X026296Y015113D03*
X025896Y015463D03*
X026296Y015813D03*
X028046Y017413D03*
X027646Y017713D03*
X028546Y017263D03*
X028996Y017013D03*
X029396Y016663D03*
X028896Y016313D03*
X031296Y016663D03*
X034546Y017863D03*
X035646Y018963D03*
X036196Y018663D03*
X037196Y018363D03*
X038646Y016813D03*
X037301Y015078D03*
X037301Y013566D03*
X040596Y014363D03*
X041996Y013663D03*
X043496Y014813D03*
X047546Y015463D03*
X049496Y014763D03*
X048746Y012963D03*
X039046Y010413D03*
X038046Y008563D03*
X035246Y008413D03*
X029546Y011263D03*
X029546Y011763D03*
X029146Y010913D03*
X028646Y010763D03*
X028196Y010513D03*
X027546Y010663D03*
X027546Y010113D03*
X026196Y009763D03*
X024696Y009763D03*
X023696Y009763D03*
X022196Y009763D03*
X020596Y009763D03*
X019046Y010263D03*
X019046Y010763D03*
X020446Y011463D03*
X020946Y011463D03*
X020046Y014063D03*
X017996Y013713D03*
X017849Y016035D03*
X020646Y017913D03*
X022146Y017913D03*
X023196Y017913D03*
X024696Y017913D03*
X026296Y017913D03*
X023896Y016313D03*
X028646Y012063D03*
X036546Y020313D03*
X048646Y026963D03*
X042646Y034963D03*
X033296Y029613D03*
X020846Y028563D03*
X019146Y031063D03*
X019146Y032163D03*
X014246Y022263D03*
X014246Y021263D03*
X014246Y020263D03*
X014246Y019263D03*
X014246Y018263D03*
X014246Y017263D03*
X014246Y016263D03*
X014246Y015263D03*
X014246Y014263D03*
X014246Y013263D03*
X014246Y012263D03*
X014246Y011263D03*
X042846Y003963D03*
D38*
X042796Y003963D01*
X042846Y003963D02*
X043495Y003963D01*
X042914Y004556D02*
X042878Y004520D01*
X042736Y004520D01*
X042639Y004480D01*
X042582Y004480D01*
X042542Y004440D01*
X042531Y004435D01*
X042374Y004278D01*
X042370Y004267D01*
X042279Y004177D01*
X042279Y003749D01*
X042370Y003659D01*
X042374Y003647D01*
X042531Y003491D01*
X042542Y003486D01*
X042582Y003446D01*
X042639Y003446D01*
X042736Y003406D01*
X042878Y003406D01*
X043032Y003252D01*
X043958Y003252D01*
X044115Y003409D01*
X044175Y003349D01*
X044597Y003349D01*
X044597Y003962D01*
X044598Y003962D01*
X044598Y003349D01*
X045020Y003349D01*
X045172Y003501D01*
X045172Y003963D01*
X045172Y004425D01*
X045041Y004556D01*
X046053Y004556D01*
X046283Y004326D01*
X046810Y004326D01*
X047115Y004631D01*
X047323Y004423D01*
X047546Y004423D01*
X047546Y004962D01*
X047546Y004962D01*
X047546Y004423D01*
X047770Y004423D01*
X048086Y004739D01*
X048086Y004963D01*
X048086Y005056D01*
X048178Y005056D01*
X048439Y004794D01*
X048678Y004556D01*
X049060Y004556D01*
X049060Y004500D01*
X049269Y004291D01*
X050017Y004291D01*
X050824Y004291D01*
X051033Y004500D01*
X051033Y004556D01*
X051053Y004556D01*
X051283Y004326D01*
X051810Y004326D01*
X052115Y004631D01*
X052323Y004423D01*
X052546Y004423D01*
X052546Y004962D01*
X052546Y004962D01*
X052546Y004423D01*
X052770Y004423D01*
X053086Y004739D01*
X053086Y004963D01*
X053086Y005186D01*
X052878Y005394D01*
X053183Y005699D01*
X053183Y006227D01*
X052947Y006463D01*
X053183Y006699D01*
X053183Y007227D01*
X052947Y007463D01*
X053183Y007699D01*
X053183Y008227D01*
X052947Y008463D01*
X053183Y008699D01*
X053183Y009227D01*
X052947Y009463D01*
X053183Y009699D01*
X053183Y010227D01*
X052947Y010463D01*
X053183Y010699D01*
X053183Y011227D01*
X052947Y011463D01*
X053183Y011699D01*
X053183Y012227D01*
X052810Y012600D01*
X052283Y012600D01*
X052046Y012363D01*
X051810Y012600D01*
X051283Y012600D01*
X051053Y012370D01*
X051041Y012370D01*
X051172Y012501D01*
X051172Y012963D01*
X051172Y013425D01*
X051020Y013577D01*
X050598Y013577D01*
X050598Y012963D01*
X051172Y012963D01*
X050598Y012963D01*
X050598Y012963D01*
X050597Y012963D01*
X050597Y013577D01*
X050175Y013577D01*
X050115Y013517D01*
X049958Y013674D01*
X049032Y013674D01*
X048872Y013514D01*
X048857Y013520D01*
X048636Y013520D01*
X048539Y013480D01*
X048532Y013480D01*
X048527Y013475D01*
X048431Y013435D01*
X048274Y013278D01*
X048234Y013182D01*
X048229Y013177D01*
X048229Y013170D01*
X048189Y013074D01*
X048189Y012870D01*
X048178Y012870D01*
X042683Y012870D01*
X042337Y013216D01*
X042468Y013347D01*
X042553Y013552D01*
X042553Y013774D01*
X042468Y013978D01*
X042312Y014135D01*
X042107Y014220D01*
X041886Y014220D01*
X041711Y014147D01*
X041627Y014231D01*
X041623Y014235D01*
X041520Y014338D01*
X041623Y014441D01*
X041629Y014447D01*
X041733Y014551D01*
X041902Y014720D01*
X042039Y014857D01*
X042039Y015162D01*
X042433Y015556D01*
X042823Y015556D01*
X042823Y014961D01*
X042939Y014845D01*
X042939Y014702D01*
X043024Y014497D01*
X043181Y014341D01*
X043386Y014256D01*
X043607Y014256D01*
X043812Y014341D01*
X043968Y014497D01*
X044053Y014702D01*
X044053Y014847D01*
X044115Y014909D01*
X044175Y014849D01*
X044597Y014849D01*
X044597Y015462D01*
X044598Y015462D01*
X044598Y014849D01*
X045020Y014849D01*
X045172Y015001D01*
X045172Y015463D01*
X045172Y015556D01*
X047678Y015556D01*
X048015Y015556D01*
X048515Y016056D01*
X048914Y016056D01*
X048823Y015965D01*
X048823Y014961D01*
X048939Y014845D01*
X048939Y014652D01*
X048979Y014555D01*
X048979Y014549D01*
X048984Y014544D01*
X049024Y014447D01*
X049181Y014291D01*
X049277Y014251D01*
X049282Y014246D01*
X049289Y014246D01*
X049386Y014206D01*
X049607Y014206D01*
X049704Y014246D01*
X049710Y014246D01*
X049715Y014251D01*
X049812Y014291D01*
X049968Y014447D01*
X050008Y014544D01*
X050013Y014549D01*
X050013Y014555D01*
X050053Y014652D01*
X050053Y014847D01*
X050115Y014909D01*
X050175Y014849D01*
X050597Y014849D01*
X050597Y015462D01*
X050598Y015462D01*
X050598Y014849D01*
X051020Y014849D01*
X051172Y015001D01*
X051172Y015463D01*
X051172Y015925D01*
X051041Y016056D01*
X051053Y016056D01*
X051283Y015826D01*
X051810Y015826D01*
X052115Y016131D01*
X052323Y015923D01*
X052546Y015923D01*
X052546Y016462D01*
X052546Y016462D01*
X052546Y015923D01*
X052770Y015923D01*
X053086Y016239D01*
X053086Y016463D01*
X053086Y016686D01*
X052878Y016894D01*
X053183Y017199D01*
X053183Y017727D01*
X052947Y017963D01*
X053183Y018199D01*
X053183Y018727D01*
X052947Y018963D01*
X053183Y019199D01*
X053183Y019727D01*
X052947Y019963D01*
X053183Y020199D01*
X053183Y020727D01*
X052947Y020963D01*
X053183Y021199D01*
X053183Y021727D01*
X052947Y021963D01*
X053183Y022199D01*
X053183Y022727D01*
X052947Y022963D01*
X053183Y023199D01*
X053183Y023727D01*
X052810Y024100D01*
X052283Y024100D01*
X052046Y023863D01*
X051810Y024100D01*
X051283Y024100D01*
X051053Y023870D01*
X051033Y023870D01*
X051033Y023926D01*
X050824Y024135D01*
X050076Y024135D01*
X049269Y024135D01*
X049060Y023926D01*
X049060Y023870D01*
X048178Y023870D01*
X048109Y023801D01*
X047810Y024100D01*
X047283Y024100D01*
X047046Y023863D01*
X046810Y024100D01*
X046283Y024100D01*
X046053Y023870D01*
X045033Y023870D01*
X045033Y023926D01*
X044824Y024135D01*
X044017Y024135D01*
X043269Y024135D01*
X043060Y023926D01*
X043060Y023751D01*
X042939Y023631D01*
X040478Y021170D01*
X040478Y024094D01*
X043440Y027056D01*
X046878Y027056D01*
X047215Y027056D01*
X047485Y027326D01*
X047810Y027326D01*
X048040Y027556D01*
X048914Y027556D01*
X048843Y027484D01*
X048757Y027520D01*
X048536Y027520D01*
X048439Y027480D01*
X048432Y027480D01*
X048427Y027475D01*
X048331Y027435D01*
X048174Y027278D01*
X048134Y027182D01*
X048129Y027177D01*
X048129Y027170D01*
X048089Y027074D01*
X048089Y026852D01*
X048129Y026755D01*
X048129Y026749D01*
X048134Y026744D01*
X048174Y026647D01*
X048331Y026491D01*
X048427Y026451D01*
X048432Y026446D01*
X048439Y026446D01*
X048536Y026406D01*
X048757Y026406D01*
X048843Y026441D01*
X049032Y026252D01*
X049958Y026252D01*
X050115Y026409D01*
X050175Y026349D01*
X050597Y026349D01*
X050597Y026962D01*
X050598Y026962D01*
X050598Y026349D01*
X051020Y026349D01*
X051172Y026501D01*
X051172Y026963D01*
X051172Y027425D01*
X051041Y027556D01*
X051053Y027556D01*
X051283Y027326D01*
X051810Y027326D01*
X052115Y027631D01*
X052323Y027423D01*
X052546Y027423D01*
X052546Y027962D01*
X052546Y027962D01*
X052546Y027423D01*
X052770Y027423D01*
X053086Y027739D01*
X053086Y027963D01*
X053086Y028186D01*
X052878Y028394D01*
X053183Y028699D01*
X053183Y029227D01*
X052947Y029463D01*
X053183Y029699D01*
X053183Y030227D01*
X052947Y030463D01*
X053183Y030699D01*
X053183Y031227D01*
X052947Y031463D01*
X053183Y031699D01*
X053183Y032227D01*
X052810Y032600D01*
X052283Y032600D01*
X052046Y032363D01*
X051810Y032600D01*
X051283Y032600D01*
X051053Y032370D01*
X051033Y032370D01*
X051033Y032426D01*
X050824Y032635D01*
X050017Y032635D01*
X049269Y032635D01*
X049060Y032426D01*
X049060Y032370D01*
X048040Y032370D01*
X047947Y032463D01*
X048183Y032699D01*
X048183Y033227D01*
X047947Y033463D01*
X048183Y033699D01*
X048183Y034227D01*
X047878Y034531D01*
X048086Y034739D01*
X048086Y034963D01*
X048086Y035186D01*
X047770Y035503D01*
X047546Y035503D01*
X047323Y035503D01*
X047046Y035226D01*
X046770Y035503D01*
X046546Y035503D01*
X046323Y035503D01*
X046006Y035186D01*
X046006Y034963D01*
X046546Y034963D01*
X046546Y034963D01*
X046546Y035503D01*
X046546Y034963D01*
X046546Y034963D01*
X046006Y034963D01*
X046006Y034739D01*
X046214Y034531D01*
X045909Y034227D01*
X045909Y033901D01*
X045231Y033223D01*
X043416Y033223D01*
X043079Y033223D01*
X043076Y033220D01*
X042961Y033220D01*
X042722Y032981D01*
X037903Y028162D01*
X037903Y030056D01*
X038228Y030056D01*
X038565Y030056D01*
X038803Y030294D01*
X038803Y030495D01*
X038898Y030495D01*
X039107Y030704D01*
X039107Y031472D01*
X038898Y031681D01*
X037894Y031681D01*
X037771Y031558D01*
X037648Y031681D01*
X036644Y031681D01*
X036490Y031527D01*
X036336Y031681D01*
X035332Y031681D01*
X035178Y031527D01*
X035023Y031681D01*
X034019Y031681D01*
X033810Y031472D01*
X033810Y030704D01*
X033892Y030622D01*
X033595Y030324D01*
X033482Y030324D01*
X033328Y030170D01*
X033186Y030170D01*
X032981Y030085D01*
X032824Y029928D01*
X032739Y029724D01*
X032739Y029502D01*
X032824Y029297D01*
X032981Y029141D01*
X033186Y029056D01*
X033328Y029056D01*
X033482Y028902D01*
X034408Y028902D01*
X034565Y029059D01*
X034625Y028999D01*
X035047Y028999D01*
X035047Y029612D01*
X035048Y029612D01*
X035048Y028999D01*
X035470Y028999D01*
X035622Y029151D01*
X035622Y029613D01*
X035622Y030075D01*
X035470Y030227D01*
X035048Y030227D01*
X035048Y029613D01*
X035622Y029613D01*
X035048Y029613D01*
X035048Y029613D01*
X035047Y029613D01*
X035047Y030227D01*
X034648Y030227D01*
X034690Y030269D01*
X034916Y030495D01*
X035023Y030495D01*
X035178Y030649D01*
X035332Y030495D01*
X035427Y030495D01*
X035427Y030294D01*
X035665Y030056D01*
X036002Y030056D01*
X036689Y030056D01*
X036689Y020856D01*
X036657Y020870D01*
X036436Y020870D01*
X036231Y020785D01*
X036074Y020628D01*
X035989Y020424D01*
X035989Y020202D01*
X036074Y019997D01*
X036139Y019932D01*
X036139Y019905D01*
X036046Y019812D01*
X035833Y020025D01*
X035665Y020193D01*
X035527Y020331D01*
X035453Y020331D01*
X035453Y021497D01*
X035569Y021613D01*
X035663Y021840D01*
X035663Y022086D01*
X035569Y022312D01*
X035396Y022486D01*
X035169Y022580D01*
X035104Y022580D01*
X035097Y022587D01*
X035097Y022965D01*
X034888Y023174D01*
X033805Y023174D01*
X033596Y022965D01*
X033596Y021961D01*
X033805Y021752D01*
X034466Y021752D01*
X034523Y021613D01*
X034639Y021497D01*
X034639Y020357D01*
X033927Y021069D01*
X033689Y021307D01*
X019828Y021307D01*
X019589Y021069D01*
X019560Y021039D01*
X019560Y020702D01*
X019560Y018052D01*
X019361Y018051D01*
X019361Y017615D01*
X019275Y017529D01*
X019275Y016608D01*
X019051Y016608D01*
X018589Y016608D01*
X018437Y016455D01*
X018437Y016336D01*
X018349Y016249D01*
X018346Y016249D01*
X018346Y016246D01*
X018340Y016240D01*
X018340Y015984D01*
X018340Y015728D01*
X018340Y015472D01*
X018340Y015216D01*
X018340Y014960D01*
X018340Y014704D01*
X018340Y014448D01*
X018340Y014192D01*
X018340Y013739D01*
X018350Y013730D01*
X018350Y013690D01*
X018340Y013681D01*
X018340Y013425D01*
X018340Y013169D01*
X018340Y012913D01*
X018340Y012657D01*
X018340Y012401D01*
X018340Y012145D01*
X018340Y011889D01*
X018340Y011633D01*
X018340Y011180D01*
X018353Y011167D01*
X018353Y011046D01*
X018474Y011046D01*
X018549Y010971D01*
X019275Y010971D01*
X019275Y010147D01*
X019484Y009938D01*
X019560Y009938D01*
X019560Y008861D01*
X019560Y008524D01*
X020765Y007319D01*
X020765Y007063D01*
X017146Y007063D01*
X017146Y029258D01*
X018588Y029258D01*
X018588Y029230D01*
X018473Y029115D01*
X018473Y028111D01*
X018682Y027902D01*
X019608Y027902D01*
X019696Y027990D01*
X019785Y027902D01*
X020710Y027902D01*
X020815Y028006D01*
X020957Y028006D01*
X021077Y028006D01*
X021162Y028091D01*
X021318Y028247D01*
X021403Y028332D01*
X021403Y028452D01*
X021403Y028674D01*
X021403Y028793D01*
X021318Y028878D01*
X021162Y029035D01*
X021077Y029120D01*
X020957Y029120D01*
X020915Y029120D01*
X020710Y029324D01*
X019785Y029324D01*
X019702Y029241D01*
X019702Y029344D01*
X019828Y029471D01*
X019828Y030160D01*
X019619Y030369D01*
X019390Y030369D01*
X019387Y030372D01*
X018926Y030372D01*
X017146Y030372D01*
X017146Y035943D01*
X054006Y035943D01*
X054006Y001003D01*
X030146Y001003D01*
X030146Y001806D01*
X030475Y001806D01*
X030682Y001806D01*
X030685Y001809D01*
X030687Y001806D01*
X030894Y001806D01*
X031101Y001806D01*
X031430Y001806D01*
X031433Y001809D01*
X031435Y001806D01*
X032074Y001806D01*
X032077Y001809D01*
X032080Y001806D01*
X032390Y001806D01*
X032719Y001806D01*
X033047Y001806D01*
X033588Y001806D01*
X034330Y001806D01*
X034563Y002038D01*
X034563Y002367D01*
X034520Y002410D01*
X034563Y002452D01*
X034563Y002781D01*
X034330Y003013D01*
X034001Y003013D01*
X033588Y003013D01*
X033375Y003013D01*
X033047Y003013D01*
X032930Y002897D01*
X032928Y002895D01*
X032883Y002849D01*
X032719Y003013D01*
X032390Y003013D01*
X032348Y002971D01*
X032305Y003013D01*
X031976Y003013D01*
X031764Y003013D01*
X031435Y003013D01*
X031381Y002959D01*
X031326Y003013D01*
X030998Y003013D01*
X030889Y003013D01*
X030785Y003117D01*
X030682Y003220D01*
X030353Y003220D01*
X030146Y003220D01*
X030146Y003756D01*
X039815Y003756D01*
X040053Y003994D01*
X040053Y004331D01*
X040053Y004556D01*
X042914Y004556D01*
X042698Y004504D02*
X040053Y004504D01*
X040053Y004185D02*
X042288Y004185D01*
X042279Y003867D02*
X039926Y003867D01*
X042473Y003548D02*
X030146Y003548D01*
X030146Y003230D02*
X050099Y003230D01*
X050099Y003359D02*
X050283Y003803D01*
X050622Y004142D01*
X051066Y004326D01*
X051546Y004326D01*
X051989Y004142D01*
X052329Y003803D01*
X052512Y003359D01*
X052512Y002879D01*
X052329Y002436D01*
X051989Y002096D01*
X051546Y001913D01*
X051066Y001913D01*
X050622Y002096D01*
X050283Y002436D01*
X050099Y002879D01*
X050099Y003359D01*
X050178Y003548D02*
X045172Y003548D01*
X045172Y003867D02*
X050347Y003867D01*
X050727Y004185D02*
X045172Y004185D01*
X045172Y003963D02*
X044598Y003963D01*
X044598Y003963D01*
X045172Y003963D01*
X045093Y004504D02*
X046105Y004504D01*
X046988Y004504D02*
X047242Y004504D01*
X047546Y004504D02*
X047546Y004504D01*
X047851Y004504D02*
X049060Y004504D01*
X048411Y004822D02*
X048086Y004822D01*
X048086Y004963D02*
X047547Y004963D01*
X048086Y004963D01*
X047547Y004963D02*
X047547Y004963D01*
X047546Y004822D02*
X047546Y004822D01*
X044598Y003867D02*
X044597Y003867D01*
X044597Y003548D02*
X044598Y003548D01*
X050099Y002911D02*
X034432Y002911D01*
X034563Y002593D02*
X050218Y002593D01*
X050445Y002274D02*
X034563Y002274D01*
X034480Y001956D02*
X050962Y001956D01*
X051649Y001956D02*
X054006Y001956D01*
X054006Y002274D02*
X052167Y002274D01*
X052393Y002593D02*
X054006Y002593D01*
X054006Y002911D02*
X052512Y002911D01*
X052512Y003230D02*
X054006Y003230D01*
X054006Y003548D02*
X052434Y003548D01*
X052264Y003867D02*
X054006Y003867D01*
X054006Y004185D02*
X051884Y004185D01*
X051988Y004504D02*
X052242Y004504D01*
X052546Y004504D02*
X052546Y004504D01*
X052851Y004504D02*
X054006Y004504D01*
X054006Y004822D02*
X053086Y004822D01*
X053086Y004963D02*
X052547Y004963D01*
X053086Y004963D01*
X053086Y005141D02*
X054006Y005141D01*
X054006Y005460D02*
X052944Y005460D01*
X053183Y005778D02*
X054006Y005778D01*
X054006Y006097D02*
X053183Y006097D01*
X052995Y006415D02*
X054006Y006415D01*
X054006Y006734D02*
X053183Y006734D01*
X053183Y007052D02*
X054006Y007052D01*
X054006Y007371D02*
X053039Y007371D01*
X053173Y007689D02*
X054006Y007689D01*
X054006Y008008D02*
X053183Y008008D01*
X053083Y008326D02*
X054006Y008326D01*
X054006Y008645D02*
X053129Y008645D01*
X053183Y008964D02*
X054006Y008964D01*
X054006Y009282D02*
X053128Y009282D01*
X053085Y009601D02*
X054006Y009601D01*
X054006Y009919D02*
X053183Y009919D01*
X053172Y010238D02*
X054006Y010238D01*
X054006Y010556D02*
X053040Y010556D01*
X053183Y010875D02*
X054006Y010875D01*
X054006Y011193D02*
X053183Y011193D01*
X052996Y011512D02*
X054006Y011512D01*
X054006Y011830D02*
X053183Y011830D01*
X053183Y012149D02*
X054006Y012149D01*
X054006Y012467D02*
X052942Y012467D01*
X052150Y012467D02*
X051942Y012467D01*
X051150Y012467D02*
X051139Y012467D01*
X051172Y012786D02*
X054006Y012786D01*
X054006Y013105D02*
X051172Y013105D01*
X051172Y013423D02*
X054006Y013423D01*
X054006Y013742D02*
X042553Y013742D01*
X042500Y013423D02*
X048419Y013423D01*
X048202Y013105D02*
X042448Y013105D01*
X042386Y014060D02*
X054006Y014060D01*
X054006Y014379D02*
X049900Y014379D01*
X050053Y014697D02*
X054006Y014697D01*
X054006Y015016D02*
X051172Y015016D01*
X051172Y015334D02*
X054006Y015334D01*
X054006Y015653D02*
X051172Y015653D01*
X051172Y015463D02*
X050598Y015463D01*
X050598Y015463D01*
X051172Y015463D01*
X050598Y015334D02*
X050597Y015334D01*
X050597Y015016D02*
X050598Y015016D01*
X049496Y014763D02*
X049496Y015462D01*
X049495Y015463D01*
X048823Y015334D02*
X045172Y015334D01*
X045172Y015463D02*
X044598Y015463D01*
X045172Y015463D01*
X045172Y015016D02*
X048823Y015016D01*
X048939Y014697D02*
X044051Y014697D01*
X043850Y014379D02*
X049093Y014379D01*
X050597Y013423D02*
X050598Y013423D01*
X050597Y013105D02*
X050598Y013105D01*
X049495Y012963D02*
X048746Y012963D01*
X048823Y015653D02*
X048112Y015653D01*
X048430Y015971D02*
X048830Y015971D01*
X051126Y015971D02*
X051137Y015971D01*
X051955Y015971D02*
X052274Y015971D01*
X052546Y015971D02*
X052546Y015971D01*
X052819Y015971D02*
X054006Y015971D01*
X054006Y016290D02*
X053086Y016290D01*
X053086Y016463D02*
X052547Y016463D01*
X053086Y016463D01*
X053086Y016609D02*
X054006Y016609D01*
X054006Y016927D02*
X052911Y016927D01*
X053183Y017246D02*
X054006Y017246D01*
X054006Y017564D02*
X053183Y017564D01*
X053027Y017883D02*
X054006Y017883D01*
X054006Y018201D02*
X053183Y018201D01*
X053183Y018520D02*
X054006Y018520D01*
X054006Y018838D02*
X053071Y018838D01*
X053141Y019157D02*
X054006Y019157D01*
X054006Y019475D02*
X053183Y019475D01*
X053116Y019794D02*
X054006Y019794D01*
X054006Y020113D02*
X053097Y020113D01*
X053183Y020431D02*
X054006Y020431D01*
X054006Y020750D02*
X053160Y020750D01*
X053052Y021068D02*
X054006Y021068D01*
X054006Y021387D02*
X053183Y021387D01*
X053183Y021705D02*
X054006Y021705D01*
X054006Y022024D02*
X053008Y022024D01*
X053183Y022342D02*
X054006Y022342D01*
X054006Y022661D02*
X053183Y022661D01*
X052963Y022979D02*
X054006Y022979D01*
X054006Y023298D02*
X053183Y023298D01*
X053183Y023616D02*
X054006Y023616D01*
X054006Y023935D02*
X052975Y023935D01*
X052118Y023935D02*
X051975Y023935D01*
X051118Y023935D02*
X051024Y023935D01*
X049069Y023935D02*
X047975Y023935D01*
X047118Y023935D02*
X046975Y023935D01*
X046118Y023935D02*
X045024Y023935D01*
X043069Y023935D02*
X040478Y023935D01*
X040478Y023616D02*
X042925Y023616D01*
X042606Y023298D02*
X040478Y023298D01*
X040478Y022979D02*
X042288Y022979D01*
X041969Y022661D02*
X040478Y022661D01*
X040478Y022342D02*
X041650Y022342D01*
X041332Y022024D02*
X040478Y022024D01*
X040478Y021705D02*
X041013Y021705D01*
X040695Y021387D02*
X040478Y021387D01*
X040637Y024254D02*
X054006Y024254D01*
X054006Y024572D02*
X040956Y024572D01*
X041274Y024891D02*
X054006Y024891D01*
X054006Y025209D02*
X041593Y025209D01*
X041912Y025528D02*
X054006Y025528D01*
X054006Y025846D02*
X042230Y025846D01*
X042549Y026165D02*
X054006Y026165D01*
X054006Y026483D02*
X051155Y026483D01*
X051172Y026802D02*
X054006Y026802D01*
X054006Y027120D02*
X051172Y027120D01*
X051172Y026963D02*
X050598Y026963D01*
X050598Y026963D01*
X051172Y026963D01*
X050598Y026802D02*
X050597Y026802D01*
X050597Y026483D02*
X050598Y026483D01*
X049495Y026963D02*
X048646Y026963D01*
X048110Y026802D02*
X043186Y026802D01*
X042867Y026483D02*
X048349Y026483D01*
X048109Y027120D02*
X047279Y027120D01*
X047923Y027439D02*
X048341Y027439D01*
X051158Y027439D02*
X051169Y027439D01*
X051923Y027439D02*
X052306Y027439D01*
X052546Y027439D02*
X052546Y027439D01*
X052786Y027439D02*
X054006Y027439D01*
X054006Y027758D02*
X053086Y027758D01*
X053086Y027963D02*
X052547Y027963D01*
X053086Y027963D01*
X053086Y028076D02*
X054006Y028076D01*
X054006Y028395D02*
X052879Y028395D01*
X053183Y028713D02*
X054006Y028713D01*
X054006Y029032D02*
X053183Y029032D01*
X053059Y029350D02*
X054006Y029350D01*
X054006Y029669D02*
X053153Y029669D01*
X053183Y029987D02*
X054006Y029987D01*
X054006Y030306D02*
X053104Y030306D01*
X053108Y030624D02*
X054006Y030624D01*
X054006Y030943D02*
X053183Y030943D01*
X053148Y031262D02*
X054006Y031262D01*
X054006Y031580D02*
X053064Y031580D01*
X053183Y031899D02*
X054006Y031899D01*
X054006Y032217D02*
X053183Y032217D01*
X052874Y032536D02*
X054006Y032536D01*
X054006Y032854D02*
X052035Y032854D01*
X051989Y032809D02*
X052329Y033148D01*
X052512Y033592D01*
X052512Y034071D01*
X052329Y034515D01*
X051989Y034854D01*
X051546Y035038D01*
X051066Y035038D01*
X050622Y034854D01*
X050283Y034515D01*
X050099Y034071D01*
X050099Y033592D01*
X050283Y033148D01*
X050622Y032809D01*
X051066Y032625D01*
X051546Y032625D01*
X051989Y032809D01*
X051874Y032536D02*
X052219Y032536D01*
X052339Y033173D02*
X054006Y033173D01*
X054006Y033491D02*
X052471Y033491D01*
X052512Y033810D02*
X054006Y033810D01*
X054006Y034128D02*
X052489Y034128D01*
X052357Y034447D02*
X054006Y034447D01*
X054006Y034766D02*
X052078Y034766D01*
X050534Y034766D02*
X048086Y034766D01*
X048086Y034963D02*
X047547Y034963D01*
X048086Y034963D01*
X048086Y035084D02*
X054006Y035084D01*
X054006Y035403D02*
X047870Y035403D01*
X047546Y035403D02*
X047546Y035403D01*
X047546Y035503D02*
X047546Y034963D01*
X047546Y034963D01*
X047006Y034963D01*
X046547Y034963D01*
X046547Y034963D01*
X047006Y034963D01*
X047546Y034963D01*
X047546Y034963D01*
X047546Y035503D01*
X047222Y035403D02*
X046870Y035403D01*
X046546Y035403D02*
X046546Y035403D01*
X046546Y035084D02*
X046546Y035084D01*
X046546Y034962D02*
X046546Y034600D01*
X046546Y034600D01*
X046546Y034962D01*
X046546Y034962D01*
X046546Y034766D02*
X046546Y034766D01*
X046130Y034447D02*
X044919Y034447D01*
X044972Y034501D02*
X044972Y034963D01*
X044972Y035425D01*
X044820Y035577D01*
X044398Y035577D01*
X044398Y034963D01*
X044972Y034963D01*
X044398Y034963D01*
X044398Y034963D01*
X044397Y034963D01*
X044397Y035577D01*
X043975Y035577D01*
X043915Y035517D01*
X043758Y035674D01*
X042832Y035674D01*
X042678Y035520D01*
X042536Y035520D01*
X042439Y035480D01*
X042432Y035480D01*
X042427Y035475D01*
X042331Y035435D01*
X042174Y035278D01*
X042134Y035182D01*
X042129Y035177D01*
X042129Y035170D01*
X042089Y035074D01*
X042089Y034852D01*
X042129Y034755D01*
X042129Y034749D01*
X042134Y034744D01*
X042174Y034647D01*
X042331Y034491D01*
X042427Y034451D01*
X042432Y034446D01*
X042439Y034446D01*
X042536Y034406D01*
X042678Y034406D01*
X042832Y034252D01*
X043758Y034252D01*
X043915Y034409D01*
X043975Y034349D01*
X044397Y034349D01*
X044397Y034962D01*
X044398Y034962D01*
X044398Y034349D01*
X044820Y034349D01*
X044972Y034501D01*
X044972Y034766D02*
X046006Y034766D01*
X046006Y035084D02*
X044972Y035084D01*
X044972Y035403D02*
X046222Y035403D01*
X047546Y035084D02*
X047546Y035084D01*
X047547Y034963D02*
X047547Y034963D01*
X047963Y034447D02*
X050255Y034447D01*
X050123Y034128D02*
X048183Y034128D01*
X048183Y033810D02*
X050099Y033810D01*
X050141Y033491D02*
X047975Y033491D01*
X048183Y033173D02*
X050273Y033173D01*
X050577Y032854D02*
X048183Y032854D01*
X048020Y032536D02*
X049170Y032536D01*
X050923Y032536D02*
X051219Y032536D01*
X054006Y035721D02*
X017146Y035721D01*
X017146Y035403D02*
X042299Y035403D01*
X042094Y035084D02*
X017146Y035084D01*
X017146Y034766D02*
X042125Y034766D01*
X042431Y034447D02*
X038971Y034447D01*
X038971Y034538D02*
X038819Y034690D01*
X038396Y034690D01*
X037974Y034690D01*
X037821Y034538D01*
X037821Y034175D01*
X038396Y034175D01*
X038396Y034690D01*
X038396Y034175D01*
X038396Y034175D01*
X038396Y034174D01*
X037821Y034174D01*
X037821Y033927D01*
X037771Y033877D01*
X037721Y033927D01*
X037721Y034174D01*
X037147Y034174D01*
X037147Y034175D01*
X037721Y034175D01*
X037721Y034538D01*
X037569Y034690D01*
X037146Y034690D01*
X036724Y034690D01*
X036571Y034538D01*
X036571Y034175D01*
X037146Y034175D01*
X037146Y034690D01*
X037146Y034175D01*
X037146Y034175D01*
X037146Y034174D01*
X036571Y034174D01*
X036571Y033927D01*
X036490Y033846D01*
X036409Y033927D01*
X036409Y034174D01*
X035834Y034174D01*
X035834Y034175D01*
X035834Y034175D01*
X035834Y034690D01*
X036256Y034690D01*
X036409Y034538D01*
X036409Y034175D01*
X035834Y034175D01*
X035834Y034690D01*
X035411Y034690D01*
X035259Y034538D01*
X035259Y034175D01*
X035833Y034175D01*
X035833Y034174D01*
X035259Y034174D01*
X035259Y033927D01*
X035171Y033839D01*
X035096Y033914D01*
X035096Y034162D01*
X035096Y034525D01*
X034944Y034678D01*
X034521Y034678D01*
X034099Y034678D01*
X033946Y034525D01*
X033946Y034162D01*
X034521Y034162D01*
X034521Y034162D01*
X034521Y034678D01*
X034521Y034162D01*
X034521Y034162D01*
X033946Y034162D01*
X033946Y033914D01*
X033849Y033818D01*
X033849Y033010D01*
X033949Y032910D01*
X033810Y032771D01*
X033810Y032003D01*
X034019Y031794D01*
X035023Y031794D01*
X035178Y031949D01*
X035332Y031794D01*
X036336Y031794D01*
X036490Y031948D01*
X036644Y031794D01*
X037648Y031794D01*
X037771Y031917D01*
X037894Y031794D01*
X038898Y031794D01*
X039107Y032003D01*
X039107Y032771D01*
X038962Y032917D01*
X039068Y033023D01*
X039068Y033830D01*
X038971Y033927D01*
X038971Y034174D01*
X038397Y034174D01*
X038397Y034175D01*
X038971Y034175D01*
X038971Y034538D01*
X038971Y034128D02*
X045909Y034128D01*
X045818Y033810D02*
X039068Y033810D01*
X039068Y033491D02*
X045499Y033491D01*
X044397Y034447D02*
X044398Y034447D01*
X044397Y034766D02*
X044398Y034766D01*
X044397Y035084D02*
X044398Y035084D01*
X044397Y035403D02*
X044398Y035403D01*
X043295Y034963D02*
X042646Y034963D01*
X042914Y033173D02*
X039068Y033173D01*
X039025Y032854D02*
X042595Y032854D01*
X042277Y032536D02*
X039107Y032536D01*
X039107Y032217D02*
X041958Y032217D01*
X041640Y031899D02*
X039003Y031899D01*
X039000Y031580D02*
X041321Y031580D01*
X041003Y031262D02*
X039107Y031262D01*
X039107Y030943D02*
X040684Y030943D01*
X040365Y030624D02*
X039028Y030624D01*
X038803Y030306D02*
X040047Y030306D01*
X039728Y029987D02*
X037903Y029987D01*
X037903Y029669D02*
X039410Y029669D01*
X039091Y029350D02*
X037903Y029350D01*
X037903Y029032D02*
X038773Y029032D01*
X038454Y028713D02*
X037903Y028713D01*
X037903Y028395D02*
X038136Y028395D01*
X036689Y028395D02*
X035350Y028395D01*
X035341Y028404D02*
X035150Y028483D01*
X035046Y028483D01*
X034943Y028483D01*
X034752Y028404D01*
X034605Y028257D01*
X034526Y028066D01*
X034526Y027963D01*
X035046Y027963D01*
X035046Y027963D01*
X035046Y028483D01*
X035046Y027963D01*
X035046Y027963D01*
X034526Y027963D01*
X034526Y027859D01*
X034605Y027668D01*
X034752Y027522D01*
X034943Y027443D01*
X035046Y027443D01*
X035046Y027962D01*
X035046Y027962D01*
X035046Y027443D01*
X035150Y027443D01*
X035341Y027522D01*
X035487Y027668D01*
X035566Y027859D01*
X035566Y027963D01*
X035566Y028066D01*
X035487Y028257D01*
X035341Y028404D01*
X035046Y028395D02*
X035046Y028395D01*
X034743Y028395D02*
X032487Y028395D01*
X032569Y028312D02*
X032396Y028486D01*
X032169Y028580D01*
X031924Y028580D01*
X031697Y028486D01*
X031523Y028312D01*
X031429Y028086D01*
X031429Y027840D01*
X031523Y027613D01*
X031697Y027440D01*
X031924Y027346D01*
X032169Y027346D01*
X032396Y027440D01*
X032569Y027613D01*
X032663Y027840D01*
X032663Y028086D01*
X032569Y028312D01*
X032663Y028076D02*
X034530Y028076D01*
X034568Y027758D02*
X032629Y027758D01*
X032394Y027439D02*
X036689Y027439D01*
X036689Y027120D02*
X024369Y027120D01*
X024369Y026802D02*
X036689Y026802D01*
X036689Y026483D02*
X024369Y026483D01*
X024369Y026436D02*
X024369Y027440D01*
X024160Y027649D01*
X023235Y027649D01*
X023078Y027492D01*
X023018Y027552D01*
X022595Y027552D01*
X022172Y027552D01*
X022020Y027400D01*
X022020Y026938D01*
X022595Y026938D01*
X022595Y027552D01*
X022595Y026938D01*
X022595Y026938D01*
X022595Y026938D01*
X022020Y026938D01*
X022020Y026476D01*
X022172Y026324D01*
X022595Y026324D01*
X022595Y026937D01*
X022595Y026937D01*
X022595Y026324D01*
X023018Y026324D01*
X023078Y026384D01*
X023169Y026292D01*
X023169Y025503D01*
X023078Y025411D01*
X022911Y025578D01*
X022646Y025578D01*
X022381Y025578D01*
X022006Y025203D01*
X022006Y024938D01*
X022646Y024938D01*
X022646Y024938D01*
X022646Y025578D01*
X022646Y024938D01*
X022646Y024938D01*
X022006Y024938D01*
X022006Y024673D01*
X022381Y024298D01*
X022646Y024298D01*
X022646Y024937D01*
X022646Y024937D01*
X022646Y024298D01*
X022911Y024298D01*
X023078Y024464D01*
X023341Y024201D01*
X023951Y024201D01*
X024146Y024396D01*
X024209Y024333D01*
X024209Y023327D01*
X024009Y023127D01*
X024009Y022599D01*
X024383Y022226D01*
X024910Y022226D01*
X025146Y022462D01*
X025383Y022226D01*
X025910Y022226D01*
X026146Y022462D01*
X026383Y022226D01*
X026910Y022226D01*
X027146Y022462D01*
X027383Y022226D01*
X027910Y022226D01*
X028283Y022599D01*
X028283Y023127D01*
X028083Y023327D01*
X028083Y024333D01*
X028383Y024633D01*
X028383Y025243D01*
X027951Y025675D01*
X027341Y025675D01*
X027146Y025480D01*
X026951Y025675D01*
X026341Y025675D01*
X026146Y025480D01*
X025951Y025675D01*
X025341Y025675D01*
X025146Y025480D01*
X024951Y025675D01*
X024341Y025675D01*
X024146Y025480D01*
X024123Y025503D01*
X024123Y026227D01*
X024160Y026227D01*
X024369Y026436D01*
X024123Y026165D02*
X036689Y026165D01*
X036689Y025846D02*
X024123Y025846D01*
X024123Y025528D02*
X024194Y025528D01*
X025098Y025528D02*
X025194Y025528D01*
X026098Y025528D02*
X026194Y025528D01*
X027098Y025528D02*
X027194Y025528D01*
X028098Y025528D02*
X031851Y025528D01*
X031928Y025560D02*
X031708Y025469D01*
X031540Y025301D01*
X031449Y025082D01*
X031449Y024844D01*
X031540Y024625D01*
X031708Y024457D01*
X031928Y024366D01*
X032118Y024366D01*
X032118Y024001D01*
X032270Y023849D01*
X032754Y023849D01*
X032754Y024445D01*
X032788Y024445D01*
X032788Y023849D01*
X033273Y023849D01*
X033425Y024001D01*
X033425Y024446D01*
X032789Y024446D01*
X032789Y024480D01*
X033425Y024480D01*
X033425Y024925D01*
X033273Y025077D01*
X032788Y025077D01*
X032788Y024480D01*
X032754Y024480D01*
X032754Y025077D01*
X032643Y025077D01*
X032643Y025082D01*
X032552Y025301D01*
X032384Y025469D01*
X032165Y025560D01*
X031928Y025560D01*
X032242Y025528D02*
X036689Y025528D01*
X036689Y025209D02*
X032590Y025209D01*
X032754Y024891D02*
X032788Y024891D01*
X032788Y024572D02*
X032754Y024572D01*
X032754Y024254D02*
X032788Y024254D01*
X032788Y023935D02*
X032754Y023935D01*
X032183Y023935D02*
X028083Y023935D01*
X028083Y023616D02*
X036689Y023616D01*
X036689Y023298D02*
X028112Y023298D01*
X028283Y022979D02*
X032035Y022979D01*
X032021Y022965D02*
X032021Y022612D01*
X031989Y022580D01*
X031924Y022580D01*
X031697Y022486D01*
X031523Y022312D01*
X031429Y022086D01*
X031429Y021840D01*
X031523Y021613D01*
X031697Y021440D01*
X031924Y021346D01*
X032169Y021346D01*
X032396Y021440D01*
X032569Y021613D01*
X032626Y021752D01*
X033313Y021752D01*
X033522Y021961D01*
X033522Y022965D01*
X033313Y023174D01*
X032230Y023174D01*
X032021Y022965D01*
X032021Y022661D02*
X028283Y022661D01*
X028026Y022342D02*
X031553Y022342D01*
X031429Y022024D02*
X017146Y022024D01*
X017146Y022342D02*
X024266Y022342D01*
X024009Y022661D02*
X017146Y022661D01*
X017146Y022979D02*
X024009Y022979D01*
X024181Y023298D02*
X017146Y023298D01*
X017146Y023616D02*
X024209Y023616D01*
X024209Y023935D02*
X017146Y023935D01*
X017146Y024254D02*
X023288Y024254D01*
X022646Y024572D02*
X022646Y024572D01*
X022646Y024891D02*
X022646Y024891D01*
X022646Y025209D02*
X022646Y025209D01*
X022646Y025528D02*
X022646Y025528D01*
X022331Y025528D02*
X017146Y025528D01*
X017146Y025846D02*
X023169Y025846D01*
X023169Y025528D02*
X022961Y025528D01*
X023169Y026165D02*
X017146Y026165D01*
X017146Y026483D02*
X022020Y026483D01*
X022020Y026802D02*
X017146Y026802D01*
X017146Y027120D02*
X022020Y027120D01*
X022059Y027439D02*
X017146Y027439D01*
X017146Y027758D02*
X031464Y027758D01*
X031429Y028076D02*
X021147Y028076D01*
X021403Y028395D02*
X031606Y028395D01*
X031699Y027439D02*
X024369Y027439D01*
X022595Y027439D02*
X022595Y027439D01*
X022595Y027120D02*
X022595Y027120D01*
X022595Y026802D02*
X022595Y026802D01*
X022595Y026483D02*
X022595Y026483D01*
X022013Y025209D02*
X017146Y025209D01*
X017146Y024891D02*
X022006Y024891D01*
X022107Y024572D02*
X017146Y024572D01*
X017146Y021705D02*
X031485Y021705D01*
X031825Y021387D02*
X017146Y021387D01*
X017146Y021068D02*
X019589Y021068D01*
X019560Y020750D02*
X017146Y020750D01*
X017146Y020431D02*
X019560Y020431D01*
X019560Y020113D02*
X017146Y020113D01*
X017146Y019794D02*
X019560Y019794D01*
X019560Y019475D02*
X017146Y019475D01*
X017146Y019157D02*
X019560Y019157D01*
X019560Y018838D02*
X017146Y018838D01*
X017146Y018520D02*
X019560Y018520D01*
X019560Y018201D02*
X017146Y018201D01*
X017146Y017883D02*
X019361Y017883D01*
X019310Y017564D02*
X017146Y017564D01*
X017146Y017246D02*
X019275Y017246D01*
X019275Y016927D02*
X017146Y016927D01*
X017146Y016609D02*
X019275Y016609D01*
X019051Y016608D02*
X019051Y016449D01*
X019051Y016608D01*
X019051Y016449D02*
X019051Y016449D01*
X019846Y016313D02*
X020478Y016313D01*
X020496Y016313D02*
X022296Y016313D01*
X023546Y016313D01*
X023549Y016313D02*
X023896Y016313D01*
X024596Y016313D01*
X026364Y016313D01*
X026946Y016313D01*
X026946Y015501D01*
X026946Y015263D01*
X026946Y014963D01*
X026946Y014763D01*
X026946Y014478D01*
X026946Y013966D01*
X026946Y012663D01*
X026946Y012163D01*
X026946Y011463D01*
X026346Y011463D01*
X024573Y011463D01*
X023346Y011463D01*
X022270Y011463D01*
X020478Y011463D01*
X019275Y010875D02*
X017146Y010875D01*
X017146Y011193D02*
X018340Y011193D01*
X018340Y011512D02*
X017146Y011512D01*
X017146Y011830D02*
X018340Y011830D01*
X018340Y012149D02*
X017146Y012149D01*
X017146Y012467D02*
X018340Y012467D01*
X018340Y012786D02*
X017146Y012786D01*
X017146Y013105D02*
X018340Y013105D01*
X018340Y013423D02*
X017146Y013423D01*
X017146Y013742D02*
X018340Y013742D01*
X018340Y014060D02*
X017146Y014060D01*
X017146Y014379D02*
X018340Y014379D01*
X018340Y014697D02*
X017146Y014697D01*
X017146Y015016D02*
X018340Y015016D01*
X018340Y015334D02*
X017146Y015334D01*
X017146Y015653D02*
X018340Y015653D01*
X018340Y015971D02*
X017146Y015971D01*
X017146Y016290D02*
X018390Y016290D01*
X019275Y010556D02*
X017146Y010556D01*
X017146Y010238D02*
X019275Y010238D01*
X019560Y009919D02*
X017146Y009919D01*
X017146Y009601D02*
X019560Y009601D01*
X019560Y009282D02*
X017146Y009282D01*
X017146Y008964D02*
X019560Y008964D01*
X019560Y008645D02*
X017146Y008645D01*
X017146Y008326D02*
X019757Y008326D01*
X020076Y008008D02*
X017146Y008008D01*
X017146Y007689D02*
X020394Y007689D01*
X020713Y007371D02*
X017146Y007371D01*
X028583Y014876D02*
X029138Y014322D01*
X031153Y014322D01*
X031146Y014315D01*
X031146Y014313D01*
X031130Y014379D02*
X030940Y014379D01*
X030900Y014338D02*
X031035Y014473D01*
X031333Y014176D01*
X031860Y014176D01*
X032233Y014549D01*
X032233Y014676D01*
X032410Y014676D01*
X032783Y015049D01*
X032783Y015176D01*
X032960Y015176D01*
X033333Y015549D01*
X033333Y016077D01*
X032986Y016424D01*
X032991Y016430D01*
X033119Y016557D01*
X033340Y016778D01*
X033437Y016875D01*
X033438Y016876D01*
X033548Y016987D01*
X033618Y017057D01*
X033715Y017153D01*
X033716Y017154D01*
X033827Y017265D01*
X033897Y017335D01*
X034092Y017530D01*
X034231Y017391D01*
X034436Y017306D01*
X034657Y017306D01*
X034862Y017391D01*
X035018Y017547D01*
X035103Y017752D01*
X035103Y017974D01*
X035018Y018178D01*
X034879Y018317D01*
X034929Y018367D01*
X035039Y018477D01*
X035040Y018479D01*
X035150Y018588D01*
X035192Y018630D01*
X035331Y018491D01*
X035536Y018406D01*
X035757Y018406D01*
X035962Y018491D01*
X036118Y018647D01*
X036203Y018852D01*
X036203Y019074D01*
X036118Y019278D01*
X035979Y019417D01*
X036046Y019485D01*
X036108Y019423D01*
X036329Y019202D01*
X036468Y019063D01*
X036538Y018993D01*
X036746Y018784D01*
X036788Y018742D01*
X036724Y018678D01*
X036639Y018474D01*
X036639Y018252D01*
X036724Y018047D01*
X036881Y017891D01*
X037086Y017806D01*
X037307Y017806D01*
X037512Y017891D01*
X037576Y017955D01*
X037581Y017949D01*
X037721Y017810D01*
X037860Y017671D01*
X037987Y017543D01*
X038208Y017323D01*
X038277Y017253D01*
X038288Y017242D01*
X038174Y017128D01*
X038089Y016924D01*
X038089Y016702D01*
X038174Y016497D01*
X038331Y016341D01*
X038536Y016256D01*
X038757Y016256D01*
X038962Y016341D01*
X039076Y016455D01*
X039183Y016348D01*
X039252Y016279D01*
X039391Y016140D01*
X039530Y016001D01*
X039669Y015861D01*
X039669Y015861D01*
X039739Y015791D01*
X039936Y015595D01*
X039936Y015595D01*
X040075Y015455D01*
X040125Y015406D01*
X040186Y015345D01*
X040186Y015344D01*
X040296Y015235D01*
X040296Y015235D01*
X040354Y015177D01*
X040423Y015108D01*
X040644Y014887D01*
X040783Y014748D01*
X040911Y014620D01*
X040980Y014551D01*
X041193Y014338D01*
X040980Y014125D01*
X040911Y014055D01*
X040841Y013985D01*
X040771Y013916D01*
X040701Y013846D01*
X040604Y013749D01*
X040603Y013748D01*
X040493Y013638D01*
X040493Y013638D01*
X040423Y013568D01*
X040354Y013499D01*
X040354Y013499D01*
X040296Y013441D01*
X040187Y013332D01*
X040186Y013331D01*
X040075Y013220D01*
X040005Y013150D01*
X039936Y013081D01*
X039908Y013053D01*
X039908Y013052D01*
X039797Y012942D01*
X039727Y012872D01*
X039658Y012803D01*
X039658Y012803D01*
X039630Y012775D01*
X039629Y012774D01*
X039519Y012664D01*
X039519Y012663D01*
X039461Y012606D01*
X039240Y012385D01*
X039170Y012315D01*
X039101Y012246D01*
X039031Y012176D01*
X038962Y012107D01*
X038935Y012079D01*
X038933Y012078D01*
X038823Y011967D01*
X038753Y011897D01*
X038655Y011800D01*
X038655Y011800D01*
X038557Y011702D01*
X038260Y012000D01*
X037733Y012000D01*
X037359Y011627D01*
X037359Y011099D01*
X037657Y010802D01*
X037639Y010784D01*
X037582Y010726D01*
X037581Y010726D02*
X037361Y010506D01*
X037292Y010436D01*
X037221Y010366D01*
X037164Y010309D01*
X037096Y010241D01*
X037053Y010198D01*
X036943Y010088D01*
X036943Y010088D01*
X036885Y010030D01*
X036665Y009809D01*
X036596Y009740D01*
X036538Y009683D01*
X036430Y009574D01*
X036428Y009572D01*
X036317Y009462D01*
X036247Y009392D01*
X036178Y009323D01*
X036108Y009253D01*
X036046Y009191D01*
X035833Y009404D01*
X035764Y009474D01*
X035694Y009544D01*
X035625Y009613D01*
X035625Y009613D01*
X035555Y009683D01*
X035555Y009683D01*
X035497Y009740D01*
X035497Y009740D01*
X035276Y009961D01*
X035207Y010030D01*
X035150Y010088D01*
X035066Y010172D01*
X035112Y010191D01*
X035268Y010347D01*
X035353Y010552D01*
X035353Y010774D01*
X035268Y010978D01*
X035112Y011135D01*
X034907Y011220D01*
X034686Y011220D01*
X034481Y011135D01*
X034324Y010978D01*
X034305Y010932D01*
X034302Y010936D01*
X034233Y011005D01*
X034163Y011075D01*
X034094Y011144D01*
X034023Y011214D01*
X033954Y011283D01*
X033884Y011353D01*
X033815Y011422D01*
X033788Y011450D01*
X033786Y011451D01*
X033751Y011486D01*
X033762Y011491D01*
X033918Y011647D01*
X034003Y011852D01*
X034003Y012074D01*
X033918Y012278D01*
X033762Y012435D01*
X033557Y012520D01*
X033336Y012520D01*
X033131Y012435D01*
X032974Y012278D01*
X032970Y012269D01*
X032969Y012268D01*
X032910Y012327D01*
X032841Y012397D01*
X032771Y012467D01*
X032702Y012536D01*
X032632Y012606D01*
X032574Y012663D01*
X032574Y012664D01*
X032533Y012704D01*
X032463Y012774D01*
X032463Y012775D01*
X032353Y012884D01*
X032214Y013023D01*
X032145Y013093D01*
X032075Y013163D01*
X032017Y013220D01*
X032017Y013220D01*
X031913Y013324D01*
X031907Y013331D01*
X031907Y013331D01*
X031796Y013441D01*
X031739Y013499D01*
X031600Y013638D01*
X031560Y013677D01*
X031489Y013748D01*
X031489Y013749D01*
X031379Y013859D01*
X031283Y013955D01*
X031281Y013956D01*
X031170Y014067D01*
X031100Y014137D01*
X031031Y014206D01*
X030961Y014276D01*
X030900Y014338D01*
X031177Y014060D02*
X040915Y014060D01*
X040701Y013846D02*
X040701Y013846D01*
X040597Y013742D02*
X031496Y013742D01*
X031600Y013638D02*
X031600Y013638D01*
X031739Y013499D02*
X031739Y013499D01*
X031796Y013441D02*
X031796Y013441D01*
X031814Y013423D02*
X040278Y013423D01*
X040296Y013441D02*
X040296Y013441D01*
X040075Y013220D02*
X040075Y013220D01*
X039960Y013105D02*
X032133Y013105D01*
X032451Y012786D02*
X039641Y012786D01*
X039461Y012606D02*
X039461Y012606D01*
X039323Y012467D02*
X033683Y012467D01*
X033806Y012502D02*
X033573Y012598D01*
X033411Y012598D01*
X031902Y014107D01*
X032312Y014516D01*
X032312Y014597D01*
X032443Y014597D01*
X032862Y015016D01*
X032862Y015097D01*
X032993Y015097D01*
X033412Y015516D01*
X033412Y016109D01*
X033402Y016119D01*
X034511Y017227D01*
X034673Y017227D01*
X034906Y017324D01*
X035085Y017503D01*
X035182Y017736D01*
X035182Y017898D01*
X035611Y018327D01*
X035773Y018327D01*
X036006Y018424D01*
X036185Y018603D01*
X036191Y018618D01*
X036561Y018248D01*
X036561Y018236D01*
X036657Y018003D01*
X036836Y017824D01*
X037070Y017727D01*
X037082Y017727D01*
X038011Y016798D01*
X038011Y016686D01*
X038107Y016453D01*
X038286Y016274D01*
X038520Y016177D01*
X038632Y016177D01*
X040446Y014363D01*
X038162Y012078D01*
X037700Y012078D01*
X037281Y011659D01*
X037281Y011197D01*
X036046Y009963D01*
X035432Y010577D01*
X035432Y010789D01*
X035335Y011023D01*
X035156Y011202D01*
X034923Y011298D01*
X034711Y011298D01*
X034082Y011927D01*
X034082Y012089D01*
X033985Y012323D01*
X033806Y012502D01*
X033840Y012467D02*
X038551Y012467D01*
X038232Y012149D02*
X034057Y012149D01*
X033972Y012149D02*
X039004Y012149D01*
X038753Y011897D02*
X038753Y011897D01*
X038686Y011830D02*
X038429Y011830D01*
X037563Y011830D02*
X033994Y011830D01*
X034179Y011830D02*
X037452Y011830D01*
X037359Y011512D02*
X033783Y011512D01*
X033815Y011422D02*
X033815Y011422D01*
X034044Y011193D02*
X034622Y011193D01*
X034497Y011512D02*
X037281Y011512D01*
X037277Y011193D02*
X035165Y011193D01*
X034971Y011193D02*
X037359Y011193D01*
X037584Y010875D02*
X035311Y010875D01*
X035396Y010875D02*
X036958Y010875D01*
X036640Y010556D02*
X035453Y010556D01*
X035353Y010556D02*
X037411Y010556D01*
X037581Y010726D02*
X037582Y010726D01*
X037164Y010309D02*
X037164Y010309D01*
X037093Y010238D02*
X035159Y010238D01*
X035150Y010088D02*
X035150Y010088D01*
X035207Y010030D02*
X035207Y010030D01*
X035318Y009919D02*
X036774Y009919D01*
X036885Y010030D02*
X036885Y010030D01*
X037053Y010198D02*
X037053Y010198D01*
X036596Y009740D02*
X036596Y009740D01*
X036538Y009683D02*
X036538Y009683D01*
X036456Y009601D02*
X035637Y009601D01*
X036046Y009463D02*
X036046Y009813D01*
X036046Y010263D01*
X035771Y010238D02*
X036321Y010238D01*
X036137Y009282D02*
X035955Y009282D01*
X033210Y012467D02*
X032770Y012467D01*
X033223Y012786D02*
X038869Y012786D01*
X039188Y013105D02*
X032905Y013105D01*
X032586Y013423D02*
X039507Y013423D01*
X039825Y013742D02*
X032267Y013742D01*
X031949Y014060D02*
X040144Y014060D01*
X040246Y014163D02*
X040446Y014363D01*
X040430Y014379D02*
X032174Y014379D01*
X032063Y014379D02*
X041152Y014379D01*
X040911Y014620D02*
X040911Y014620D01*
X040834Y014697D02*
X032431Y014697D01*
X032543Y014697D02*
X040112Y014697D01*
X039793Y015016D02*
X032861Y015016D01*
X032750Y015016D02*
X040515Y015016D01*
X040354Y015177D02*
X040354Y015177D01*
X040196Y015334D02*
X033118Y015334D01*
X033230Y015334D02*
X039475Y015334D01*
X039156Y015653D02*
X033412Y015653D01*
X033333Y015653D02*
X039878Y015653D01*
X040075Y015455D02*
X040075Y015455D01*
X039559Y015971D02*
X033333Y015971D01*
X033412Y015971D02*
X038838Y015971D01*
X038839Y016290D02*
X039241Y016290D01*
X038453Y016290D02*
X033120Y016290D01*
X033119Y016557D02*
X033119Y016557D01*
X033170Y016609D02*
X038128Y016609D01*
X038043Y016609D02*
X033892Y016609D01*
X034211Y016927D02*
X037882Y016927D01*
X038091Y016927D02*
X033489Y016927D01*
X033548Y016987D02*
X033548Y016987D01*
X033807Y017246D02*
X038285Y017246D01*
X037987Y017543D02*
X037987Y017543D01*
X037967Y017564D02*
X035025Y017564D01*
X035110Y017564D02*
X037245Y017564D01*
X037492Y017883D02*
X037648Y017883D01*
X037860Y017671D02*
X037860Y017671D01*
X037563Y017246D02*
X034717Y017246D01*
X035103Y017883D02*
X036900Y017883D01*
X036778Y017883D02*
X035182Y017883D01*
X034995Y018201D02*
X036660Y018201D01*
X036575Y018201D02*
X035485Y018201D01*
X035302Y018520D02*
X035082Y018520D01*
X035150Y018588D02*
X035150Y018588D01*
X034929Y018367D02*
X034929Y018367D01*
X035991Y018520D02*
X036659Y018520D01*
X036692Y018838D02*
X036197Y018838D01*
X036169Y019157D02*
X036374Y019157D01*
X036055Y019475D02*
X036037Y019475D01*
X035833Y020025D02*
X035833Y020025D01*
X035745Y020113D02*
X036026Y020113D01*
X035993Y020431D02*
X035453Y020431D01*
X035527Y020331D02*
X035527Y020331D01*
X035453Y020750D02*
X036196Y020750D01*
X036689Y021068D02*
X035453Y021068D01*
X035453Y021387D02*
X036689Y021387D01*
X036689Y021705D02*
X035607Y021705D01*
X035663Y022024D02*
X036689Y022024D01*
X036689Y022342D02*
X035539Y022342D01*
X035097Y022661D02*
X036689Y022661D01*
X036689Y022979D02*
X035082Y022979D01*
X034847Y023849D02*
X034363Y023849D01*
X034363Y024445D01*
X034329Y024445D01*
X034329Y023849D01*
X033845Y023849D01*
X033692Y024001D01*
X033692Y024446D01*
X034329Y024446D01*
X034329Y024480D01*
X034329Y025077D01*
X033845Y025077D01*
X033692Y024925D01*
X033692Y024480D01*
X034329Y024480D01*
X034363Y024480D01*
X034363Y025077D01*
X034847Y025077D01*
X035000Y024925D01*
X035000Y024480D01*
X034364Y024480D01*
X034364Y024446D01*
X035000Y024446D01*
X035000Y024001D01*
X034847Y023849D01*
X034934Y023935D02*
X036689Y023935D01*
X036689Y024254D02*
X035000Y024254D01*
X035000Y024572D02*
X036689Y024572D01*
X036689Y024891D02*
X035000Y024891D01*
X034363Y024891D02*
X034329Y024891D01*
X034329Y024572D02*
X034363Y024572D01*
X034363Y024254D02*
X034329Y024254D01*
X034329Y023935D02*
X034363Y023935D01*
X033758Y023935D02*
X033359Y023935D01*
X033425Y024254D02*
X033692Y024254D01*
X033692Y024572D02*
X033425Y024572D01*
X033425Y024891D02*
X033692Y024891D01*
X032118Y024254D02*
X028083Y024254D01*
X028323Y024572D02*
X031593Y024572D01*
X031449Y024891D02*
X028383Y024891D01*
X028383Y025209D02*
X031502Y025209D01*
X033507Y022979D02*
X033610Y022979D01*
X033596Y022661D02*
X033522Y022661D01*
X033522Y022342D02*
X033596Y022342D01*
X033596Y022024D02*
X033522Y022024D01*
X032607Y021705D02*
X034485Y021705D01*
X034639Y021387D02*
X032267Y021387D01*
X033928Y021068D02*
X034639Y021068D01*
X034639Y020750D02*
X034246Y020750D01*
X034565Y020431D02*
X034639Y020431D01*
X036102Y018520D02*
X036289Y018520D01*
X033827Y017265D02*
X033827Y017265D01*
X033573Y016290D02*
X038270Y016290D01*
X040783Y014748D02*
X040783Y014748D01*
X040696Y014363D02*
X040596Y014363D01*
X042246Y014363D01*
X041880Y014697D02*
X042941Y014697D01*
X042823Y015016D02*
X042039Y015016D01*
X042039Y014857D02*
X042039Y014857D01*
X041733Y014551D02*
X041733Y014551D01*
X041561Y014379D02*
X043143Y014379D01*
X042823Y015334D02*
X042212Y015334D01*
X044597Y015334D02*
X044598Y015334D01*
X044598Y015463D02*
X044598Y015463D01*
X044597Y015016D02*
X044598Y015016D01*
X052546Y016290D02*
X052546Y016290D01*
X052547Y016463D02*
X052547Y016463D01*
X052546Y027758D02*
X052546Y027758D01*
X052547Y027963D02*
X052547Y027963D01*
X038396Y034447D02*
X038396Y034447D01*
X037821Y034447D02*
X037721Y034447D01*
X037721Y034128D02*
X037821Y034128D01*
X037146Y034447D02*
X037146Y034447D01*
X036571Y034447D02*
X036409Y034447D01*
X036409Y034128D02*
X036571Y034128D01*
X035834Y034447D02*
X035834Y034447D01*
X035259Y034447D02*
X035096Y034447D01*
X035096Y034162D02*
X034522Y034162D01*
X034522Y034162D01*
X035096Y034162D01*
X035096Y034128D02*
X035259Y034128D01*
X034521Y034447D02*
X034521Y034447D01*
X033946Y034447D02*
X017146Y034447D01*
X017146Y034128D02*
X033946Y034128D01*
X033849Y033810D02*
X017146Y033810D01*
X017146Y033491D02*
X018650Y033491D01*
X018682Y033524D02*
X018473Y033315D01*
X018473Y032311D01*
X018589Y032195D01*
X018589Y032060D01*
X018485Y031955D01*
X018485Y031266D01*
X018589Y031161D01*
X018589Y030952D01*
X018589Y030832D01*
X018674Y030747D01*
X018831Y030591D01*
X018916Y030506D01*
X019036Y030506D01*
X019257Y030506D01*
X019377Y030506D01*
X019462Y030591D01*
X019618Y030747D01*
X019703Y030832D01*
X019703Y030952D01*
X019703Y031141D01*
X019828Y031266D01*
X019828Y031955D01*
X019703Y032080D01*
X019703Y032197D01*
X019765Y032259D01*
X019825Y032199D01*
X020247Y032199D01*
X020247Y032812D01*
X020248Y032812D01*
X020248Y032199D01*
X020670Y032199D01*
X020822Y032351D01*
X020822Y032813D01*
X020822Y033275D01*
X020670Y033427D01*
X020248Y033427D01*
X020248Y032813D01*
X020822Y032813D01*
X020248Y032813D01*
X020248Y032813D01*
X020247Y032813D01*
X020247Y033427D01*
X019825Y033427D01*
X019765Y033367D01*
X019608Y033524D01*
X018682Y033524D01*
X018473Y033173D02*
X017146Y033173D01*
X017146Y032854D02*
X018473Y032854D01*
X018473Y032536D02*
X017146Y032536D01*
X017146Y032217D02*
X018567Y032217D01*
X018485Y031899D02*
X017146Y031899D01*
X017146Y031580D02*
X018485Y031580D01*
X018489Y031262D02*
X017146Y031262D01*
X017146Y030943D02*
X018589Y030943D01*
X018797Y030624D02*
X017146Y030624D01*
X017146Y029032D02*
X018473Y029032D01*
X018473Y028713D02*
X017146Y028713D01*
X017146Y028395D02*
X018473Y028395D01*
X018508Y028076D02*
X017146Y028076D01*
X019708Y029350D02*
X032802Y029350D01*
X032739Y029669D02*
X026753Y029669D01*
X026710Y029626D02*
X026183Y029626D01*
X025809Y029999D01*
X025809Y030527D01*
X026114Y030831D01*
X025906Y031039D01*
X025906Y031263D01*
X026446Y031263D01*
X026446Y031263D01*
X026446Y031803D01*
X026223Y031803D01*
X025906Y031486D01*
X025906Y031263D01*
X026446Y031263D01*
X026446Y031263D01*
X026446Y031803D01*
X026670Y031803D01*
X026986Y031486D01*
X026986Y031263D01*
X026447Y031263D01*
X026447Y031263D01*
X026986Y031263D01*
X026986Y031039D01*
X026778Y030831D01*
X027083Y030527D01*
X027083Y029999D01*
X026710Y029626D01*
X027071Y029987D02*
X032883Y029987D01*
X033464Y030306D02*
X027083Y030306D01*
X026985Y030624D02*
X033890Y030624D01*
X033810Y030943D02*
X026890Y030943D01*
X026986Y031262D02*
X033810Y031262D01*
X033918Y031580D02*
X026893Y031580D01*
X026446Y031580D02*
X026446Y031580D01*
X026000Y031580D02*
X023511Y031580D01*
X023511Y031884D02*
X023359Y032036D01*
X022190Y032036D01*
X022190Y030873D01*
X021871Y030873D01*
X021871Y032036D01*
X020702Y032036D01*
X020550Y031884D01*
X020550Y030873D01*
X021870Y030873D01*
X021870Y030553D01*
X020550Y030553D01*
X020550Y029542D01*
X020702Y029390D01*
X021871Y029390D01*
X021871Y030553D01*
X022190Y030553D01*
X022190Y029390D01*
X023359Y029390D01*
X023511Y029542D01*
X023511Y030553D01*
X022191Y030553D01*
X022191Y030873D01*
X023511Y030873D01*
X023511Y031884D01*
X023496Y031899D02*
X033915Y031899D01*
X033810Y032217D02*
X020689Y032217D01*
X020565Y031899D02*
X019828Y031899D01*
X019806Y032217D02*
X019723Y032217D01*
X020247Y032217D02*
X020248Y032217D01*
X020247Y032536D02*
X020248Y032536D01*
X020247Y032854D02*
X020248Y032854D01*
X020247Y033173D02*
X020248Y033173D01*
X020822Y033173D02*
X033849Y033173D01*
X033849Y033491D02*
X019641Y033491D01*
X020822Y032854D02*
X033893Y032854D01*
X033810Y032536D02*
X020822Y032536D01*
X020550Y031580D02*
X019828Y031580D01*
X019824Y031262D02*
X020550Y031262D01*
X020550Y030943D02*
X019703Y030943D01*
X019495Y030624D02*
X021870Y030624D01*
X021871Y030306D02*
X022190Y030306D01*
X022191Y030624D02*
X025907Y030624D01*
X025809Y030306D02*
X023511Y030306D01*
X023511Y029987D02*
X025821Y029987D01*
X026140Y029669D02*
X023511Y029669D01*
X022190Y029669D02*
X021871Y029669D01*
X021871Y029987D02*
X022190Y029987D01*
X021165Y029032D02*
X033352Y029032D01*
X034538Y029032D02*
X034592Y029032D01*
X035047Y029032D02*
X035048Y029032D01*
X035047Y029350D02*
X035048Y029350D01*
X035047Y029669D02*
X035048Y029669D01*
X035047Y029987D02*
X035048Y029987D01*
X034727Y030306D02*
X035427Y030306D01*
X035622Y029987D02*
X036689Y029987D01*
X036689Y029669D02*
X035622Y029669D01*
X035622Y029350D02*
X036689Y029350D01*
X036689Y029032D02*
X035503Y029032D01*
X036689Y028713D02*
X021403Y028713D01*
X020550Y029669D02*
X019828Y029669D01*
X019828Y029987D02*
X020550Y029987D01*
X020550Y030306D02*
X019682Y030306D01*
X021871Y030943D02*
X022190Y030943D01*
X022190Y031262D02*
X021871Y031262D01*
X021871Y031580D02*
X022190Y031580D01*
X022190Y031899D02*
X021871Y031899D01*
X023511Y031262D02*
X025906Y031262D01*
X026002Y030943D02*
X023511Y030943D01*
X024004Y024254D02*
X024209Y024254D01*
X025026Y022342D02*
X025266Y022342D01*
X026026Y022342D02*
X026266Y022342D01*
X027026Y022342D02*
X027266Y022342D01*
X035046Y027758D02*
X035046Y027758D01*
X035047Y027963D02*
X035047Y027963D01*
X035566Y027963D01*
X035047Y027963D01*
X035046Y028076D02*
X035046Y028076D01*
X035562Y028076D02*
X036689Y028076D01*
X036689Y027758D02*
X035524Y027758D01*
X035202Y030624D02*
X035153Y030624D01*
X035125Y031580D02*
X035230Y031580D01*
X035227Y031899D02*
X035128Y031899D01*
X036440Y031899D02*
X036540Y031899D01*
X036543Y031580D02*
X036437Y031580D01*
X037750Y031580D02*
X037793Y031580D01*
X037790Y031899D02*
X037753Y031899D01*
X052547Y004963D02*
X052547Y004963D01*
X052546Y004822D02*
X052546Y004822D01*
X051105Y004504D02*
X051033Y004504D01*
X054006Y001637D02*
X030146Y001637D01*
X030146Y001318D02*
X054006Y001318D01*
X032944Y002911D02*
X032821Y002911D01*
D39*
X043496Y014813D02*
X043496Y015462D01*
X043495Y015463D01*
X044597Y015463D02*
X047546Y015463D01*
X050597Y015463D02*
X051546Y015463D01*
X052546Y016463D01*
X053246Y016463D01*
X053246Y027963D01*
X052546Y027963D01*
X051546Y026963D01*
X050597Y026963D01*
X053246Y027963D02*
X053246Y034963D01*
X047546Y034963D01*
X046571Y034963D01*
X046546Y034963D01*
X046546Y034962D01*
X038421Y034163D02*
X038396Y034174D01*
X037146Y034174D01*
X037121Y034163D01*
X037146Y034174D02*
X035834Y034174D01*
X035821Y034163D01*
X035834Y034174D02*
X034521Y034162D01*
X035047Y029613D02*
X035046Y029612D01*
X033945Y029613D02*
X033296Y029613D01*
X032771Y024463D02*
X034346Y024463D01*
X035046Y023963D01*
X034546Y022463D02*
X035046Y021963D01*
X034546Y022463D02*
X034346Y022463D01*
X032771Y022463D02*
X032546Y022463D01*
X032046Y021963D01*
X036046Y019963D02*
X036046Y019363D01*
X023646Y024938D02*
X023646Y026887D01*
X023697Y026938D01*
X019646Y027863D02*
X019646Y028063D01*
X050597Y012963D02*
X053246Y012963D01*
X053246Y016463D01*
X053246Y012963D02*
X053246Y004963D01*
X052546Y004963D01*
D40*
X017346Y022263D02*
X014246Y022263D01*
X019145Y028613D02*
X019145Y029762D01*
X019157Y029773D01*
X019157Y029815D01*
X015894Y029815D01*
X015746Y029963D01*
X014846Y030863D01*
X013146Y030863D01*
X012246Y031963D02*
X005946Y031963D01*
X005946Y030563D01*
X007196Y029313D01*
X007196Y028813D01*
X008446Y030563D02*
X010846Y030563D01*
X011146Y030863D01*
X012246Y031963D02*
X013146Y032863D01*
X019146Y032812D02*
X019146Y032163D01*
X019146Y031621D01*
X019146Y031600D02*
X019146Y031063D01*
X020247Y028613D02*
X020297Y028563D01*
X020846Y028563D01*
D41*
X032046Y024963D03*
X035046Y024963D03*
M02*
