G75*
G70*
%OFA0B0*%
%FSLAX24Y24*%
%IPPOS*%
%LPD*%
%AMOC8*
5,1,8,0,0,1.08239X$1,22.5*
%
%ADD10C,0.0160*%
%ADD11C,0.0060*%
%ADD12OC8,0.0756*%
%ADD13C,0.0756*%
%ADD14C,0.2400*%
%ADD15OC8,0.0672*%
%ADD16OC8,0.0912*%
%ADD17R,0.0756X0.0835*%
%ADD18R,0.0835X0.0756*%
%ADD19OC8,0.0948*%
%ADD20OC8,0.1800*%
%ADD21C,0.0624*%
%ADD22C,0.0720*%
%ADD23OC8,0.0720*%
%ADD24R,0.1213X0.1134*%
%ADD25C,0.2039*%
%ADD26C,0.0480*%
%ADD27C,0.0576*%
D10*
X002944Y000363D02*
X002944Y036583D01*
X052944Y036583D01*
X052944Y000363D01*
X002944Y000363D01*
D11*
X043224Y037215D02*
X043296Y037143D01*
X043441Y037143D01*
X043513Y037215D01*
X043513Y037288D01*
X043441Y037360D01*
X043296Y037360D01*
X043224Y037432D01*
X043224Y037505D01*
X043296Y037577D01*
X043441Y037577D01*
X043513Y037505D01*
X043678Y037577D02*
X043678Y037143D01*
X043968Y037143D02*
X043968Y037577D01*
X043823Y037432D01*
X043678Y037577D01*
X044133Y037577D02*
X044133Y037143D01*
X044350Y037143D01*
X044422Y037215D01*
X044422Y037288D01*
X044350Y037360D01*
X044133Y037360D01*
X044350Y037360D02*
X044422Y037432D01*
X044422Y037505D01*
X044350Y037577D01*
X044133Y037577D01*
X044587Y037505D02*
X044587Y037215D01*
X044660Y037143D01*
X044804Y037143D01*
X044877Y037215D01*
X044877Y037505D01*
X044804Y037577D01*
X044660Y037577D01*
X044587Y037505D01*
X045042Y037577D02*
X045331Y037577D01*
X045187Y037577D02*
X045187Y037143D01*
D12*
X049694Y021593D03*
X049694Y020503D03*
X048694Y021043D03*
X048694Y019963D03*
X049694Y019413D03*
X048694Y018873D03*
X049694Y018333D03*
X048694Y017783D03*
X048694Y016703D03*
X049694Y017243D03*
X049694Y016153D03*
X048694Y015613D03*
X049694Y015073D03*
X048694Y014523D03*
X049694Y013983D03*
X049694Y012893D03*
X048694Y012353D03*
X049694Y011813D03*
X048694Y011263D03*
X049694Y010723D03*
X048694Y010183D03*
X048694Y009093D03*
X049694Y009633D03*
X048694Y013443D03*
D13*
X048694Y022133D03*
D14*
X049194Y024873D03*
X049194Y006353D03*
D15*
X025994Y014813D03*
X025444Y015313D03*
X024894Y015813D03*
X019594Y011363D03*
X011044Y010963D03*
X011044Y009963D03*
X010044Y009963D03*
X010044Y010963D03*
X010044Y011963D03*
X011044Y011963D03*
X011044Y008963D03*
X011044Y007963D03*
X010044Y007963D03*
X010044Y008963D03*
X010044Y006963D03*
X011044Y006963D03*
X011044Y005963D03*
X011044Y004963D03*
X010044Y004963D03*
X010044Y005963D03*
X006044Y005963D03*
X006044Y004963D03*
X005044Y004963D03*
X005044Y005963D03*
X005044Y006963D03*
X006044Y006963D03*
X006044Y007963D03*
X006044Y008963D03*
X005044Y008963D03*
X005044Y007963D03*
X005044Y009963D03*
X006044Y009963D03*
X006044Y010963D03*
X005044Y010963D03*
X005044Y011963D03*
X006044Y011963D03*
X006044Y016463D03*
X005044Y016463D03*
X005044Y017463D03*
X006044Y017463D03*
X006044Y018463D03*
X005044Y018463D03*
X005044Y019463D03*
X006044Y019463D03*
X006044Y020463D03*
X006044Y021463D03*
X005044Y021463D03*
X005044Y020463D03*
X005044Y022463D03*
X006044Y022463D03*
X006044Y023463D03*
X005044Y023463D03*
X010044Y023463D03*
X011044Y023463D03*
X011044Y022463D03*
X010044Y022463D03*
X010044Y021463D03*
X011044Y021463D03*
X011044Y020463D03*
X010044Y020463D03*
X010044Y019463D03*
X011044Y019463D03*
X011044Y018463D03*
X011044Y017463D03*
X010044Y017463D03*
X010044Y018463D03*
X010044Y016463D03*
X011044Y016463D03*
X011044Y027963D03*
X010044Y027963D03*
X010044Y028963D03*
X011044Y028963D03*
X011044Y029963D03*
X011044Y030963D03*
X010044Y030963D03*
X010044Y029963D03*
X010044Y031963D03*
X011044Y031963D03*
X011044Y032963D03*
X011044Y033963D03*
X010044Y033963D03*
X010044Y032963D03*
X010044Y034963D03*
X011044Y034963D03*
X006044Y031963D03*
X005044Y031963D03*
X005044Y030963D03*
X006044Y030963D03*
X006044Y029963D03*
X005044Y029963D03*
X005044Y028963D03*
X006044Y028963D03*
X006044Y027963D03*
X005044Y027963D03*
X029944Y022863D03*
X030944Y022863D03*
X031944Y022863D03*
X032944Y022863D03*
X031144Y030263D03*
X031144Y031263D03*
D16*
X030944Y024938D03*
X031944Y024938D03*
X032944Y024938D03*
X033944Y024938D03*
X034944Y024938D03*
X029944Y024938D03*
D17*
X023645Y026263D03*
X022542Y026263D03*
X018745Y014363D03*
X017642Y014363D03*
X027092Y014313D03*
X028195Y014313D03*
X028942Y012663D03*
X030045Y012663D03*
X037942Y013713D03*
X039045Y013713D03*
D18*
X035944Y011414D03*
X035944Y010312D03*
X033694Y016812D03*
X033694Y017914D03*
X021594Y018064D03*
X021594Y016962D03*
X021544Y011564D03*
X021544Y010462D03*
D19*
X041844Y027963D03*
X041844Y029963D03*
D20*
X049144Y030563D03*
X050394Y028813D03*
X051644Y030563D03*
D21*
X025544Y027963D03*
X022544Y027963D03*
X022544Y021963D03*
X025544Y021963D03*
D22*
X044444Y030863D03*
D23*
X046444Y030863D03*
X046444Y032863D03*
X044444Y032863D03*
D24*
X039748Y015264D03*
X037229Y015264D03*
X022851Y014315D03*
X020331Y014315D03*
D25*
X006284Y003119D03*
X049578Y003119D03*
X049578Y033832D03*
X006284Y033832D03*
D26*
X014944Y034963D03*
X024294Y029613D03*
X036744Y028563D03*
X038444Y031063D03*
X038444Y032163D03*
X043344Y022263D03*
X043344Y021263D03*
X043344Y020263D03*
X043344Y019263D03*
X043344Y018263D03*
X043344Y017263D03*
X043344Y016263D03*
X043344Y015263D03*
X043344Y014263D03*
X043344Y013263D03*
X043344Y012263D03*
X043344Y011263D03*
X039594Y013713D03*
X037544Y014063D03*
X039740Y016035D03*
X036944Y017913D03*
X035444Y017913D03*
X034394Y017913D03*
X032894Y017913D03*
X031294Y017913D03*
X029944Y017713D03*
X029544Y017413D03*
X029044Y017263D03*
X028594Y017013D03*
X028194Y016663D03*
X028694Y016313D03*
X027944Y014863D03*
X028894Y013963D03*
X030644Y012663D03*
X031144Y012313D03*
X031544Y011963D03*
X031944Y012313D03*
X032294Y011913D03*
X032644Y012313D03*
X032994Y011913D03*
X033544Y011913D03*
X036644Y011463D03*
X037144Y011463D03*
X038544Y010763D03*
X038544Y010263D03*
X036994Y009763D03*
X035394Y009763D03*
X033894Y009763D03*
X032894Y009763D03*
X031394Y009763D03*
X030044Y010113D03*
X029394Y010513D03*
X028944Y010763D03*
X028444Y010913D03*
X028044Y011263D03*
X028044Y011763D03*
X028944Y012063D03*
X030044Y010663D03*
X031694Y014063D03*
X031294Y014413D03*
X031694Y014763D03*
X031294Y015113D03*
X031694Y015463D03*
X031294Y015813D03*
X033694Y016313D03*
X026294Y016663D03*
X023044Y017863D03*
X021944Y018963D03*
X021394Y018663D03*
X020394Y018363D03*
X018944Y016813D03*
X020288Y015078D03*
X020288Y013566D03*
X016994Y014363D03*
X015594Y013663D03*
X014094Y014813D03*
X010044Y015463D03*
X008094Y014763D03*
X008844Y012963D03*
X018544Y010413D03*
X019544Y008563D03*
X021544Y009813D03*
X022794Y010663D03*
X024144Y011963D03*
X026444Y014313D03*
X022344Y008413D03*
X014744Y003963D03*
X021044Y020313D03*
X008944Y026963D03*
D27*
X022544Y024963D03*
X025544Y024963D03*
M02*
