G75*
G70*
%OFA0B0*%
%FSLAX24Y24*%
%IPPOS*%
%LPD*%
%AMOC8*
5,1,8,0,0,1.08239X$1,22.5*
%
%ADD10C,0.0160*%
%ADD11R,0.3250X0.2750*%
%ADD12C,0.0060*%
%ADD13C,0.0080*%
%ADD14OC8,0.0756*%
%ADD15C,0.0756*%
%ADD16C,0.2400*%
%ADD17OC8,0.0672*%
%ADD18R,0.0614X0.0732*%
%ADD19R,0.0189X0.0740*%
%ADD20R,0.0740X0.0189*%
%ADD21R,0.0096X0.0096*%
%ADD22C,0.0040*%
%ADD23OC8,0.0912*%
%ADD24R,0.0929X0.0850*%
%ADD25R,0.0732X0.0614*%
%ADD26R,0.0756X0.0835*%
%ADD27R,0.2841X0.2526*%
%ADD28R,0.0709X0.0472*%
%ADD29OC8,0.0948*%
%ADD30OC8,0.1800*%
%ADD31C,0.0624*%
%ADD32C,0.0720*%
%ADD33OC8,0.0720*%
%ADD34R,0.0803X0.0567*%
%ADD35C,0.2039*%
%ADD36C,0.0480*%
%ADD37C,0.0576*%
D10*
X004646Y000363D02*
X004646Y036583D01*
X054646Y036583D01*
X054646Y000363D01*
X004646Y000363D01*
D11*
X021771Y030738D03*
D12*
X011784Y037360D02*
X011712Y037288D01*
X011495Y037288D01*
X011495Y037143D02*
X011495Y037577D01*
X011712Y037577D01*
X011784Y037505D01*
X011784Y037360D01*
X011329Y037505D02*
X011257Y037577D01*
X011112Y037577D01*
X011040Y037505D01*
X011040Y037215D01*
X011112Y037143D01*
X011257Y037143D01*
X011329Y037215D01*
X011329Y037505D01*
X010875Y037577D02*
X010585Y037577D01*
X010730Y037577D02*
X010730Y037143D01*
X010420Y037143D02*
X010420Y037577D01*
X010276Y037432D01*
X010131Y037577D01*
X010131Y037143D01*
X009966Y037215D02*
X009893Y037143D01*
X009749Y037143D01*
X009676Y037215D01*
X009749Y037360D02*
X009893Y037360D01*
X009966Y037288D01*
X009966Y037215D01*
X009749Y037360D02*
X009676Y037432D01*
X009676Y037505D01*
X009749Y037577D01*
X009893Y037577D01*
X009966Y037505D01*
D13*
X011834Y002927D02*
X011834Y002823D01*
X011834Y002616D02*
X011834Y002203D01*
X011731Y002203D02*
X011938Y002203D01*
X012161Y002203D02*
X012161Y002616D01*
X012471Y002616D01*
X012574Y002513D01*
X012574Y002203D01*
X012805Y002203D02*
X013012Y002203D01*
X012908Y002203D02*
X012908Y002616D01*
X012805Y002616D01*
X012908Y002823D02*
X012908Y002927D01*
X013235Y002823D02*
X013235Y002203D01*
X013648Y002203D01*
X013879Y002203D02*
X013879Y002616D01*
X014086Y002823D01*
X014293Y002616D01*
X014293Y002203D01*
X014293Y002513D02*
X013879Y002513D01*
X015168Y002616D02*
X015375Y002203D01*
X015582Y002616D01*
X016457Y002616D02*
X016664Y002823D01*
X016664Y002203D01*
X016457Y002203D02*
X016871Y002203D01*
X017102Y002203D02*
X017205Y002203D01*
X017205Y002306D01*
X017102Y002306D01*
X017102Y002203D01*
X017424Y002203D02*
X017838Y002203D01*
X017631Y002203D02*
X017631Y002823D01*
X017424Y002616D01*
X018713Y002823D02*
X018713Y002203D01*
X019127Y002203D01*
X019358Y002203D02*
X019358Y002823D01*
X019668Y002823D01*
X019771Y002720D01*
X019771Y002513D01*
X019668Y002410D01*
X019358Y002410D01*
X020002Y002823D02*
X020416Y002823D01*
X020209Y002823D02*
X020209Y002203D01*
X021291Y002410D02*
X021291Y002616D01*
X021498Y002823D01*
X021721Y002513D02*
X021721Y002306D01*
X021824Y002203D01*
X022135Y002203D01*
X022366Y002203D02*
X022572Y002410D01*
X022572Y002616D01*
X022366Y002823D01*
X022135Y002616D02*
X021824Y002616D01*
X021721Y002513D01*
X021498Y002203D02*
X021291Y002410D01*
X022795Y002203D02*
X023209Y002616D01*
X023209Y002720D01*
X023105Y002823D01*
X022899Y002823D01*
X022795Y002720D01*
X023440Y002720D02*
X023440Y002306D01*
X023853Y002720D01*
X023853Y002306D01*
X023750Y002203D01*
X023543Y002203D01*
X023440Y002306D01*
X023209Y002203D02*
X022795Y002203D01*
X023440Y002720D02*
X023543Y002823D01*
X023750Y002823D01*
X023853Y002720D01*
X024084Y002720D02*
X024188Y002823D01*
X024394Y002823D01*
X024498Y002720D01*
X024084Y002306D01*
X024188Y002203D01*
X024394Y002203D01*
X024498Y002306D01*
X024498Y002720D01*
X024729Y002720D02*
X024832Y002823D01*
X025039Y002823D01*
X025142Y002720D01*
X025142Y002616D01*
X025039Y002513D01*
X025142Y002410D01*
X025142Y002306D01*
X025039Y002203D01*
X024832Y002203D01*
X024729Y002306D01*
X024936Y002513D02*
X025039Y002513D01*
X025373Y002513D02*
X025787Y002513D01*
X026018Y002513D02*
X026018Y002823D01*
X026431Y002823D01*
X026328Y002616D02*
X026431Y002513D01*
X026431Y002306D01*
X026328Y002203D01*
X026121Y002203D01*
X026018Y002306D01*
X026018Y002513D02*
X026225Y002616D01*
X026328Y002616D01*
X027307Y002410D02*
X027617Y002203D01*
X027844Y002306D02*
X027947Y002203D01*
X028154Y002203D01*
X028258Y002306D01*
X028258Y002513D01*
X028154Y002616D01*
X027947Y002616D01*
X027844Y002513D01*
X027844Y002306D01*
X027617Y002616D02*
X027307Y002410D01*
X027307Y002203D02*
X027307Y002823D01*
X028489Y002513D02*
X028592Y002616D01*
X028902Y002616D01*
X028799Y002410D02*
X028592Y002410D01*
X028489Y002513D01*
X028489Y002203D02*
X028799Y002203D01*
X028902Y002306D01*
X028799Y002410D01*
X029133Y002616D02*
X029340Y002616D01*
X029236Y002720D02*
X029236Y002306D01*
X029340Y002203D01*
X029563Y002306D02*
X029666Y002410D01*
X029976Y002410D01*
X029976Y002513D02*
X029976Y002203D01*
X029666Y002203D01*
X029563Y002306D01*
X029666Y002616D02*
X029873Y002616D01*
X029976Y002513D01*
X030207Y002306D02*
X030207Y002720D01*
X030311Y002823D01*
X030517Y002823D01*
X030621Y002720D01*
X030621Y002513D01*
X030517Y002410D01*
X030517Y002616D01*
X030311Y002616D01*
X030311Y002410D01*
X030517Y002410D01*
X030621Y002306D02*
X030517Y002203D01*
X030311Y002203D01*
X030207Y002306D01*
X030852Y002203D02*
X030852Y002616D01*
X030955Y002616D01*
X031059Y002513D01*
X031162Y002616D01*
X031265Y002513D01*
X031265Y002203D01*
X031059Y002203D02*
X031059Y002513D01*
X031496Y002513D02*
X031496Y002306D01*
X031600Y002203D01*
X031910Y002203D01*
X032141Y002306D02*
X032244Y002203D01*
X032554Y002203D01*
X032554Y002616D01*
X032785Y002306D02*
X032889Y002306D01*
X032889Y002203D01*
X032785Y002203D01*
X032785Y002306D01*
X033108Y002306D02*
X033211Y002203D01*
X033521Y002203D01*
X033752Y002203D02*
X034166Y002203D01*
X034166Y002616D02*
X033752Y002616D01*
X033521Y002616D02*
X033211Y002616D01*
X033108Y002513D01*
X033108Y002306D01*
X033752Y002203D02*
X034166Y002616D01*
X032141Y002616D02*
X032141Y002306D01*
X031910Y002616D02*
X031600Y002616D01*
X031496Y002513D01*
X024084Y002306D02*
X024084Y002720D01*
X011834Y002616D02*
X011731Y002616D01*
X011500Y002513D02*
X011500Y002203D01*
X011293Y002203D02*
X011293Y002513D01*
X011397Y002616D01*
X011500Y002513D01*
X011293Y002513D02*
X011190Y002616D01*
X011086Y002616D01*
X011086Y002203D01*
D14*
X008896Y009093D03*
X008896Y010183D03*
X007896Y010723D03*
X008896Y011263D03*
X007896Y011813D03*
X008896Y012353D03*
X007896Y012893D03*
X007896Y013983D03*
X008896Y014523D03*
X007896Y015073D03*
X008896Y015613D03*
X007896Y016153D03*
X008896Y016703D03*
X008896Y017783D03*
X007896Y017243D03*
X007896Y018333D03*
X008896Y018873D03*
X007896Y019413D03*
X008896Y019963D03*
X007896Y020503D03*
X007896Y021593D03*
X008896Y021043D03*
X008896Y013443D03*
X007896Y009633D03*
D15*
X008896Y022133D03*
D16*
X008396Y024873D03*
X008396Y006353D03*
D17*
X031596Y014813D03*
X032146Y015313D03*
X032696Y015813D03*
X037996Y011363D03*
X046546Y010963D03*
X046546Y009963D03*
X047546Y009963D03*
X047546Y010963D03*
X047546Y011963D03*
X046546Y011963D03*
X046546Y008963D03*
X046546Y007963D03*
X047546Y007963D03*
X047546Y008963D03*
X047546Y006963D03*
X046546Y006963D03*
X046546Y005963D03*
X046546Y004963D03*
X047546Y004963D03*
X047546Y005963D03*
X051546Y005963D03*
X051546Y004963D03*
X052546Y004963D03*
X052546Y005963D03*
X052546Y006963D03*
X051546Y006963D03*
X051546Y007963D03*
X051546Y008963D03*
X052546Y008963D03*
X052546Y007963D03*
X052546Y009963D03*
X051546Y009963D03*
X051546Y010963D03*
X052546Y010963D03*
X052546Y011963D03*
X051546Y011963D03*
X051546Y016463D03*
X052546Y016463D03*
X052546Y017463D03*
X051546Y017463D03*
X051546Y018463D03*
X052546Y018463D03*
X052546Y019463D03*
X051546Y019463D03*
X051546Y020463D03*
X051546Y021463D03*
X052546Y021463D03*
X052546Y020463D03*
X052546Y022463D03*
X051546Y022463D03*
X051546Y023463D03*
X052546Y023463D03*
X047546Y023463D03*
X046546Y023463D03*
X046546Y022463D03*
X047546Y022463D03*
X047546Y021463D03*
X046546Y021463D03*
X046546Y020463D03*
X047546Y020463D03*
X047546Y019463D03*
X046546Y019463D03*
X046546Y018463D03*
X046546Y017463D03*
X047546Y017463D03*
X047546Y018463D03*
X047546Y016463D03*
X046546Y016463D03*
X046546Y027963D03*
X047546Y027963D03*
X047546Y028963D03*
X046546Y028963D03*
X046546Y029963D03*
X046546Y030963D03*
X047546Y030963D03*
X047546Y029963D03*
X047546Y031963D03*
X046546Y031963D03*
X046546Y032963D03*
X046546Y033963D03*
X047546Y033963D03*
X047546Y032963D03*
X047546Y034963D03*
X046546Y034963D03*
X051546Y031963D03*
X052546Y031963D03*
X052546Y030963D03*
X051546Y030963D03*
X051546Y029963D03*
X052546Y029963D03*
X052546Y028963D03*
X051546Y028963D03*
X051546Y027963D03*
X052546Y027963D03*
X027646Y022863D03*
X026646Y022863D03*
X025646Y022863D03*
X024646Y022863D03*
X026446Y030263D03*
X026446Y031263D03*
D18*
X013620Y022263D03*
X012872Y022263D03*
X012872Y021263D03*
X013620Y021263D03*
X013620Y020263D03*
X012872Y020263D03*
X011720Y020263D03*
X010972Y020263D03*
X010972Y021263D03*
X011720Y021263D03*
X011720Y022263D03*
X010972Y022263D03*
X010972Y019263D03*
X011720Y019263D03*
X011720Y018263D03*
X010972Y018263D03*
X010972Y017263D03*
X011720Y017263D03*
X012872Y017263D03*
X013620Y017263D03*
X013620Y018263D03*
X012872Y018263D03*
X012872Y019263D03*
X013620Y019263D03*
X013620Y016263D03*
X012872Y016263D03*
X012872Y015263D03*
X013620Y015263D03*
X013620Y014263D03*
X012872Y014263D03*
X012872Y013263D03*
X013620Y013263D03*
X013620Y012263D03*
X012872Y012263D03*
X011720Y012263D03*
X010972Y012263D03*
X010972Y013263D03*
X011720Y013263D03*
X011720Y014263D03*
X010972Y014263D03*
X010972Y015263D03*
X011720Y015263D03*
X011720Y016263D03*
X010972Y016263D03*
X010972Y011263D03*
X011720Y011263D03*
X012872Y011263D03*
X013620Y011263D03*
X043672Y010963D03*
X044420Y010963D03*
X044420Y009963D03*
X043672Y009963D03*
X043672Y008963D03*
X044420Y008963D03*
X044420Y007963D03*
X043672Y007963D03*
X043672Y006963D03*
X044420Y006963D03*
X044420Y005963D03*
X043672Y005963D03*
X043672Y004963D03*
X044420Y004963D03*
X049672Y004963D03*
X050420Y004963D03*
X050420Y005963D03*
X049672Y005963D03*
X049672Y006963D03*
X050420Y006963D03*
X050420Y007963D03*
X049672Y007963D03*
X049672Y008963D03*
X050420Y008963D03*
X050420Y009963D03*
X049672Y009963D03*
X049672Y010963D03*
X050420Y010963D03*
X050420Y011963D03*
X049672Y011963D03*
X044420Y011963D03*
X043672Y011963D03*
X043672Y016463D03*
X044420Y016463D03*
X044420Y017463D03*
X043672Y017463D03*
X043672Y018463D03*
X044420Y018463D03*
X044420Y019463D03*
X043672Y019463D03*
X043672Y020463D03*
X044420Y020463D03*
X044420Y021463D03*
X043672Y021463D03*
X043672Y022463D03*
X044420Y022463D03*
X044420Y023463D03*
X043672Y023463D03*
X049672Y023463D03*
X050420Y023463D03*
X050420Y022463D03*
X049672Y022463D03*
X049672Y021463D03*
X050420Y021463D03*
X050420Y020463D03*
X049672Y020463D03*
X049672Y019463D03*
X050420Y019463D03*
X050420Y018463D03*
X049672Y018463D03*
X049672Y017463D03*
X050420Y017463D03*
X050420Y016463D03*
X049672Y016463D03*
X049672Y027963D03*
X050420Y027963D03*
X050420Y028963D03*
X049672Y028963D03*
X049672Y029963D03*
X050420Y029963D03*
X050420Y030963D03*
X049672Y030963D03*
X049672Y031963D03*
X050420Y031963D03*
D19*
X027132Y017027D03*
X026876Y017027D03*
X026620Y017027D03*
X026364Y017027D03*
X026108Y017027D03*
X025852Y017027D03*
X025596Y017027D03*
X025341Y017027D03*
X025085Y017027D03*
X024829Y017027D03*
X024573Y017027D03*
X024317Y017027D03*
X024061Y017027D03*
X023805Y017027D03*
X023549Y017027D03*
X023293Y017027D03*
X023037Y017027D03*
X022782Y017027D03*
X022526Y017027D03*
X022270Y017027D03*
X022014Y017027D03*
X021758Y017027D03*
X021502Y017027D03*
X021246Y017027D03*
X020990Y017027D03*
X020734Y017027D03*
X020478Y017027D03*
X020222Y017027D03*
X019967Y017027D03*
X019711Y017027D03*
X019711Y010649D03*
X019967Y010649D03*
X020222Y010649D03*
X020478Y010649D03*
X020734Y010649D03*
X020990Y010649D03*
X021246Y010649D03*
X021502Y010649D03*
X021758Y010649D03*
X022014Y010649D03*
X022270Y010649D03*
X022526Y010649D03*
X022782Y010649D03*
X023037Y010649D03*
X023293Y010649D03*
X023549Y010649D03*
X023805Y010649D03*
X024061Y010649D03*
X024317Y010649D03*
X024573Y010649D03*
X024829Y010649D03*
X025085Y010649D03*
X025341Y010649D03*
X025596Y010649D03*
X025852Y010649D03*
X026108Y010649D03*
X026364Y010649D03*
X026620Y010649D03*
X026876Y010649D03*
X027132Y010649D03*
D20*
X027791Y011407D03*
X027791Y011663D03*
X027791Y011919D03*
X027791Y012174D03*
X027791Y012430D03*
X027791Y012686D03*
X027791Y012942D03*
X027791Y013198D03*
X027791Y013454D03*
X027791Y013710D03*
X027791Y013966D03*
X027791Y014222D03*
X027791Y014478D03*
X027791Y014734D03*
X027791Y014989D03*
X027791Y015245D03*
X027791Y015501D03*
X027791Y015757D03*
X027791Y016013D03*
X027791Y016269D03*
X019051Y016269D03*
X019051Y016013D03*
X019051Y015757D03*
X019051Y015501D03*
X019051Y015245D03*
X019051Y014989D03*
X019051Y014734D03*
X019051Y014478D03*
X019051Y014222D03*
X019051Y013966D03*
X019051Y013710D03*
X019051Y013454D03*
X019051Y013198D03*
X019051Y012942D03*
X019051Y012686D03*
X019051Y012430D03*
X019051Y012174D03*
X019051Y011919D03*
X019051Y011663D03*
X019051Y011407D03*
D21*
X030618Y013781D03*
X030757Y013642D03*
X030896Y013503D03*
X031035Y013363D03*
X031174Y013224D03*
X031314Y013085D03*
X031453Y012946D03*
X031592Y012807D03*
X031731Y012668D03*
X031871Y012528D03*
X032010Y012389D03*
X032149Y012250D03*
X032288Y012111D03*
X032427Y011972D03*
X032566Y011832D03*
X032706Y011693D03*
X032845Y011554D03*
X032984Y011415D03*
X033123Y011276D03*
X033262Y011136D03*
X033402Y010997D03*
X033541Y010858D03*
X033680Y010719D03*
X033819Y010580D03*
X033958Y010440D03*
X034098Y010301D03*
X034237Y010162D03*
X034376Y010023D03*
X034515Y009884D03*
X034654Y009744D03*
X034794Y009605D03*
X034933Y009466D03*
X035072Y009327D03*
X035211Y009188D03*
X035350Y009048D03*
X035489Y008909D03*
X036603Y008909D03*
X036742Y009048D03*
X036881Y009188D03*
X037021Y009327D03*
X037160Y009466D03*
X037299Y009605D03*
X037438Y009744D03*
X037577Y009884D03*
X037717Y010023D03*
X037856Y010162D03*
X037995Y010301D03*
X038134Y010440D03*
X038273Y010580D03*
X038413Y010719D03*
X038552Y010858D03*
X038691Y010997D03*
X038830Y011136D03*
X038969Y011276D03*
X039109Y011415D03*
X039248Y011554D03*
X039387Y011693D03*
X039526Y011832D03*
X039665Y011972D03*
X039805Y012111D03*
X039944Y012250D03*
X040083Y012389D03*
X040222Y012528D03*
X040361Y012668D03*
X040501Y012807D03*
X040640Y012946D03*
X040779Y013085D03*
X040918Y013224D03*
X041057Y013363D03*
X041196Y013503D03*
X041336Y013642D03*
X041475Y013781D03*
X041475Y014895D03*
X041336Y015034D03*
X041196Y015173D03*
X041057Y015312D03*
X040918Y015451D03*
X040779Y015591D03*
X040640Y015730D03*
X040501Y015869D03*
X040361Y016008D03*
X040222Y016147D03*
X040083Y016287D03*
X039944Y016426D03*
X039805Y016565D03*
X039665Y016704D03*
X039526Y016843D03*
X039387Y016983D03*
X039248Y017122D03*
X039109Y017261D03*
X038969Y017400D03*
X038830Y017539D03*
X038691Y017678D03*
X038552Y017818D03*
X038413Y017957D03*
X038273Y018096D03*
X038134Y018235D03*
X037995Y018375D03*
X037856Y018514D03*
X037717Y018653D03*
X037577Y018792D03*
X037438Y018931D03*
X037299Y019070D03*
X037160Y019210D03*
X037021Y019349D03*
X036881Y019488D03*
X036742Y019627D03*
X036603Y019766D03*
X035489Y019766D03*
X035350Y019627D03*
X035211Y019488D03*
X035072Y019349D03*
X034933Y019210D03*
X034794Y019070D03*
X034654Y018931D03*
X034515Y018792D03*
X034376Y018653D03*
X034237Y018514D03*
X034098Y018375D03*
X033958Y018235D03*
X033819Y018096D03*
X033680Y017957D03*
X033541Y017818D03*
X033402Y017678D03*
X033262Y017539D03*
X033123Y017400D03*
X032984Y017261D03*
X032845Y017122D03*
X032706Y016983D03*
X032566Y016843D03*
X032427Y016704D03*
X032288Y016565D03*
X032149Y016426D03*
X032010Y016287D03*
X031871Y016147D03*
X031731Y016008D03*
X031592Y015869D03*
X031453Y015730D03*
X031314Y015591D03*
X031174Y015451D03*
X031035Y015312D03*
X030896Y015173D03*
X030757Y015034D03*
X030618Y014895D03*
D22*
X030667Y014971D02*
X030416Y014971D01*
X030377Y015009D02*
X030629Y015009D01*
X030656Y015009D02*
X030907Y015009D01*
X030934Y015009D02*
X031095Y015009D01*
X031056Y014971D02*
X030973Y014971D01*
X030946Y014971D02*
X030694Y014971D01*
X030706Y014932D02*
X030454Y014932D01*
X030493Y014894D02*
X030744Y014894D01*
X030771Y014894D02*
X030979Y014894D01*
X031001Y014916D02*
X030875Y014790D01*
X030513Y015152D01*
X030639Y015278D01*
X031001Y014916D01*
X030875Y014790D01*
X030513Y015152D01*
X030639Y015278D01*
X031001Y014916D01*
X031014Y014929D02*
X031140Y015055D01*
X030778Y015417D01*
X030652Y015291D01*
X031014Y014929D01*
X031140Y015055D01*
X030778Y015417D01*
X030652Y015291D01*
X031014Y014929D01*
X031011Y014932D02*
X031018Y014932D01*
X030984Y014932D02*
X030733Y014932D01*
X030783Y014855D02*
X030532Y014855D01*
X030570Y014817D02*
X030821Y014817D01*
X030849Y014817D02*
X030902Y014817D01*
X030940Y014855D02*
X030810Y014855D01*
X030860Y014778D02*
X030609Y014778D01*
X030647Y014739D02*
X030825Y014739D01*
X030862Y014776D02*
X030736Y014651D01*
X030374Y015013D01*
X030499Y015139D01*
X030862Y014776D01*
X030736Y014651D01*
X030374Y015013D01*
X030499Y015139D01*
X030862Y014776D01*
X030786Y014701D02*
X030686Y014701D01*
X030724Y014662D02*
X030748Y014662D01*
X030869Y015048D02*
X030617Y015048D01*
X030590Y015048D02*
X030409Y015048D01*
X030447Y015086D02*
X030552Y015086D01*
X030579Y015086D02*
X030830Y015086D01*
X030857Y015086D02*
X031108Y015086D01*
X031135Y015086D02*
X031172Y015086D01*
X031154Y015068D02*
X031279Y015194D01*
X030917Y015556D01*
X030791Y015431D01*
X031154Y015068D01*
X031279Y015194D01*
X030917Y015556D01*
X030791Y015431D01*
X031154Y015068D01*
X031133Y015048D02*
X030896Y015048D01*
X030819Y015125D02*
X031070Y015125D01*
X031097Y015125D02*
X031210Y015125D01*
X031249Y015163D02*
X031058Y015163D01*
X031031Y015163D02*
X030780Y015163D01*
X030753Y015163D02*
X030524Y015163D01*
X030513Y015125D02*
X030486Y015125D01*
X030540Y015125D02*
X030792Y015125D01*
X030741Y015202D02*
X030993Y015202D01*
X031020Y015202D02*
X031271Y015202D01*
X031293Y015207D02*
X031419Y015333D01*
X031056Y015695D01*
X030931Y015570D01*
X031293Y015207D01*
X031419Y015333D01*
X031056Y015695D01*
X030931Y015570D01*
X031293Y015207D01*
X031260Y015241D02*
X031326Y015241D01*
X031365Y015279D02*
X031221Y015279D01*
X031194Y015279D02*
X030943Y015279D01*
X030916Y015279D02*
X030664Y015279D01*
X030676Y015241D02*
X030601Y015241D01*
X030563Y015202D02*
X030714Y015202D01*
X030703Y015241D02*
X030954Y015241D01*
X030981Y015241D02*
X031233Y015241D01*
X031183Y015318D02*
X031403Y015318D01*
X031395Y015356D02*
X031144Y015356D01*
X031117Y015356D02*
X030866Y015356D01*
X030839Y015356D02*
X030717Y015356D01*
X030678Y015318D02*
X030877Y015318D01*
X030904Y015318D02*
X031156Y015318D01*
X031105Y015395D02*
X031357Y015395D01*
X031384Y015395D02*
X031480Y015395D01*
X031519Y015433D02*
X031345Y015433D01*
X031318Y015433D02*
X031067Y015433D01*
X031040Y015433D02*
X030794Y015433D01*
X030800Y015395D02*
X030755Y015395D01*
X030827Y015395D02*
X031079Y015395D01*
X031028Y015472D02*
X031280Y015472D01*
X031307Y015472D02*
X031557Y015472D01*
X031558Y015472D02*
X031432Y015347D01*
X031070Y015709D01*
X031195Y015835D01*
X031558Y015472D01*
X031432Y015347D01*
X031070Y015709D01*
X031195Y015835D01*
X031558Y015472D01*
X031571Y015486D02*
X031697Y015611D01*
X031335Y015974D01*
X031209Y015848D01*
X031571Y015486D01*
X031697Y015611D01*
X031335Y015974D01*
X031209Y015848D01*
X031571Y015486D01*
X031547Y015510D02*
X031596Y015510D01*
X031634Y015549D02*
X031508Y015549D01*
X031481Y015549D02*
X031230Y015549D01*
X031203Y015549D02*
X030951Y015549D01*
X030924Y015549D02*
X030910Y015549D01*
X030948Y015587D02*
X031164Y015587D01*
X031191Y015587D02*
X031443Y015587D01*
X031469Y015587D02*
X031673Y015587D01*
X031682Y015626D02*
X031431Y015626D01*
X031404Y015626D02*
X031153Y015626D01*
X031126Y015626D02*
X030987Y015626D01*
X031025Y015665D02*
X031087Y015665D01*
X031114Y015665D02*
X031366Y015665D01*
X031392Y015665D02*
X031644Y015665D01*
X031671Y015665D02*
X031750Y015665D01*
X031788Y015703D02*
X031632Y015703D01*
X031605Y015703D02*
X031354Y015703D01*
X031327Y015703D02*
X031076Y015703D01*
X031102Y015742D02*
X031288Y015742D01*
X031315Y015742D02*
X031567Y015742D01*
X031594Y015742D02*
X031827Y015742D01*
X031836Y015751D02*
X031710Y015625D01*
X031348Y015987D01*
X031474Y016113D01*
X031836Y015751D01*
X031710Y015625D01*
X031348Y015987D01*
X031474Y016113D01*
X031836Y015751D01*
X031849Y015764D02*
X031975Y015890D01*
X031613Y016252D01*
X031487Y016126D01*
X031849Y015764D01*
X031975Y015890D01*
X031613Y016252D01*
X031487Y016126D01*
X031849Y015764D01*
X031833Y015780D02*
X031866Y015780D01*
X031904Y015819D02*
X031795Y015819D01*
X031768Y015819D02*
X031517Y015819D01*
X031490Y015819D02*
X031238Y015819D01*
X031211Y015819D02*
X031179Y015819D01*
X031141Y015780D02*
X031250Y015780D01*
X031277Y015780D02*
X031528Y015780D01*
X031555Y015780D02*
X031807Y015780D01*
X031756Y015857D02*
X031943Y015857D01*
X031969Y015896D02*
X031718Y015896D01*
X031691Y015896D02*
X031440Y015896D01*
X031413Y015896D02*
X031257Y015896D01*
X031295Y015934D02*
X031374Y015934D01*
X031401Y015934D02*
X031652Y015934D01*
X031679Y015934D02*
X031931Y015934D01*
X031958Y015934D02*
X032020Y015934D01*
X031989Y015903D02*
X032114Y016029D01*
X031752Y016391D01*
X031626Y016266D01*
X031989Y015903D01*
X032114Y016029D01*
X031752Y016391D01*
X031626Y016266D01*
X031989Y015903D01*
X031919Y015973D02*
X032058Y015973D01*
X032097Y016011D02*
X031881Y016011D01*
X031854Y016011D02*
X031602Y016011D01*
X031575Y016011D02*
X031372Y016011D01*
X031363Y015973D02*
X031614Y015973D01*
X031641Y015973D02*
X031892Y015973D01*
X031842Y016050D02*
X032094Y016050D01*
X032120Y016050D02*
X032135Y016050D01*
X032128Y016043D02*
X032254Y016168D01*
X031891Y016531D01*
X031766Y016405D01*
X032128Y016043D01*
X032254Y016168D01*
X031891Y016531D01*
X031766Y016405D01*
X032128Y016043D01*
X032082Y016089D02*
X032174Y016089D01*
X032213Y016127D02*
X032043Y016127D01*
X032017Y016127D02*
X031765Y016127D01*
X031738Y016127D02*
X031488Y016127D01*
X031498Y016089D02*
X031449Y016089D01*
X031411Y016050D02*
X031537Y016050D01*
X031564Y016050D02*
X031815Y016050D01*
X031804Y016089D02*
X032055Y016089D01*
X032005Y016166D02*
X032251Y016166D01*
X032267Y016182D02*
X032393Y016307D01*
X032031Y016670D01*
X031905Y016544D01*
X032267Y016182D01*
X032393Y016307D01*
X032031Y016670D01*
X031905Y016544D01*
X032267Y016182D01*
X032245Y016204D02*
X032290Y016204D01*
X032328Y016243D02*
X032206Y016243D01*
X032179Y016243D02*
X031928Y016243D01*
X031901Y016243D02*
X031649Y016243D01*
X031622Y016243D02*
X031604Y016243D01*
X031642Y016281D02*
X031862Y016281D01*
X031889Y016281D02*
X032141Y016281D01*
X032168Y016281D02*
X032367Y016281D01*
X032381Y016320D02*
X032129Y016320D01*
X032102Y016320D02*
X031851Y016320D01*
X031824Y016320D02*
X031681Y016320D01*
X031719Y016358D02*
X031785Y016358D01*
X031812Y016358D02*
X032064Y016358D01*
X032091Y016358D02*
X032342Y016358D01*
X032369Y016358D02*
X032444Y016358D01*
X032406Y016321D02*
X032532Y016447D01*
X032170Y016809D01*
X032044Y016683D01*
X032406Y016321D01*
X032532Y016447D01*
X032170Y016809D01*
X032044Y016683D01*
X032406Y016321D01*
X032330Y016397D02*
X032482Y016397D01*
X032521Y016435D02*
X032292Y016435D01*
X032265Y016435D02*
X032014Y016435D01*
X031986Y016435D02*
X031796Y016435D01*
X031774Y016397D02*
X032025Y016397D01*
X032052Y016397D02*
X032304Y016397D01*
X032253Y016474D02*
X032505Y016474D01*
X032532Y016474D02*
X032559Y016474D01*
X032546Y016460D02*
X032671Y016586D01*
X032309Y016948D01*
X032183Y016822D01*
X032546Y016460D01*
X032671Y016586D01*
X032309Y016948D01*
X032183Y016822D01*
X032546Y016460D01*
X032598Y016512D02*
X032493Y016512D01*
X032466Y016512D02*
X032215Y016512D01*
X032188Y016512D02*
X031936Y016512D01*
X031909Y016512D02*
X031873Y016512D01*
X031835Y016474D02*
X031948Y016474D01*
X031975Y016474D02*
X032226Y016474D01*
X032176Y016551D02*
X032428Y016551D01*
X032455Y016551D02*
X032636Y016551D01*
X032668Y016590D02*
X032416Y016590D01*
X032389Y016590D02*
X032138Y016590D01*
X032111Y016590D02*
X031950Y016590D01*
X031989Y016628D02*
X032072Y016628D01*
X032099Y016628D02*
X032351Y016628D01*
X032378Y016628D02*
X032629Y016628D01*
X032656Y016628D02*
X032713Y016628D01*
X032685Y016599D02*
X032810Y016725D01*
X032448Y017087D01*
X032322Y016962D01*
X032685Y016599D01*
X032810Y016725D01*
X032448Y017087D01*
X032322Y016962D01*
X032685Y016599D01*
X032752Y016667D02*
X032617Y016667D01*
X032590Y016667D02*
X032339Y016667D01*
X032312Y016667D02*
X032061Y016667D01*
X032034Y016667D02*
X032027Y016667D01*
X032066Y016705D02*
X032273Y016705D01*
X032301Y016705D02*
X032552Y016705D01*
X032579Y016705D02*
X032791Y016705D01*
X032792Y016744D02*
X032540Y016744D01*
X032513Y016744D02*
X032262Y016744D01*
X032235Y016744D02*
X032104Y016744D01*
X032143Y016782D02*
X032196Y016782D01*
X032223Y016782D02*
X032475Y016782D01*
X032502Y016782D02*
X032753Y016782D01*
X032780Y016782D02*
X032868Y016782D01*
X032906Y016821D02*
X032742Y016821D01*
X032715Y016821D02*
X032463Y016821D01*
X032436Y016821D02*
X032185Y016821D01*
X032220Y016859D02*
X032398Y016859D01*
X032425Y016859D02*
X032676Y016859D01*
X032703Y016859D02*
X032945Y016859D01*
X032950Y016864D02*
X032824Y016739D01*
X032462Y017101D01*
X032587Y017227D01*
X032950Y016864D01*
X032824Y016739D01*
X032462Y017101D01*
X032587Y017227D01*
X032950Y016864D01*
X032963Y016878D02*
X033089Y017003D01*
X032726Y017366D01*
X032601Y017240D01*
X032963Y016878D01*
X033089Y017003D01*
X032726Y017366D01*
X032601Y017240D01*
X032963Y016878D01*
X032943Y016898D02*
X032983Y016898D01*
X033022Y016936D02*
X032904Y016936D01*
X032877Y016936D02*
X032626Y016936D01*
X032599Y016936D02*
X032348Y016936D01*
X032321Y016936D02*
X032297Y016936D01*
X032259Y016898D02*
X032359Y016898D01*
X032386Y016898D02*
X032638Y016898D01*
X032665Y016898D02*
X032916Y016898D01*
X032866Y016975D02*
X033060Y016975D01*
X033079Y017014D02*
X032827Y017014D01*
X032800Y017014D02*
X032549Y017014D01*
X032522Y017014D02*
X032374Y017014D01*
X032413Y017052D02*
X032483Y017052D01*
X032510Y017052D02*
X032762Y017052D01*
X032789Y017052D02*
X033040Y017052D01*
X033067Y017052D02*
X033137Y017052D01*
X033102Y017017D02*
X033228Y017143D01*
X032866Y017505D01*
X032740Y017379D01*
X033102Y017017D01*
X033228Y017143D01*
X032866Y017505D01*
X032740Y017379D01*
X033102Y017017D01*
X033029Y017091D02*
X033176Y017091D01*
X033215Y017129D02*
X032990Y017129D01*
X032963Y017129D02*
X032712Y017129D01*
X032685Y017129D02*
X032490Y017129D01*
X032472Y017091D02*
X032723Y017091D01*
X032750Y017091D02*
X033002Y017091D01*
X032952Y017168D02*
X033203Y017168D01*
X033230Y017168D02*
X033253Y017168D01*
X033241Y017156D02*
X033367Y017282D01*
X033005Y017644D01*
X032879Y017518D01*
X033241Y017156D01*
X033367Y017282D01*
X033005Y017644D01*
X032879Y017518D01*
X033241Y017156D01*
X033191Y017206D02*
X033292Y017206D01*
X033330Y017245D02*
X033153Y017245D01*
X033126Y017245D02*
X032874Y017245D01*
X032847Y017245D02*
X032606Y017245D01*
X032608Y017206D02*
X032567Y017206D01*
X032529Y017168D02*
X032646Y017168D01*
X032673Y017168D02*
X032924Y017168D01*
X032913Y017206D02*
X033164Y017206D01*
X033114Y017283D02*
X033366Y017283D01*
X033381Y017295D02*
X033506Y017421D01*
X033144Y017783D01*
X033018Y017658D01*
X033381Y017295D01*
X033506Y017421D01*
X033144Y017783D01*
X033018Y017658D01*
X033381Y017295D01*
X033407Y017322D02*
X033354Y017322D01*
X033327Y017322D02*
X033076Y017322D01*
X033049Y017322D02*
X032797Y017322D01*
X032770Y017322D02*
X032683Y017322D01*
X032721Y017360D02*
X032732Y017360D01*
X032759Y017360D02*
X033010Y017360D01*
X033037Y017360D02*
X033289Y017360D01*
X033316Y017360D02*
X033446Y017360D01*
X033484Y017399D02*
X033277Y017399D01*
X033250Y017399D02*
X032999Y017399D01*
X032972Y017399D02*
X032760Y017399D01*
X032798Y017438D02*
X032933Y017438D01*
X032960Y017438D02*
X033211Y017438D01*
X033239Y017438D02*
X033490Y017438D01*
X033517Y017438D02*
X033523Y017438D01*
X033520Y017434D02*
X033646Y017560D01*
X033283Y017922D01*
X033158Y017797D01*
X033520Y017434D01*
X033646Y017560D01*
X033283Y017922D01*
X033158Y017797D01*
X033520Y017434D01*
X033561Y017476D02*
X033478Y017476D01*
X033451Y017476D02*
X033200Y017476D01*
X033173Y017476D02*
X032922Y017476D01*
X032895Y017476D02*
X032837Y017476D01*
X032883Y017515D02*
X033134Y017515D01*
X033161Y017515D02*
X033413Y017515D01*
X033440Y017515D02*
X033600Y017515D01*
X033639Y017553D02*
X033401Y017553D01*
X033374Y017553D02*
X033123Y017553D01*
X033096Y017553D02*
X032914Y017553D01*
X032952Y017592D02*
X033057Y017592D01*
X033084Y017592D02*
X033336Y017592D01*
X033363Y017592D02*
X033614Y017592D01*
X033641Y017592D02*
X033677Y017592D01*
X033659Y017574D02*
X033785Y017699D01*
X033423Y018062D01*
X033297Y017936D01*
X033659Y017574D01*
X033785Y017699D01*
X033423Y018062D01*
X033297Y017936D01*
X033659Y017574D01*
X033603Y017630D02*
X033716Y017630D01*
X033754Y017669D02*
X033564Y017669D01*
X033537Y017669D02*
X033286Y017669D01*
X033259Y017669D02*
X033030Y017669D01*
X033019Y017630D02*
X032991Y017630D01*
X033046Y017630D02*
X033297Y017630D01*
X033324Y017630D02*
X033576Y017630D01*
X033526Y017707D02*
X033777Y017707D01*
X033798Y017713D02*
X033924Y017839D01*
X033562Y018201D01*
X033436Y018075D01*
X033798Y017713D01*
X033924Y017839D01*
X033562Y018201D01*
X033436Y018075D01*
X033798Y017713D01*
X033765Y017746D02*
X033831Y017746D01*
X033870Y017784D02*
X033727Y017784D01*
X033700Y017784D02*
X033448Y017784D01*
X033421Y017784D02*
X033170Y017784D01*
X033182Y017746D02*
X033107Y017746D01*
X033068Y017707D02*
X033220Y017707D01*
X033247Y017707D02*
X033498Y017707D01*
X033487Y017746D02*
X033738Y017746D01*
X033688Y017823D02*
X033908Y017823D01*
X033901Y017861D02*
X033650Y017861D01*
X033623Y017861D02*
X033371Y017861D01*
X033344Y017861D02*
X033222Y017861D01*
X033184Y017823D02*
X033383Y017823D01*
X033410Y017823D02*
X033661Y017823D01*
X033611Y017900D02*
X033862Y017900D01*
X033890Y017900D02*
X033985Y017900D01*
X033947Y017861D02*
X033928Y017861D01*
X033937Y017852D02*
X034063Y017978D01*
X033701Y018340D01*
X033575Y018214D01*
X033937Y017852D01*
X034063Y017978D01*
X033701Y018340D01*
X033575Y018214D01*
X033937Y017852D01*
X033851Y017939D02*
X034024Y017939D01*
X034062Y017977D02*
X033813Y017977D01*
X033785Y017977D02*
X033534Y017977D01*
X033507Y017977D02*
X033338Y017977D01*
X033299Y017939D02*
X033546Y017939D01*
X033573Y017939D02*
X033824Y017939D01*
X033774Y018016D02*
X034025Y018016D01*
X034052Y018016D02*
X034101Y018016D01*
X034077Y017991D02*
X034202Y018117D01*
X033840Y018479D01*
X033714Y018354D01*
X034077Y017991D01*
X034202Y018117D01*
X033840Y018479D01*
X033714Y018354D01*
X034077Y017991D01*
X034014Y018054D02*
X034140Y018054D01*
X034178Y018093D02*
X033975Y018093D01*
X033948Y018093D02*
X033697Y018093D01*
X033670Y018093D02*
X033454Y018093D01*
X033457Y018054D02*
X033708Y018054D01*
X033735Y018054D02*
X033987Y018054D01*
X033937Y018131D02*
X034188Y018131D01*
X034215Y018131D02*
X034217Y018131D01*
X034216Y018130D02*
X034342Y018256D01*
X033979Y018619D01*
X033854Y018493D01*
X034216Y018130D01*
X034342Y018256D01*
X033979Y018619D01*
X033854Y018493D01*
X034216Y018130D01*
X034177Y018170D02*
X034255Y018170D01*
X034294Y018208D02*
X034138Y018208D01*
X034111Y018208D02*
X033859Y018208D01*
X033833Y018208D02*
X033581Y018208D01*
X033593Y018170D02*
X033531Y018170D01*
X033492Y018131D02*
X033631Y018131D01*
X033658Y018131D02*
X033910Y018131D01*
X033898Y018170D02*
X034149Y018170D01*
X034099Y018247D02*
X034332Y018247D01*
X034355Y018270D02*
X034481Y018395D01*
X034119Y018758D01*
X033993Y018632D01*
X034355Y018270D01*
X034481Y018395D01*
X034119Y018758D01*
X033993Y018632D01*
X034355Y018270D01*
X034339Y018285D02*
X034371Y018285D01*
X034409Y018324D02*
X034301Y018324D01*
X034274Y018324D02*
X034022Y018324D01*
X033995Y018324D02*
X033744Y018324D01*
X033717Y018324D02*
X033685Y018324D01*
X033723Y018363D02*
X033957Y018363D01*
X033984Y018363D02*
X034235Y018363D01*
X034262Y018363D02*
X034448Y018363D01*
X034475Y018401D02*
X034224Y018401D01*
X034197Y018401D02*
X033945Y018401D01*
X033918Y018401D02*
X033762Y018401D01*
X033800Y018440D02*
X033880Y018440D01*
X033907Y018440D02*
X034158Y018440D01*
X034185Y018440D02*
X034436Y018440D01*
X034464Y018440D02*
X034525Y018440D01*
X034494Y018409D02*
X034620Y018535D01*
X034258Y018897D01*
X034132Y018771D01*
X034494Y018409D01*
X034620Y018535D01*
X034258Y018897D01*
X034132Y018771D01*
X034494Y018409D01*
X034425Y018478D02*
X034564Y018478D01*
X034602Y018517D02*
X034386Y018517D01*
X034359Y018517D02*
X034108Y018517D01*
X034081Y018517D02*
X033877Y018517D01*
X033868Y018478D02*
X034120Y018478D01*
X034147Y018478D02*
X034398Y018478D01*
X034348Y018555D02*
X034599Y018555D01*
X034626Y018555D02*
X034641Y018555D01*
X034633Y018548D02*
X034759Y018674D01*
X034397Y019036D01*
X034271Y018910D01*
X034633Y018548D01*
X034759Y018674D01*
X034397Y019036D01*
X034271Y018910D01*
X034633Y018548D01*
X034588Y018594D02*
X034679Y018594D01*
X034718Y018632D02*
X034549Y018632D01*
X034522Y018632D02*
X034271Y018632D01*
X034244Y018632D02*
X033993Y018632D01*
X034004Y018594D02*
X033955Y018594D01*
X033916Y018555D02*
X034043Y018555D01*
X034069Y018555D02*
X034321Y018555D01*
X034309Y018594D02*
X034561Y018594D01*
X034511Y018671D02*
X034756Y018671D01*
X034773Y018687D02*
X034898Y018813D01*
X034536Y019175D01*
X034410Y019050D01*
X034773Y018687D01*
X034898Y018813D01*
X034536Y019175D01*
X034410Y019050D01*
X034773Y018687D01*
X034751Y018709D02*
X034795Y018709D01*
X034833Y018748D02*
X034712Y018748D01*
X034685Y018748D02*
X034433Y018748D01*
X034407Y018748D02*
X034155Y018748D01*
X034128Y018748D02*
X034109Y018748D01*
X034147Y018787D02*
X034368Y018787D01*
X034395Y018787D02*
X034646Y018787D01*
X034673Y018787D02*
X034872Y018787D01*
X034886Y018825D02*
X034635Y018825D01*
X034608Y018825D02*
X034356Y018825D01*
X034330Y018825D02*
X034186Y018825D01*
X034224Y018864D02*
X034291Y018864D01*
X034318Y018864D02*
X034569Y018864D01*
X034596Y018864D02*
X034848Y018864D01*
X034875Y018864D02*
X034949Y018864D01*
X034912Y018826D02*
X035037Y018952D01*
X034675Y019314D01*
X034549Y019189D01*
X034912Y018826D01*
X035037Y018952D01*
X034675Y019314D01*
X034549Y019189D01*
X034912Y018826D01*
X034836Y018902D02*
X034988Y018902D01*
X035026Y018941D02*
X034798Y018941D01*
X034771Y018941D02*
X034519Y018941D01*
X034492Y018941D02*
X034301Y018941D01*
X034279Y018902D02*
X034531Y018902D01*
X034558Y018902D02*
X034809Y018902D01*
X034759Y018979D02*
X035010Y018979D01*
X035037Y018979D02*
X035065Y018979D01*
X035051Y018966D02*
X035177Y019091D01*
X034814Y019454D01*
X034689Y019328D01*
X035051Y018966D01*
X035177Y019091D01*
X034814Y019454D01*
X034689Y019328D01*
X035051Y018966D01*
X034999Y019018D02*
X035103Y019018D01*
X035142Y019056D02*
X034960Y019056D01*
X034933Y019056D02*
X034682Y019056D01*
X034655Y019056D02*
X034417Y019056D01*
X034415Y019018D02*
X034379Y019018D01*
X034340Y018979D02*
X034454Y018979D01*
X034481Y018979D02*
X034732Y018979D01*
X034720Y019018D02*
X034972Y019018D01*
X034922Y019095D02*
X035173Y019095D01*
X035190Y019105D02*
X035316Y019231D01*
X034954Y019593D01*
X034828Y019467D01*
X035190Y019105D01*
X035316Y019231D01*
X034954Y019593D01*
X034828Y019467D01*
X035190Y019105D01*
X035162Y019133D02*
X035219Y019133D01*
X035257Y019172D02*
X035123Y019172D01*
X035096Y019172D02*
X034845Y019172D01*
X034818Y019172D02*
X034566Y019172D01*
X034539Y019172D02*
X034533Y019172D01*
X034571Y019211D02*
X034779Y019211D01*
X034806Y019211D02*
X035058Y019211D01*
X035085Y019211D02*
X035296Y019211D01*
X035297Y019249D02*
X035046Y019249D01*
X035019Y019249D02*
X034768Y019249D01*
X034741Y019249D02*
X034610Y019249D01*
X034648Y019288D02*
X034702Y019288D01*
X034729Y019288D02*
X034981Y019288D01*
X035007Y019288D02*
X035259Y019288D01*
X035286Y019288D02*
X035373Y019288D01*
X035412Y019326D02*
X035247Y019326D01*
X035220Y019326D02*
X034969Y019326D01*
X034942Y019326D02*
X034691Y019326D01*
X034726Y019365D02*
X034903Y019365D01*
X034930Y019365D02*
X035182Y019365D01*
X035209Y019365D02*
X035450Y019365D01*
X035455Y019370D02*
X035329Y019244D01*
X034967Y019606D01*
X035093Y019732D01*
X035455Y019370D01*
X035329Y019244D01*
X034967Y019606D01*
X035093Y019732D01*
X035455Y019370D01*
X035469Y019383D02*
X035594Y019509D01*
X035232Y019871D01*
X035106Y019745D01*
X035469Y019383D01*
X035594Y019509D01*
X035232Y019871D01*
X035106Y019745D01*
X035469Y019383D01*
X035449Y019403D02*
X035489Y019403D01*
X035527Y019442D02*
X035410Y019442D01*
X035383Y019442D02*
X035132Y019442D01*
X035105Y019442D02*
X034853Y019442D01*
X034826Y019442D02*
X034803Y019442D01*
X034841Y019480D02*
X035066Y019480D01*
X035093Y019480D02*
X035345Y019480D01*
X035371Y019480D02*
X035566Y019480D01*
X035584Y019519D02*
X035333Y019519D01*
X035306Y019519D02*
X035055Y019519D01*
X035028Y019519D02*
X034880Y019519D01*
X034918Y019557D02*
X034989Y019557D01*
X035016Y019557D02*
X035267Y019557D01*
X035294Y019557D02*
X035546Y019557D01*
X035573Y019557D02*
X035643Y019557D01*
X035608Y019522D02*
X035734Y019648D01*
X035371Y020010D01*
X035246Y019885D01*
X035608Y019522D01*
X035734Y019648D01*
X035371Y020010D01*
X035246Y019885D01*
X035608Y019522D01*
X035681Y019596D02*
X035534Y019596D01*
X035507Y019596D02*
X035256Y019596D01*
X035229Y019596D02*
X034977Y019596D01*
X034995Y019634D02*
X035190Y019634D01*
X035217Y019634D02*
X035469Y019634D01*
X035496Y019634D02*
X035720Y019634D01*
X035709Y019673D02*
X035457Y019673D01*
X035430Y019673D02*
X035179Y019673D01*
X035152Y019673D02*
X035034Y019673D01*
X035072Y019712D02*
X035113Y019712D01*
X035140Y019712D02*
X035392Y019712D01*
X035419Y019712D02*
X035670Y019712D01*
X035631Y019750D02*
X035380Y019750D01*
X035353Y019750D02*
X035111Y019750D01*
X035150Y019789D02*
X035314Y019789D01*
X035342Y019789D02*
X035593Y019789D01*
X035554Y019827D02*
X035303Y019827D01*
X035276Y019827D02*
X035188Y019827D01*
X035227Y019866D02*
X035237Y019866D01*
X035264Y019866D02*
X035516Y019866D01*
X035477Y019904D02*
X035265Y019904D01*
X035304Y019943D02*
X035439Y019943D01*
X035400Y019981D02*
X035342Y019981D01*
X035422Y019403D02*
X035170Y019403D01*
X035143Y019403D02*
X034892Y019403D01*
X034865Y019403D02*
X034764Y019403D01*
X034856Y019133D02*
X034605Y019133D01*
X034578Y019133D02*
X034494Y019133D01*
X034456Y019095D02*
X034616Y019095D01*
X034643Y019095D02*
X034895Y019095D01*
X034883Y019133D02*
X035135Y019133D01*
X035324Y019249D02*
X035334Y019249D01*
X034694Y019018D02*
X034442Y019018D01*
X034445Y018709D02*
X034194Y018709D01*
X034167Y018709D02*
X034070Y018709D01*
X034032Y018671D02*
X034205Y018671D01*
X034232Y018671D02*
X034484Y018671D01*
X034472Y018709D02*
X034723Y018709D01*
X034282Y018594D02*
X034031Y018594D01*
X033841Y018478D02*
X033839Y018478D01*
X033782Y018285D02*
X034034Y018285D01*
X034061Y018285D02*
X034312Y018285D01*
X034072Y018247D02*
X033821Y018247D01*
X033794Y018247D02*
X033608Y018247D01*
X033646Y018285D02*
X033756Y018285D01*
X033871Y018170D02*
X033620Y018170D01*
X033495Y018016D02*
X033747Y018016D01*
X033584Y017900D02*
X033333Y017900D01*
X033306Y017900D02*
X033261Y017900D01*
X033208Y017746D02*
X033460Y017746D01*
X033469Y018016D02*
X033376Y018016D01*
X033415Y018054D02*
X033430Y018054D01*
X033087Y017283D02*
X032836Y017283D01*
X032809Y017283D02*
X032644Y017283D01*
X032634Y017206D02*
X032886Y017206D01*
X032839Y016975D02*
X032588Y016975D01*
X032560Y016975D02*
X032336Y016975D01*
X032149Y016551D02*
X031912Y016551D01*
X031939Y016204D02*
X031688Y016204D01*
X031661Y016204D02*
X031565Y016204D01*
X031526Y016166D02*
X031700Y016166D01*
X031727Y016166D02*
X031978Y016166D01*
X031966Y016204D02*
X032218Y016204D01*
X031777Y016089D02*
X031525Y016089D01*
X031335Y015973D02*
X031334Y015973D01*
X031218Y015857D02*
X031451Y015857D01*
X031478Y015857D02*
X031730Y015857D01*
X031709Y015626D02*
X031711Y015626D01*
X031520Y015510D02*
X031268Y015510D01*
X031241Y015510D02*
X030990Y015510D01*
X030963Y015510D02*
X030871Y015510D01*
X030833Y015472D02*
X031001Y015472D01*
X031422Y015356D02*
X031442Y015356D01*
X030736Y014025D02*
X030862Y013899D01*
X030499Y013537D01*
X030374Y013663D01*
X030736Y014025D01*
X030862Y013899D01*
X030499Y013537D01*
X030374Y013663D01*
X030736Y014025D01*
X030718Y014007D02*
X030754Y014007D01*
X030792Y013969D02*
X030680Y013969D01*
X030641Y013930D02*
X030831Y013930D01*
X030854Y013892D02*
X030602Y013892D01*
X030564Y013853D02*
X030815Y013853D01*
X030842Y013853D02*
X030908Y013853D01*
X030875Y013886D02*
X031001Y013760D01*
X030639Y013398D01*
X030513Y013524D01*
X030875Y013886D01*
X031001Y013760D01*
X030639Y013398D01*
X030513Y013524D01*
X030875Y013886D01*
X030804Y013814D02*
X030947Y013814D01*
X030985Y013776D02*
X030765Y013776D01*
X030738Y013776D02*
X030487Y013776D01*
X030525Y013814D02*
X030777Y013814D01*
X030727Y013737D02*
X030978Y013737D01*
X031005Y013737D02*
X031024Y013737D01*
X031014Y013747D02*
X031140Y013621D01*
X030778Y013259D01*
X030652Y013384D01*
X031014Y013747D01*
X031140Y013621D01*
X030778Y013259D01*
X030652Y013384D01*
X031014Y013747D01*
X030966Y013699D02*
X031062Y013699D01*
X031101Y013660D02*
X030928Y013660D01*
X030901Y013660D02*
X030650Y013660D01*
X030623Y013660D02*
X030376Y013660D01*
X030410Y013699D02*
X030661Y013699D01*
X030688Y013699D02*
X030940Y013699D01*
X030889Y013622D02*
X031139Y013622D01*
X031154Y013607D02*
X031279Y013482D01*
X030917Y013119D01*
X030791Y013245D01*
X031154Y013607D01*
X031279Y013482D01*
X030917Y013119D01*
X030791Y013245D01*
X031154Y013607D01*
X031178Y013583D02*
X031129Y013583D01*
X031102Y013583D02*
X030851Y013583D01*
X030824Y013583D02*
X030573Y013583D01*
X030546Y013583D02*
X030453Y013583D01*
X030415Y013622D02*
X030584Y013622D01*
X030611Y013622D02*
X030863Y013622D01*
X030812Y013545D02*
X031064Y013545D01*
X031091Y013545D02*
X031216Y013545D01*
X031255Y013506D02*
X031052Y013506D01*
X031025Y013506D02*
X030774Y013506D01*
X030747Y013506D02*
X030530Y013506D01*
X030534Y013545D02*
X030786Y013545D01*
X030735Y013468D02*
X030987Y013468D01*
X031014Y013468D02*
X031265Y013468D01*
X031292Y013468D02*
X031294Y013468D01*
X031293Y013468D02*
X031419Y013343D01*
X031056Y012980D01*
X030931Y013106D01*
X031293Y013468D01*
X031419Y013343D01*
X031056Y012980D01*
X030931Y013106D01*
X031293Y013468D01*
X031253Y013429D02*
X031332Y013429D01*
X031371Y013390D02*
X031215Y013390D01*
X031188Y013390D02*
X030937Y013390D01*
X030910Y013390D02*
X030658Y013390D01*
X030670Y013429D02*
X030608Y013429D01*
X030569Y013468D02*
X030708Y013468D01*
X030697Y013429D02*
X030948Y013429D01*
X030975Y013429D02*
X031227Y013429D01*
X031176Y013352D02*
X031409Y013352D01*
X031432Y013329D02*
X031558Y013203D01*
X031195Y012841D01*
X031070Y012967D01*
X031432Y013329D01*
X031558Y013203D01*
X031195Y012841D01*
X031070Y012967D01*
X031432Y013329D01*
X031416Y013313D02*
X031448Y013313D01*
X031486Y013275D02*
X031378Y013275D01*
X031351Y013275D02*
X031099Y013275D01*
X031072Y013275D02*
X030821Y013275D01*
X030794Y013275D02*
X030762Y013275D01*
X030800Y013236D02*
X031034Y013236D01*
X031061Y013236D02*
X031312Y013236D01*
X031339Y013236D02*
X031525Y013236D01*
X031552Y013198D02*
X031301Y013198D01*
X031274Y013198D02*
X031022Y013198D01*
X030995Y013198D02*
X030839Y013198D01*
X030877Y013159D02*
X030957Y013159D01*
X030984Y013159D02*
X031235Y013159D01*
X031262Y013159D02*
X031514Y013159D01*
X031540Y013159D02*
X031602Y013159D01*
X031571Y013190D02*
X031697Y013064D01*
X031335Y012702D01*
X031209Y012828D01*
X031571Y013190D01*
X031697Y013064D01*
X031335Y012702D01*
X031209Y012828D01*
X031571Y013190D01*
X031502Y013121D02*
X031640Y013121D01*
X031679Y013082D02*
X031463Y013082D01*
X031436Y013082D02*
X031185Y013082D01*
X031158Y013082D02*
X030954Y013082D01*
X030945Y013121D02*
X031197Y013121D01*
X031224Y013121D02*
X031475Y013121D01*
X031425Y013044D02*
X031676Y013044D01*
X031703Y013044D02*
X031717Y013044D01*
X031710Y013051D02*
X031836Y012925D01*
X031474Y012563D01*
X031348Y012688D01*
X031710Y013051D01*
X031836Y012925D01*
X031474Y012563D01*
X031348Y012688D01*
X031710Y013051D01*
X031665Y013005D02*
X031756Y013005D01*
X031795Y012966D02*
X031626Y012966D01*
X031599Y012966D02*
X031348Y012966D01*
X031321Y012966D02*
X031070Y012966D01*
X031081Y013005D02*
X031031Y013005D01*
X030993Y013044D02*
X031119Y013044D01*
X031147Y013044D02*
X031398Y013044D01*
X031386Y013005D02*
X031638Y013005D01*
X031588Y012928D02*
X031833Y012928D01*
X031849Y012912D02*
X031975Y012786D01*
X031613Y012424D01*
X031487Y012549D01*
X031849Y012912D01*
X031975Y012786D01*
X031613Y012424D01*
X031487Y012549D01*
X031849Y012912D01*
X031827Y012889D02*
X031872Y012889D01*
X031910Y012851D02*
X031789Y012851D01*
X031762Y012851D02*
X031511Y012851D01*
X031484Y012851D02*
X031232Y012851D01*
X031205Y012851D02*
X031186Y012851D01*
X031224Y012812D02*
X031445Y012812D01*
X031472Y012812D02*
X031724Y012812D01*
X031750Y012812D02*
X031949Y012812D01*
X031963Y012774D02*
X031712Y012774D01*
X031685Y012774D02*
X031433Y012774D01*
X031406Y012774D02*
X031263Y012774D01*
X031301Y012735D02*
X031368Y012735D01*
X031395Y012735D02*
X031646Y012735D01*
X031673Y012735D02*
X031925Y012735D01*
X031952Y012735D02*
X032026Y012735D01*
X031989Y012772D02*
X032114Y012647D01*
X031752Y012284D01*
X031626Y012410D01*
X031989Y012772D01*
X032114Y012647D01*
X031752Y012284D01*
X031626Y012410D01*
X031989Y012772D01*
X031913Y012697D02*
X032064Y012697D01*
X032103Y012658D02*
X031875Y012658D01*
X031848Y012658D02*
X031596Y012658D01*
X031569Y012658D02*
X031378Y012658D01*
X031356Y012697D02*
X031608Y012697D01*
X031635Y012697D02*
X031886Y012697D01*
X031836Y012620D02*
X032088Y012620D01*
X032114Y012620D02*
X032141Y012620D01*
X032128Y012633D02*
X032254Y012507D01*
X031891Y012145D01*
X031766Y012271D01*
X032128Y012633D01*
X032254Y012507D01*
X031891Y012145D01*
X031766Y012271D01*
X032128Y012633D01*
X032076Y012581D02*
X032180Y012581D01*
X032219Y012543D02*
X032037Y012543D01*
X032010Y012543D02*
X031759Y012543D01*
X031732Y012543D02*
X031494Y012543D01*
X031492Y012581D02*
X031455Y012581D01*
X031417Y012620D02*
X031531Y012620D01*
X031558Y012620D02*
X031809Y012620D01*
X031798Y012581D02*
X032049Y012581D01*
X031999Y012504D02*
X032250Y012504D01*
X032267Y012494D02*
X031905Y012132D01*
X032031Y012006D01*
X032393Y012368D01*
X032267Y012494D01*
X032393Y012368D01*
X032031Y012006D01*
X031905Y012132D01*
X032267Y012494D01*
X032239Y012465D02*
X032296Y012465D01*
X032334Y012427D02*
X032200Y012427D01*
X032173Y012427D02*
X031922Y012427D01*
X031895Y012427D02*
X031643Y012427D01*
X031616Y012427D02*
X031610Y012427D01*
X031648Y012388D02*
X031856Y012388D01*
X031883Y012388D02*
X032135Y012388D01*
X032162Y012388D02*
X032373Y012388D01*
X032375Y012350D02*
X032123Y012350D01*
X032096Y012350D02*
X031845Y012350D01*
X031818Y012350D02*
X031687Y012350D01*
X031725Y012311D02*
X031779Y012311D01*
X031806Y012311D02*
X032057Y012311D01*
X032084Y012311D02*
X032336Y012311D01*
X032363Y012311D02*
X032450Y012311D01*
X032488Y012273D02*
X032324Y012273D01*
X032297Y012273D02*
X032046Y012273D01*
X032019Y012273D02*
X031767Y012273D01*
X031802Y012234D02*
X031980Y012234D01*
X032007Y012234D02*
X032259Y012234D01*
X032286Y012234D02*
X032527Y012234D01*
X032532Y012229D02*
X032170Y011867D01*
X032044Y011992D01*
X032406Y012355D01*
X032532Y012229D01*
X032170Y011867D01*
X032044Y011992D01*
X032406Y012355D01*
X032532Y012229D01*
X032546Y012216D02*
X032671Y012090D01*
X032309Y011727D01*
X032183Y011853D01*
X032546Y012216D01*
X032671Y012090D01*
X032309Y011727D01*
X032183Y011853D01*
X032546Y012216D01*
X032526Y012196D02*
X032566Y012196D01*
X032604Y012157D02*
X032487Y012157D01*
X032460Y012157D02*
X032209Y012157D01*
X032182Y012157D02*
X031930Y012157D01*
X031903Y012157D02*
X031879Y012157D01*
X031841Y012196D02*
X031942Y012196D01*
X031969Y012196D02*
X032220Y012196D01*
X032247Y012196D02*
X032499Y012196D01*
X032449Y012119D02*
X032643Y012119D01*
X032661Y012080D02*
X032410Y012080D01*
X032383Y012080D02*
X032132Y012080D01*
X032105Y012080D02*
X031956Y012080D01*
X031918Y012119D02*
X032143Y012119D01*
X032170Y012119D02*
X032422Y012119D01*
X032371Y012041D02*
X032623Y012041D01*
X032650Y012041D02*
X032720Y012041D01*
X032685Y012076D02*
X032810Y011951D01*
X032448Y011588D01*
X032322Y011714D01*
X032685Y012076D01*
X032810Y011951D01*
X032448Y011588D01*
X032322Y011714D01*
X032685Y012076D01*
X032611Y012003D02*
X032758Y012003D01*
X032797Y011964D02*
X032573Y011964D01*
X032546Y011964D02*
X032294Y011964D01*
X032267Y011964D02*
X032072Y011964D01*
X032054Y012003D02*
X032306Y012003D01*
X032333Y012003D02*
X032584Y012003D01*
X032534Y011926D02*
X032786Y011926D01*
X032813Y011926D02*
X032835Y011926D01*
X032824Y011937D02*
X032950Y011811D01*
X032587Y011449D01*
X032462Y011575D01*
X032824Y011937D01*
X032950Y011811D01*
X032587Y011449D01*
X032462Y011575D01*
X032824Y011937D01*
X032774Y011887D02*
X032874Y011887D01*
X032912Y011849D02*
X032736Y011849D01*
X032709Y011849D02*
X032457Y011849D01*
X032430Y011849D02*
X032188Y011849D01*
X032190Y011887D02*
X032149Y011887D01*
X032111Y011926D02*
X032229Y011926D01*
X032256Y011926D02*
X032507Y011926D01*
X032496Y011887D02*
X032747Y011887D01*
X032697Y011810D02*
X032948Y011810D01*
X032963Y011798D02*
X033089Y011672D01*
X032726Y011310D01*
X032601Y011436D01*
X032963Y011798D01*
X033089Y011672D01*
X032726Y011310D01*
X032601Y011436D01*
X032963Y011798D01*
X032937Y011772D02*
X032989Y011772D01*
X033028Y011733D02*
X032898Y011733D01*
X032871Y011733D02*
X032620Y011733D01*
X032593Y011733D02*
X032341Y011733D01*
X032315Y011733D02*
X032303Y011733D01*
X032265Y011772D02*
X032353Y011772D01*
X032380Y011772D02*
X032631Y011772D01*
X032658Y011772D02*
X032910Y011772D01*
X032860Y011695D02*
X033066Y011695D01*
X033073Y011656D02*
X032821Y011656D01*
X032794Y011656D02*
X032543Y011656D01*
X032516Y011656D02*
X032381Y011656D01*
X032419Y011617D02*
X032477Y011617D01*
X032504Y011617D02*
X032756Y011617D01*
X032783Y011617D02*
X033034Y011617D01*
X033061Y011617D02*
X033144Y011617D01*
X033182Y011579D02*
X033022Y011579D01*
X032996Y011579D02*
X032744Y011579D01*
X032717Y011579D02*
X032466Y011579D01*
X032496Y011540D02*
X032679Y011540D01*
X032705Y011540D02*
X032957Y011540D01*
X032984Y011540D02*
X033221Y011540D01*
X033228Y011533D02*
X032866Y011171D01*
X032740Y011296D01*
X033102Y011659D01*
X033228Y011533D01*
X032866Y011171D01*
X032740Y011296D01*
X033102Y011659D01*
X033228Y011533D01*
X033241Y011520D02*
X033367Y011394D01*
X033005Y011032D01*
X032879Y011157D01*
X033241Y011520D01*
X033367Y011394D01*
X033005Y011032D01*
X032879Y011157D01*
X033241Y011520D01*
X033224Y011502D02*
X033259Y011502D01*
X033298Y011463D02*
X033185Y011463D01*
X033158Y011463D02*
X032907Y011463D01*
X032880Y011463D02*
X032628Y011463D01*
X032602Y011463D02*
X032573Y011463D01*
X032612Y011425D02*
X032841Y011425D01*
X032868Y011425D02*
X033120Y011425D01*
X033147Y011425D02*
X033336Y011425D01*
X033360Y011386D02*
X033108Y011386D01*
X033081Y011386D02*
X032830Y011386D01*
X032803Y011386D02*
X032650Y011386D01*
X032689Y011348D02*
X032764Y011348D01*
X032791Y011348D02*
X033043Y011348D01*
X033070Y011348D02*
X033321Y011348D01*
X033348Y011348D02*
X033413Y011348D01*
X033381Y011380D02*
X033506Y011255D01*
X033144Y010892D01*
X033018Y011018D01*
X033381Y011380D01*
X033506Y011255D01*
X033144Y010892D01*
X033018Y011018D01*
X033381Y011380D01*
X033452Y011309D02*
X033309Y011309D01*
X033283Y011309D02*
X033031Y011309D01*
X033004Y011309D02*
X032753Y011309D01*
X032766Y011271D02*
X032966Y011271D01*
X032993Y011271D02*
X033244Y011271D01*
X033271Y011271D02*
X033491Y011271D01*
X033484Y011232D02*
X033232Y011232D01*
X033205Y011232D02*
X032954Y011232D01*
X032927Y011232D02*
X032804Y011232D01*
X032843Y011194D02*
X032889Y011194D01*
X032915Y011194D02*
X033167Y011194D01*
X033194Y011194D02*
X033445Y011194D01*
X033472Y011194D02*
X033568Y011194D01*
X033529Y011232D02*
X033511Y011232D01*
X033520Y011241D02*
X033646Y011115D01*
X033283Y010753D01*
X033158Y010879D01*
X033520Y011241D01*
X033646Y011115D01*
X033283Y010753D01*
X033158Y010879D01*
X033520Y011241D01*
X033434Y011155D02*
X033606Y011155D01*
X033645Y011116D02*
X033395Y011116D01*
X033368Y011116D02*
X033117Y011116D01*
X033090Y011116D02*
X032920Y011116D01*
X032959Y011078D02*
X033051Y011078D01*
X033078Y011078D02*
X033330Y011078D01*
X033357Y011078D02*
X033608Y011078D01*
X033635Y011078D02*
X033683Y011078D01*
X033659Y011102D02*
X033785Y010976D01*
X033423Y010614D01*
X033297Y010740D01*
X033659Y011102D01*
X033785Y010976D01*
X033423Y010614D01*
X033297Y010740D01*
X033659Y011102D01*
X033596Y011039D02*
X033722Y011039D01*
X033760Y011001D02*
X033558Y011001D01*
X033531Y011001D02*
X033279Y011001D01*
X033253Y011001D02*
X033036Y011001D01*
X033040Y011039D02*
X033291Y011039D01*
X033318Y011039D02*
X033569Y011039D01*
X033519Y010962D02*
X033771Y010962D01*
X033798Y010962D02*
X033799Y010962D01*
X033798Y010963D02*
X033924Y010837D01*
X033562Y010475D01*
X033436Y010601D01*
X033798Y010963D01*
X033924Y010837D01*
X033562Y010475D01*
X033436Y010601D01*
X033798Y010963D01*
X033759Y010924D02*
X033837Y010924D01*
X033876Y010885D02*
X033721Y010885D01*
X033694Y010885D02*
X033442Y010885D01*
X033415Y010885D02*
X033164Y010885D01*
X033176Y010924D02*
X033113Y010924D01*
X033074Y010962D02*
X033214Y010962D01*
X033241Y010962D02*
X033492Y010962D01*
X033481Y010924D02*
X033732Y010924D01*
X033682Y010847D02*
X033915Y010847D01*
X033937Y010824D02*
X034063Y010698D01*
X033701Y010336D01*
X033575Y010461D01*
X033937Y010824D01*
X034063Y010698D01*
X033701Y010336D01*
X033575Y010461D01*
X033937Y010824D01*
X033922Y010808D02*
X033953Y010808D01*
X033991Y010770D02*
X033883Y010770D01*
X033856Y010770D02*
X033605Y010770D01*
X033578Y010770D02*
X033327Y010770D01*
X033300Y010770D02*
X033267Y010770D01*
X033228Y010808D02*
X033338Y010808D01*
X033365Y010808D02*
X033617Y010808D01*
X033643Y010808D02*
X033895Y010808D01*
X033845Y010731D02*
X034030Y010731D01*
X034058Y010692D02*
X033806Y010692D01*
X033779Y010692D02*
X033528Y010692D01*
X033501Y010692D02*
X033344Y010692D01*
X033383Y010654D02*
X033463Y010654D01*
X033489Y010654D02*
X033741Y010654D01*
X033768Y010654D02*
X034019Y010654D01*
X034046Y010654D02*
X034107Y010654D01*
X034077Y010684D02*
X034202Y010559D01*
X033840Y010196D01*
X033714Y010322D01*
X034077Y010684D01*
X034202Y010559D01*
X033840Y010196D01*
X033714Y010322D01*
X034077Y010684D01*
X034008Y010615D02*
X034146Y010615D01*
X034184Y010577D02*
X033969Y010577D01*
X033942Y010577D02*
X033691Y010577D01*
X033664Y010577D02*
X033460Y010577D01*
X033451Y010615D02*
X033702Y010615D01*
X033729Y010615D02*
X033981Y010615D01*
X033930Y010538D02*
X034182Y010538D01*
X034209Y010538D02*
X034223Y010538D01*
X034216Y010545D02*
X034342Y010419D01*
X033979Y010057D01*
X033854Y010183D01*
X034216Y010545D01*
X034342Y010419D01*
X033979Y010057D01*
X033854Y010183D01*
X034216Y010545D01*
X034261Y010500D02*
X034170Y010500D01*
X034143Y010500D02*
X033892Y010500D01*
X033865Y010500D02*
X033614Y010500D01*
X033587Y010500D02*
X033537Y010500D01*
X033498Y010538D02*
X033625Y010538D01*
X033652Y010538D02*
X033904Y010538D01*
X033853Y010461D02*
X034105Y010461D01*
X034132Y010461D02*
X034300Y010461D01*
X034338Y010423D02*
X034093Y010423D01*
X034066Y010423D02*
X033815Y010423D01*
X033788Y010423D02*
X033614Y010423D01*
X033575Y010461D02*
X033827Y010461D01*
X033776Y010384D02*
X034028Y010384D01*
X034055Y010384D02*
X034306Y010384D01*
X034333Y010384D02*
X034377Y010384D01*
X034355Y010406D02*
X034481Y010280D01*
X034119Y009918D01*
X033993Y010044D01*
X034355Y010406D01*
X034481Y010280D01*
X034119Y009918D01*
X033993Y010044D01*
X034355Y010406D01*
X034295Y010346D02*
X034415Y010346D01*
X034454Y010307D02*
X034256Y010307D01*
X034229Y010307D02*
X033978Y010307D01*
X033951Y010307D02*
X033729Y010307D01*
X033738Y010346D02*
X033989Y010346D01*
X034016Y010346D02*
X034268Y010346D01*
X034217Y010268D02*
X034469Y010268D01*
X034494Y010267D02*
X034620Y010141D01*
X034258Y009779D01*
X034132Y009905D01*
X034494Y010267D01*
X034620Y010141D01*
X034258Y009779D01*
X034132Y009905D01*
X034494Y010267D01*
X034457Y010230D02*
X034531Y010230D01*
X034570Y010191D02*
X034419Y010191D01*
X034392Y010191D02*
X034140Y010191D01*
X034114Y010191D02*
X033862Y010191D01*
X033874Y010230D02*
X033807Y010230D01*
X033768Y010268D02*
X033912Y010268D01*
X033939Y010268D02*
X034191Y010268D01*
X034179Y010230D02*
X034430Y010230D01*
X034380Y010153D02*
X034608Y010153D01*
X034633Y010128D02*
X034759Y010002D01*
X034397Y009640D01*
X034271Y009765D01*
X034633Y010128D01*
X034759Y010002D01*
X034397Y009640D01*
X034271Y009765D01*
X034633Y010128D01*
X034620Y010114D02*
X034647Y010114D01*
X034593Y010114D02*
X034342Y010114D01*
X034315Y010114D02*
X034063Y010114D01*
X034036Y010114D02*
X033922Y010114D01*
X033961Y010076D02*
X033998Y010076D01*
X034025Y010076D02*
X034276Y010076D01*
X034303Y010076D02*
X034555Y010076D01*
X034581Y010076D02*
X034685Y010076D01*
X034724Y010037D02*
X034543Y010037D01*
X034516Y010037D02*
X034265Y010037D01*
X034238Y010037D02*
X033999Y010037D01*
X034038Y009999D02*
X034199Y009999D01*
X034226Y009999D02*
X034478Y009999D01*
X034504Y009999D02*
X034756Y009999D01*
X034773Y009988D02*
X034898Y009863D01*
X034536Y009500D01*
X034410Y009626D01*
X034773Y009988D01*
X034898Y009863D01*
X034536Y009500D01*
X034410Y009626D01*
X034773Y009988D01*
X034801Y009960D02*
X034744Y009960D01*
X034717Y009960D02*
X034466Y009960D01*
X034439Y009960D02*
X034188Y009960D01*
X034161Y009960D02*
X034076Y009960D01*
X034115Y009922D02*
X034122Y009922D01*
X034149Y009922D02*
X034401Y009922D01*
X034427Y009922D02*
X034679Y009922D01*
X034706Y009922D02*
X034839Y009922D01*
X034878Y009883D02*
X034667Y009883D01*
X034640Y009883D02*
X034389Y009883D01*
X034362Y009883D02*
X034154Y009883D01*
X034192Y009844D02*
X034323Y009844D01*
X034350Y009844D02*
X034602Y009844D01*
X034629Y009844D02*
X034880Y009844D01*
X034907Y009844D02*
X034917Y009844D01*
X034912Y009849D02*
X035037Y009724D01*
X034675Y009361D01*
X034549Y009487D01*
X034912Y009849D01*
X035037Y009724D01*
X034675Y009361D01*
X034549Y009487D01*
X034912Y009849D01*
X034869Y009806D02*
X034955Y009806D01*
X034994Y009767D02*
X034830Y009767D01*
X034803Y009767D02*
X034552Y009767D01*
X034525Y009767D02*
X034273Y009767D01*
X034285Y009806D02*
X034231Y009806D01*
X034312Y009806D02*
X034563Y009806D01*
X034590Y009806D02*
X034842Y009806D01*
X034791Y009729D02*
X035032Y009729D01*
X035051Y009710D02*
X035177Y009584D01*
X034814Y009222D01*
X034689Y009348D01*
X035051Y009710D01*
X035177Y009584D01*
X034814Y009222D01*
X034689Y009348D01*
X035051Y009710D01*
X035031Y009690D02*
X035071Y009690D01*
X035109Y009652D02*
X034993Y009652D01*
X034966Y009652D02*
X034714Y009652D01*
X034687Y009652D02*
X034436Y009652D01*
X034409Y009652D02*
X034385Y009652D01*
X034423Y009613D02*
X034649Y009613D01*
X034676Y009613D02*
X034927Y009613D01*
X034954Y009613D02*
X035148Y009613D01*
X035167Y009575D02*
X034916Y009575D01*
X034889Y009575D02*
X034637Y009575D01*
X034610Y009575D02*
X034462Y009575D01*
X034500Y009536D02*
X034572Y009536D01*
X034599Y009536D02*
X034850Y009536D01*
X034877Y009536D02*
X035129Y009536D01*
X035156Y009536D02*
X035225Y009536D01*
X035190Y009571D02*
X035316Y009445D01*
X034954Y009083D01*
X034828Y009209D01*
X035190Y009571D01*
X035316Y009445D01*
X034954Y009083D01*
X034828Y009209D01*
X035190Y009571D01*
X035117Y009498D02*
X035263Y009498D01*
X035302Y009459D02*
X035078Y009459D01*
X035052Y009459D02*
X034800Y009459D01*
X034773Y009459D02*
X034577Y009459D01*
X034560Y009498D02*
X034812Y009498D01*
X034839Y009498D02*
X035090Y009498D01*
X035040Y009421D02*
X035291Y009421D01*
X035318Y009421D02*
X035341Y009421D01*
X035329Y009432D02*
X035455Y009306D01*
X035093Y008944D01*
X034967Y009069D01*
X035329Y009432D01*
X035455Y009306D01*
X035093Y008944D01*
X034967Y009069D01*
X035329Y009432D01*
X035280Y009382D02*
X035379Y009382D01*
X035418Y009343D02*
X035241Y009343D01*
X035214Y009343D02*
X034963Y009343D01*
X034936Y009343D02*
X034693Y009343D01*
X034696Y009382D02*
X034654Y009382D01*
X034616Y009421D02*
X034734Y009421D01*
X034762Y009421D02*
X035013Y009421D01*
X035001Y009382D02*
X035253Y009382D01*
X035203Y009305D02*
X035454Y009305D01*
X035469Y009292D02*
X035594Y009167D01*
X035232Y008805D01*
X035106Y008930D01*
X035469Y009292D01*
X035594Y009167D01*
X035232Y008805D01*
X035106Y008930D01*
X035469Y009292D01*
X035495Y009266D02*
X035442Y009266D01*
X035416Y009266D02*
X035164Y009266D01*
X035137Y009266D02*
X034886Y009266D01*
X034859Y009266D02*
X034770Y009266D01*
X034809Y009228D02*
X034820Y009228D01*
X034847Y009228D02*
X035099Y009228D01*
X035126Y009228D02*
X035377Y009228D01*
X035404Y009228D02*
X035533Y009228D01*
X035572Y009189D02*
X035365Y009189D01*
X035339Y009189D02*
X035087Y009189D01*
X035060Y009189D02*
X034847Y009189D01*
X034886Y009151D02*
X035021Y009151D01*
X035048Y009151D02*
X035300Y009151D01*
X035327Y009151D02*
X035578Y009151D01*
X035605Y009151D02*
X035610Y009151D01*
X035608Y009153D02*
X035734Y009028D01*
X035371Y008665D01*
X035246Y008791D01*
X035608Y009153D01*
X035734Y009028D01*
X035371Y008665D01*
X035246Y008791D01*
X035608Y009153D01*
X035567Y009112D02*
X035649Y009112D01*
X035687Y009074D02*
X035528Y009074D01*
X035501Y009074D02*
X035250Y009074D01*
X035223Y009074D02*
X034971Y009074D01*
X034983Y009112D02*
X034924Y009112D01*
X035010Y009112D02*
X035261Y009112D01*
X035288Y009112D02*
X035540Y009112D01*
X035490Y009035D02*
X035726Y009035D01*
X035703Y008997D02*
X035451Y008997D01*
X035424Y008997D02*
X035173Y008997D01*
X035146Y008997D02*
X035040Y008997D01*
X035001Y009035D02*
X035184Y009035D01*
X035211Y009035D02*
X035463Y009035D01*
X035413Y008958D02*
X035664Y008958D01*
X035625Y008919D02*
X035374Y008919D01*
X035347Y008919D02*
X035117Y008919D01*
X035107Y008958D02*
X035078Y008958D01*
X035134Y008958D02*
X035386Y008958D01*
X035335Y008881D02*
X035587Y008881D01*
X035548Y008842D02*
X035297Y008842D01*
X035270Y008842D02*
X035194Y008842D01*
X035156Y008881D02*
X035308Y008881D01*
X035258Y008804D02*
X035510Y008804D01*
X035471Y008765D02*
X035271Y008765D01*
X035310Y008727D02*
X035433Y008727D01*
X035394Y008688D02*
X035348Y008688D01*
X035176Y009305D02*
X034924Y009305D01*
X034897Y009305D02*
X034732Y009305D01*
X034723Y009382D02*
X034974Y009382D01*
X035004Y009690D02*
X034753Y009690D01*
X034726Y009690D02*
X034475Y009690D01*
X034448Y009690D02*
X034346Y009690D01*
X034308Y009729D02*
X034486Y009729D01*
X034513Y009729D02*
X034765Y009729D01*
X034353Y010153D02*
X034102Y010153D01*
X034075Y010153D02*
X033884Y010153D01*
X033901Y010230D02*
X034152Y010230D01*
X033749Y010384D02*
X033652Y010384D01*
X033691Y010346D02*
X033711Y010346D01*
X033424Y010615D02*
X033421Y010615D01*
X033306Y010731D02*
X033540Y010731D01*
X033566Y010731D02*
X033818Y010731D01*
X033655Y010847D02*
X033404Y010847D01*
X033377Y010847D02*
X033190Y010847D01*
X033202Y010924D02*
X033454Y010924D01*
X033407Y011155D02*
X033155Y011155D01*
X033128Y011155D02*
X032881Y011155D01*
X032997Y011039D02*
X033013Y011039D01*
X032945Y011502D02*
X033197Y011502D01*
X033105Y011656D02*
X033100Y011656D01*
X032918Y011502D02*
X032667Y011502D01*
X032640Y011502D02*
X032535Y011502D01*
X032554Y011695D02*
X032342Y011695D01*
X032392Y011810D02*
X032226Y011810D01*
X032217Y011887D02*
X032469Y011887D01*
X032418Y011810D02*
X032670Y011810D01*
X032581Y011695D02*
X032833Y011695D01*
X032344Y012041D02*
X032093Y012041D01*
X032066Y012041D02*
X031995Y012041D01*
X031960Y012465D02*
X032212Y012465D01*
X032401Y012350D02*
X032411Y012350D01*
X031972Y012504D02*
X031720Y012504D01*
X031693Y012504D02*
X031533Y012504D01*
X031571Y012465D02*
X031655Y012465D01*
X031682Y012465D02*
X031933Y012465D01*
X031771Y012581D02*
X031519Y012581D01*
X031522Y012889D02*
X031271Y012889D01*
X031244Y012889D02*
X031147Y012889D01*
X031108Y012928D02*
X031282Y012928D01*
X031309Y012928D02*
X031561Y012928D01*
X031549Y012889D02*
X031801Y012889D01*
X031359Y013005D02*
X031108Y013005D01*
X030918Y013121D02*
X030916Y013121D01*
X030860Y013313D02*
X031111Y013313D01*
X031138Y013313D02*
X031389Y013313D01*
X031149Y013352D02*
X030898Y013352D01*
X030871Y013352D02*
X030684Y013352D01*
X030723Y013313D02*
X030833Y013313D01*
X030507Y013545D02*
X030492Y013545D01*
X030448Y013737D02*
X030700Y013737D01*
X032819Y016744D02*
X032829Y016744D01*
X036637Y019370D02*
X036763Y019244D01*
X037126Y019606D01*
X037000Y019732D01*
X036637Y019370D01*
X037000Y019732D01*
X037126Y019606D01*
X036763Y019244D01*
X036637Y019370D01*
X036642Y019365D02*
X036884Y019365D01*
X036911Y019365D02*
X037162Y019365D01*
X037189Y019365D02*
X037367Y019365D01*
X037404Y019328D02*
X037041Y018966D01*
X036916Y019091D01*
X037278Y019454D01*
X037404Y019328D01*
X037041Y018966D01*
X036916Y019091D01*
X037278Y019454D01*
X037404Y019328D01*
X037402Y019326D02*
X037151Y019326D01*
X037124Y019326D02*
X036872Y019326D01*
X036845Y019326D02*
X036681Y019326D01*
X036720Y019288D02*
X036807Y019288D01*
X036834Y019288D02*
X037085Y019288D01*
X037112Y019288D02*
X037363Y019288D01*
X037391Y019288D02*
X037444Y019288D01*
X037417Y019314D02*
X037543Y019189D01*
X037181Y018826D01*
X037055Y018952D01*
X037417Y019314D01*
X037543Y019189D01*
X037181Y018826D01*
X037055Y018952D01*
X037417Y019314D01*
X037352Y019249D02*
X037483Y019249D01*
X037521Y019211D02*
X037313Y019211D01*
X037286Y019211D02*
X037035Y019211D01*
X037008Y019211D02*
X036797Y019211D01*
X036777Y019231D02*
X037139Y019593D01*
X037265Y019467D01*
X036902Y019105D01*
X036777Y019231D01*
X037139Y019593D01*
X037265Y019467D01*
X036902Y019105D01*
X036777Y019231D01*
X036768Y019249D02*
X036758Y019249D01*
X036795Y019249D02*
X037047Y019249D01*
X037074Y019249D02*
X037325Y019249D01*
X037275Y019172D02*
X037526Y019172D01*
X037553Y019172D02*
X037560Y019172D01*
X037556Y019175D02*
X037682Y019050D01*
X037320Y018687D01*
X037194Y018813D01*
X037556Y019175D01*
X037682Y019050D01*
X037320Y018687D01*
X037194Y018813D01*
X037556Y019175D01*
X037515Y019133D02*
X037598Y019133D01*
X037637Y019095D02*
X037476Y019095D01*
X037449Y019095D02*
X037198Y019095D01*
X037171Y019095D02*
X036919Y019095D01*
X036931Y019133D02*
X036874Y019133D01*
X036835Y019172D02*
X036970Y019172D01*
X036996Y019172D02*
X037248Y019172D01*
X037236Y019133D02*
X037488Y019133D01*
X037438Y019056D02*
X037675Y019056D01*
X037696Y019036D02*
X037821Y018910D01*
X037459Y018548D01*
X037334Y018674D01*
X037696Y019036D01*
X037821Y018910D01*
X037459Y018548D01*
X037334Y018674D01*
X037696Y019036D01*
X037714Y019018D02*
X037677Y019018D01*
X037650Y019018D02*
X037399Y019018D01*
X037372Y019018D02*
X037121Y019018D01*
X037094Y019018D02*
X036989Y019018D01*
X036951Y019056D02*
X037132Y019056D01*
X037159Y019056D02*
X037411Y019056D01*
X037360Y018979D02*
X037612Y018979D01*
X037639Y018979D02*
X037753Y018979D01*
X037791Y018941D02*
X037600Y018941D01*
X037573Y018941D02*
X037322Y018941D01*
X037295Y018941D02*
X037067Y018941D01*
X037055Y018979D02*
X037028Y018979D01*
X037082Y018979D02*
X037334Y018979D01*
X037283Y018902D02*
X037535Y018902D01*
X037562Y018902D02*
X037813Y018902D01*
X037835Y018897D02*
X037961Y018771D01*
X037598Y018409D01*
X037473Y018535D01*
X037835Y018897D01*
X037961Y018771D01*
X037598Y018409D01*
X037473Y018535D01*
X037835Y018897D01*
X037802Y018864D02*
X037868Y018864D01*
X037907Y018825D02*
X037763Y018825D01*
X037736Y018825D02*
X037485Y018825D01*
X037458Y018825D02*
X037206Y018825D01*
X037218Y018864D02*
X037144Y018864D01*
X037105Y018902D02*
X037257Y018902D01*
X037245Y018864D02*
X037496Y018864D01*
X037523Y018864D02*
X037775Y018864D01*
X037724Y018787D02*
X037945Y018787D01*
X037937Y018748D02*
X037686Y018748D01*
X037659Y018748D02*
X037408Y018748D01*
X037381Y018748D02*
X037259Y018748D01*
X037221Y018787D02*
X037419Y018787D01*
X037446Y018787D02*
X037698Y018787D01*
X037647Y018709D02*
X037899Y018709D01*
X037926Y018709D02*
X038022Y018709D01*
X038061Y018671D02*
X037887Y018671D01*
X037860Y018671D02*
X037609Y018671D01*
X037582Y018671D02*
X037336Y018671D01*
X037342Y018709D02*
X037298Y018709D01*
X037369Y018709D02*
X037621Y018709D01*
X037570Y018632D02*
X037822Y018632D01*
X037849Y018632D02*
X038099Y018632D01*
X038100Y018632D02*
X037738Y018270D01*
X037612Y018395D01*
X037974Y018758D01*
X038100Y018632D01*
X037738Y018270D01*
X037612Y018395D01*
X037974Y018758D01*
X038100Y018632D01*
X038113Y018619D02*
X038239Y018493D01*
X037877Y018130D01*
X037751Y018256D01*
X038113Y018619D01*
X038239Y018493D01*
X037877Y018130D01*
X037751Y018256D01*
X038113Y018619D01*
X038089Y018594D02*
X038138Y018594D01*
X038177Y018555D02*
X038050Y018555D01*
X038023Y018555D02*
X037772Y018555D01*
X037745Y018555D02*
X037493Y018555D01*
X037466Y018555D02*
X037452Y018555D01*
X037491Y018517D02*
X037706Y018517D01*
X037733Y018517D02*
X037985Y018517D01*
X038011Y018517D02*
X038215Y018517D01*
X038224Y018478D02*
X037973Y018478D01*
X037946Y018478D02*
X037695Y018478D01*
X037668Y018478D02*
X037529Y018478D01*
X037568Y018440D02*
X037629Y018440D01*
X037656Y018440D02*
X037908Y018440D01*
X037934Y018440D02*
X038186Y018440D01*
X038213Y018440D02*
X038292Y018440D01*
X038254Y018478D02*
X038251Y018478D01*
X038252Y018479D02*
X038378Y018354D01*
X038016Y017991D01*
X037890Y018117D01*
X038252Y018479D01*
X038378Y018354D01*
X038016Y017991D01*
X037890Y018117D01*
X038252Y018479D01*
X038174Y018401D02*
X038331Y018401D01*
X038369Y018363D02*
X038136Y018363D01*
X038109Y018363D02*
X037857Y018363D01*
X037831Y018363D02*
X037645Y018363D01*
X037618Y018401D02*
X037869Y018401D01*
X037896Y018401D02*
X038147Y018401D01*
X038097Y018324D02*
X038349Y018324D01*
X038376Y018324D02*
X038408Y018324D01*
X038392Y018340D02*
X038517Y018214D01*
X038155Y017852D01*
X038029Y017978D01*
X038392Y018340D01*
X038517Y018214D01*
X038155Y017852D01*
X038029Y017978D01*
X038392Y018340D01*
X038337Y018285D02*
X038446Y018285D01*
X038485Y018247D02*
X038299Y018247D01*
X038272Y018247D02*
X038020Y018247D01*
X037993Y018247D02*
X037760Y018247D01*
X037753Y018285D02*
X037722Y018285D01*
X037683Y018324D02*
X037792Y018324D01*
X037819Y018324D02*
X038070Y018324D01*
X038059Y018285D02*
X038310Y018285D01*
X038260Y018208D02*
X038511Y018208D01*
X038531Y018201D02*
X038657Y018075D01*
X038294Y017713D01*
X038169Y017839D01*
X038531Y018201D01*
X038657Y018075D01*
X038294Y017713D01*
X038169Y017839D01*
X038531Y018201D01*
X038500Y018170D02*
X038562Y018170D01*
X038600Y018131D02*
X038461Y018131D01*
X038434Y018131D02*
X038183Y018131D01*
X038156Y018131D02*
X037905Y018131D01*
X037878Y018131D02*
X037876Y018131D01*
X037914Y018093D02*
X038117Y018093D01*
X038144Y018093D02*
X038396Y018093D01*
X038423Y018093D02*
X038639Y018093D01*
X038636Y018054D02*
X038384Y018054D01*
X038357Y018054D02*
X038106Y018054D01*
X038079Y018054D02*
X037953Y018054D01*
X037991Y018016D02*
X038040Y018016D01*
X038067Y018016D02*
X038319Y018016D01*
X038346Y018016D02*
X038597Y018016D01*
X038624Y018016D02*
X038716Y018016D01*
X038678Y018054D02*
X038662Y018054D01*
X038670Y018062D02*
X038796Y017936D01*
X038434Y017574D01*
X038308Y017699D01*
X038670Y018062D01*
X038796Y017936D01*
X038434Y017574D01*
X038308Y017699D01*
X038670Y018062D01*
X038585Y017977D02*
X038755Y017977D01*
X038793Y017939D02*
X038547Y017939D01*
X038520Y017939D02*
X038269Y017939D01*
X038242Y017939D02*
X038069Y017939D01*
X038030Y017977D02*
X038280Y017977D01*
X038307Y017977D02*
X038559Y017977D01*
X038508Y017900D02*
X038760Y017900D01*
X038787Y017900D02*
X038832Y017900D01*
X038809Y017922D02*
X038935Y017797D01*
X038573Y017434D01*
X038447Y017560D01*
X038809Y017922D01*
X038935Y017797D01*
X038573Y017434D01*
X038447Y017560D01*
X038809Y017922D01*
X038748Y017861D02*
X038870Y017861D01*
X038909Y017823D02*
X038710Y017823D01*
X038683Y017823D02*
X038431Y017823D01*
X038404Y017823D02*
X038184Y017823D01*
X038192Y017861D02*
X038443Y017861D01*
X038470Y017861D02*
X038721Y017861D01*
X038671Y017784D02*
X038923Y017784D01*
X038948Y017783D02*
X039074Y017658D01*
X038712Y017295D01*
X038586Y017421D01*
X038948Y017783D01*
X039074Y017658D01*
X038712Y017295D01*
X038586Y017421D01*
X038948Y017783D01*
X038911Y017746D02*
X038986Y017746D01*
X039024Y017707D02*
X038872Y017707D01*
X038846Y017707D02*
X038594Y017707D01*
X038567Y017707D02*
X038316Y017707D01*
X038327Y017746D02*
X038261Y017746D01*
X038223Y017784D02*
X038366Y017784D01*
X038393Y017784D02*
X038644Y017784D01*
X038633Y017746D02*
X038884Y017746D01*
X038834Y017669D02*
X039063Y017669D01*
X039088Y017644D02*
X039213Y017518D01*
X038851Y017156D01*
X038725Y017282D01*
X039088Y017644D01*
X039213Y017518D01*
X038851Y017156D01*
X038725Y017282D01*
X039088Y017644D01*
X039074Y017630D02*
X039102Y017630D01*
X039140Y017592D02*
X039035Y017592D01*
X039008Y017592D02*
X038757Y017592D01*
X038730Y017592D02*
X038478Y017592D01*
X038451Y017592D02*
X038416Y017592D01*
X038454Y017553D02*
X038691Y017553D01*
X038718Y017553D02*
X038970Y017553D01*
X038997Y017553D02*
X039179Y017553D01*
X039210Y017515D02*
X038958Y017515D01*
X038931Y017515D02*
X038680Y017515D01*
X038653Y017515D02*
X038493Y017515D01*
X038531Y017476D02*
X038614Y017476D01*
X038641Y017476D02*
X038893Y017476D01*
X038920Y017476D02*
X039171Y017476D01*
X039198Y017476D02*
X039256Y017476D01*
X039227Y017505D02*
X039353Y017379D01*
X038990Y017017D01*
X038864Y017143D01*
X039227Y017505D01*
X039353Y017379D01*
X038990Y017017D01*
X038864Y017143D01*
X039227Y017505D01*
X039294Y017438D02*
X039159Y017438D01*
X039133Y017438D02*
X038881Y017438D01*
X038854Y017438D02*
X038603Y017438D01*
X038576Y017438D02*
X038570Y017438D01*
X038608Y017399D02*
X038816Y017399D01*
X038843Y017399D02*
X039094Y017399D01*
X039121Y017399D02*
X039333Y017399D01*
X039334Y017360D02*
X039082Y017360D01*
X039055Y017360D02*
X038804Y017360D01*
X038777Y017360D02*
X038647Y017360D01*
X038685Y017322D02*
X038738Y017322D01*
X038765Y017322D02*
X039017Y017322D01*
X039044Y017322D02*
X039295Y017322D01*
X039322Y017322D02*
X039410Y017322D01*
X039371Y017360D02*
X039361Y017360D01*
X039366Y017366D02*
X039492Y017240D01*
X039129Y016878D01*
X039004Y017003D01*
X039366Y017366D01*
X039492Y017240D01*
X039129Y016878D01*
X039004Y017003D01*
X039366Y017366D01*
X039284Y017283D02*
X039448Y017283D01*
X039487Y017245D02*
X039245Y017245D01*
X039218Y017245D02*
X038967Y017245D01*
X038940Y017245D02*
X038762Y017245D01*
X038727Y017283D02*
X038978Y017283D01*
X039005Y017283D02*
X039257Y017283D01*
X039207Y017206D02*
X039458Y017206D01*
X039485Y017206D02*
X039525Y017206D01*
X039505Y017227D02*
X039631Y017101D01*
X039269Y016739D01*
X039143Y016864D01*
X039505Y017227D01*
X039631Y017101D01*
X039269Y016739D01*
X039143Y016864D01*
X039505Y017227D01*
X039446Y017168D02*
X039564Y017168D01*
X039603Y017129D02*
X039408Y017129D01*
X039381Y017129D02*
X039130Y017129D01*
X039103Y017129D02*
X038878Y017129D01*
X038890Y017168D02*
X039141Y017168D01*
X039168Y017168D02*
X039420Y017168D01*
X039369Y017091D02*
X039621Y017091D01*
X039644Y017087D02*
X039770Y016962D01*
X039408Y016599D01*
X039282Y016725D01*
X039644Y017087D01*
X039770Y016962D01*
X039408Y016599D01*
X039282Y016725D01*
X039644Y017087D01*
X039609Y017052D02*
X039680Y017052D01*
X039718Y017014D02*
X039571Y017014D01*
X039544Y017014D02*
X039292Y017014D01*
X039265Y017014D02*
X039014Y017014D01*
X039025Y017052D02*
X038955Y017052D01*
X038917Y017091D02*
X039064Y017091D01*
X039091Y017091D02*
X039343Y017091D01*
X039331Y017052D02*
X039582Y017052D01*
X039532Y016975D02*
X039757Y016975D01*
X039784Y016948D02*
X039909Y016822D01*
X039547Y016460D01*
X039421Y016586D01*
X039784Y016948D01*
X039909Y016822D01*
X039547Y016460D01*
X039421Y016586D01*
X039784Y016948D01*
X039772Y016936D02*
X039795Y016936D01*
X039745Y016936D02*
X039494Y016936D01*
X039467Y016936D02*
X039215Y016936D01*
X039188Y016936D02*
X039071Y016936D01*
X039109Y016898D02*
X039150Y016898D01*
X039177Y016898D02*
X039428Y016898D01*
X039455Y016898D02*
X039707Y016898D01*
X039733Y016898D02*
X039834Y016898D01*
X039872Y016859D02*
X039695Y016859D01*
X039668Y016859D02*
X039417Y016859D01*
X039390Y016859D02*
X039148Y016859D01*
X039186Y016821D02*
X039351Y016821D01*
X039378Y016821D02*
X039629Y016821D01*
X039656Y016821D02*
X039908Y016821D01*
X039923Y016809D02*
X040049Y016683D01*
X039686Y016321D01*
X039561Y016447D01*
X039923Y016809D01*
X040049Y016683D01*
X039686Y016321D01*
X039561Y016447D01*
X039923Y016809D01*
X039896Y016782D02*
X039950Y016782D01*
X039988Y016744D02*
X039858Y016744D01*
X039831Y016744D02*
X039579Y016744D01*
X039552Y016744D02*
X039301Y016744D01*
X039274Y016744D02*
X039264Y016744D01*
X039302Y016705D02*
X039514Y016705D01*
X039541Y016705D02*
X039792Y016705D01*
X039819Y016705D02*
X040027Y016705D01*
X040032Y016667D02*
X039781Y016667D01*
X039754Y016667D02*
X039502Y016667D01*
X039475Y016667D02*
X039341Y016667D01*
X039379Y016628D02*
X039437Y016628D01*
X039464Y016628D02*
X039715Y016628D01*
X039742Y016628D02*
X039993Y016628D01*
X040020Y016628D02*
X040104Y016628D01*
X040142Y016590D02*
X039982Y016590D01*
X039955Y016590D02*
X039704Y016590D01*
X039676Y016590D02*
X039425Y016590D01*
X039456Y016551D02*
X039638Y016551D01*
X039665Y016551D02*
X039916Y016551D01*
X039943Y016551D02*
X040181Y016551D01*
X040188Y016544D02*
X039825Y016182D01*
X039700Y016307D01*
X040062Y016670D01*
X040188Y016544D01*
X039825Y016182D01*
X039700Y016307D01*
X040062Y016670D01*
X040188Y016544D01*
X040201Y016531D02*
X040327Y016405D01*
X039965Y016043D01*
X039839Y016168D01*
X040201Y016531D01*
X040327Y016405D01*
X039965Y016043D01*
X039839Y016168D01*
X040201Y016531D01*
X040183Y016512D02*
X040219Y016512D01*
X040258Y016474D02*
X040145Y016474D01*
X040118Y016474D02*
X039866Y016474D01*
X039839Y016474D02*
X039588Y016474D01*
X039561Y016474D02*
X039533Y016474D01*
X039495Y016512D02*
X039599Y016512D01*
X039626Y016512D02*
X039878Y016512D01*
X039905Y016512D02*
X040156Y016512D01*
X040106Y016435D02*
X040296Y016435D01*
X040319Y016397D02*
X040068Y016397D01*
X040041Y016397D02*
X039789Y016397D01*
X039762Y016397D02*
X039610Y016397D01*
X039572Y016435D02*
X039801Y016435D01*
X039828Y016435D02*
X040079Y016435D01*
X040029Y016358D02*
X040280Y016358D01*
X040307Y016358D02*
X040373Y016358D01*
X040340Y016391D02*
X040466Y016266D01*
X040104Y015903D01*
X039978Y016029D01*
X040340Y016391D01*
X040466Y016266D01*
X040104Y015903D01*
X039978Y016029D01*
X040340Y016391D01*
X040269Y016320D02*
X040412Y016320D01*
X040451Y016281D02*
X040230Y016281D01*
X040203Y016281D02*
X039952Y016281D01*
X039925Y016281D02*
X039726Y016281D01*
X039712Y016320D02*
X039963Y016320D01*
X039990Y016320D02*
X040242Y016320D01*
X040192Y016243D02*
X040443Y016243D01*
X040470Y016243D02*
X040489Y016243D01*
X040480Y016252D02*
X040605Y016126D01*
X040243Y015764D01*
X040117Y015890D01*
X040480Y016252D01*
X040605Y016126D01*
X040243Y015764D01*
X040117Y015890D01*
X040480Y016252D01*
X040432Y016204D02*
X040528Y016204D01*
X040566Y016166D02*
X040393Y016166D01*
X040366Y016166D02*
X040115Y016166D01*
X040088Y016166D02*
X039842Y016166D01*
X039848Y016204D02*
X039803Y016204D01*
X039764Y016243D02*
X039886Y016243D01*
X039913Y016243D02*
X040165Y016243D01*
X040153Y016204D02*
X040405Y016204D01*
X040354Y016127D02*
X040605Y016127D01*
X040619Y016113D02*
X040744Y015987D01*
X040382Y015625D01*
X040256Y015751D01*
X040619Y016113D01*
X040744Y015987D01*
X040382Y015625D01*
X040256Y015751D01*
X040619Y016113D01*
X040643Y016089D02*
X040594Y016089D01*
X040567Y016089D02*
X040316Y016089D01*
X040289Y016089D02*
X040037Y016089D01*
X040011Y016089D02*
X039919Y016089D01*
X039880Y016127D02*
X040049Y016127D01*
X040076Y016127D02*
X040328Y016127D01*
X040277Y016050D02*
X040529Y016050D01*
X040556Y016050D02*
X040682Y016050D01*
X040720Y016011D02*
X040517Y016011D01*
X040490Y016011D02*
X040239Y016011D01*
X040212Y016011D02*
X039996Y016011D01*
X039999Y016050D02*
X040250Y016050D01*
X040200Y015973D02*
X040452Y015973D01*
X040479Y015973D02*
X040730Y015973D01*
X040757Y015973D02*
X040759Y015973D01*
X040758Y015974D02*
X040884Y015848D01*
X040521Y015486D01*
X040396Y015611D01*
X040758Y015974D01*
X040884Y015848D01*
X040521Y015486D01*
X040396Y015611D01*
X040758Y015974D01*
X040719Y015934D02*
X040797Y015934D01*
X040836Y015896D02*
X040680Y015896D01*
X040653Y015896D02*
X040402Y015896D01*
X040375Y015896D02*
X040123Y015896D01*
X040135Y015934D02*
X040073Y015934D01*
X040034Y015973D02*
X040173Y015973D01*
X040162Y015934D02*
X040413Y015934D01*
X040440Y015934D02*
X040692Y015934D01*
X040641Y015857D02*
X040874Y015857D01*
X040897Y015835D02*
X040535Y015472D01*
X040661Y015347D01*
X041023Y015709D01*
X040897Y015835D01*
X041023Y015709D01*
X040661Y015347D01*
X040535Y015472D01*
X040897Y015835D01*
X040881Y015819D02*
X040913Y015819D01*
X040952Y015780D02*
X040843Y015780D01*
X040816Y015780D02*
X040564Y015780D01*
X040537Y015780D02*
X040286Y015780D01*
X040259Y015780D02*
X040227Y015780D01*
X040266Y015742D02*
X040499Y015742D01*
X040526Y015742D02*
X040777Y015742D01*
X040804Y015742D02*
X040990Y015742D01*
X041017Y015703D02*
X040766Y015703D01*
X040739Y015703D02*
X040487Y015703D01*
X040460Y015703D02*
X040304Y015703D01*
X040343Y015665D02*
X040422Y015665D01*
X040449Y015665D02*
X040700Y015665D01*
X040727Y015665D02*
X040979Y015665D01*
X041006Y015665D02*
X041067Y015665D01*
X041036Y015695D02*
X041162Y015570D01*
X040800Y015207D01*
X040674Y015333D01*
X041036Y015695D01*
X041162Y015570D01*
X040800Y015207D01*
X040674Y015333D01*
X041036Y015695D01*
X040967Y015626D02*
X041106Y015626D01*
X041144Y015587D02*
X040929Y015587D01*
X040901Y015587D02*
X040650Y015587D01*
X040623Y015587D02*
X040420Y015587D01*
X040410Y015626D02*
X040662Y015626D01*
X040689Y015626D02*
X040940Y015626D01*
X040890Y015549D02*
X041141Y015549D01*
X041168Y015549D02*
X041183Y015549D01*
X041176Y015556D02*
X041301Y015431D01*
X040939Y015068D01*
X040813Y015194D01*
X041176Y015556D01*
X041301Y015431D01*
X040939Y015068D01*
X040813Y015194D01*
X041176Y015556D01*
X041221Y015510D02*
X041130Y015510D01*
X041103Y015510D02*
X040851Y015510D01*
X040824Y015510D02*
X040573Y015510D01*
X040546Y015510D02*
X040497Y015510D01*
X040535Y015472D02*
X040786Y015472D01*
X040813Y015472D02*
X041064Y015472D01*
X041091Y015472D02*
X041260Y015472D01*
X041299Y015433D02*
X041053Y015433D01*
X041026Y015433D02*
X040774Y015433D01*
X040747Y015433D02*
X040574Y015433D01*
X040613Y015395D02*
X040709Y015395D01*
X040736Y015395D02*
X040987Y015395D01*
X041014Y015395D02*
X041266Y015395D01*
X041292Y015395D02*
X041337Y015395D01*
X041315Y015417D02*
X041441Y015291D01*
X041078Y014929D01*
X040952Y015055D01*
X041315Y015417D01*
X041441Y015291D01*
X041078Y014929D01*
X040952Y015055D01*
X041315Y015417D01*
X041254Y015356D02*
X041376Y015356D01*
X041414Y015318D02*
X041215Y015318D01*
X041188Y015318D02*
X040937Y015318D01*
X040910Y015318D02*
X040689Y015318D01*
X040697Y015356D02*
X040949Y015356D01*
X040976Y015356D02*
X041227Y015356D01*
X041177Y015279D02*
X041428Y015279D01*
X041454Y015278D02*
X041580Y015152D01*
X041217Y014790D01*
X041092Y014916D01*
X041454Y015278D01*
X041580Y015152D01*
X041217Y014790D01*
X041092Y014916D01*
X041454Y015278D01*
X041417Y015241D02*
X041491Y015241D01*
X041530Y015202D02*
X041378Y015202D01*
X041351Y015202D02*
X041100Y015202D01*
X041073Y015202D02*
X040821Y015202D01*
X040833Y015241D02*
X040767Y015241D01*
X040728Y015279D02*
X040872Y015279D01*
X040898Y015279D02*
X041150Y015279D01*
X041138Y015241D02*
X041390Y015241D01*
X041340Y015163D02*
X041568Y015163D01*
X041593Y015139D02*
X041231Y014776D01*
X041357Y014651D01*
X041719Y015013D01*
X041593Y015139D01*
X041719Y015013D01*
X041357Y014651D01*
X041231Y014776D01*
X041593Y015139D01*
X041579Y015125D02*
X041607Y015125D01*
X041645Y015086D02*
X041541Y015086D01*
X041514Y015086D02*
X041262Y015086D01*
X041236Y015086D02*
X040984Y015086D01*
X040957Y015086D02*
X040921Y015086D01*
X040959Y015048D02*
X041197Y015048D01*
X041224Y015048D02*
X041475Y015048D01*
X041502Y015048D02*
X041684Y015048D01*
X041715Y015009D02*
X041464Y015009D01*
X041437Y015009D02*
X041185Y015009D01*
X041159Y015009D02*
X040998Y015009D01*
X041036Y014971D02*
X041120Y014971D01*
X041147Y014971D02*
X041398Y014971D01*
X041425Y014971D02*
X041677Y014971D01*
X041638Y014932D02*
X041387Y014932D01*
X041360Y014932D02*
X041108Y014932D01*
X041081Y014932D02*
X041075Y014932D01*
X041114Y014894D02*
X041321Y014894D01*
X041348Y014894D02*
X041600Y014894D01*
X041561Y014855D02*
X041310Y014855D01*
X041283Y014855D02*
X041152Y014855D01*
X041191Y014817D02*
X041244Y014817D01*
X041271Y014817D02*
X041523Y014817D01*
X041484Y014778D02*
X041233Y014778D01*
X041268Y014739D02*
X041445Y014739D01*
X041407Y014701D02*
X041306Y014701D01*
X041345Y014662D02*
X041368Y014662D01*
X041301Y015125D02*
X041552Y015125D01*
X041313Y015163D02*
X041061Y015163D01*
X041034Y015163D02*
X040844Y015163D01*
X040882Y015125D02*
X040996Y015125D01*
X041023Y015125D02*
X041274Y015125D01*
X041111Y015241D02*
X040860Y015241D01*
X040670Y015356D02*
X040651Y015356D01*
X040611Y015549D02*
X040863Y015549D01*
X040854Y015819D02*
X040603Y015819D01*
X040576Y015819D02*
X040324Y015819D01*
X040298Y015819D02*
X040189Y015819D01*
X040150Y015857D02*
X040336Y015857D01*
X040363Y015857D02*
X040614Y015857D01*
X040585Y015549D02*
X040458Y015549D01*
X040383Y015626D02*
X040381Y015626D01*
X039972Y016050D02*
X039957Y016050D01*
X039875Y016204D02*
X040126Y016204D01*
X040002Y016358D02*
X039751Y016358D01*
X039724Y016358D02*
X039649Y016358D01*
X039618Y016782D02*
X039869Y016782D01*
X040059Y016667D02*
X040065Y016667D01*
X039591Y016782D02*
X039339Y016782D01*
X039312Y016782D02*
X039225Y016782D01*
X039227Y016975D02*
X039032Y016975D01*
X039052Y017052D02*
X039304Y017052D01*
X039254Y016975D02*
X039505Y016975D01*
X039180Y017206D02*
X038928Y017206D01*
X038901Y017206D02*
X038801Y017206D01*
X038839Y017168D02*
X038863Y017168D01*
X038795Y017630D02*
X039047Y017630D01*
X038807Y017669D02*
X038556Y017669D01*
X038529Y017669D02*
X038338Y017669D01*
X038377Y017630D02*
X038490Y017630D01*
X038517Y017630D02*
X038769Y017630D01*
X038606Y017746D02*
X038354Y017746D01*
X038230Y017900D02*
X038482Y017900D01*
X038473Y018170D02*
X038221Y018170D01*
X038195Y018170D02*
X037943Y018170D01*
X037916Y018170D02*
X037837Y018170D01*
X037799Y018208D02*
X037955Y018208D01*
X037982Y018208D02*
X038233Y018208D01*
X038032Y018285D02*
X037780Y018285D01*
X037783Y018594D02*
X037532Y018594D01*
X037505Y018594D02*
X037413Y018594D01*
X037375Y018632D02*
X037544Y018632D01*
X037810Y018594D02*
X038062Y018594D01*
X037984Y018748D02*
X037964Y018748D01*
X037209Y019133D02*
X036958Y019133D01*
X036949Y019403D02*
X037201Y019403D01*
X037228Y019403D02*
X037329Y019403D01*
X037290Y019442D02*
X037266Y019442D01*
X037239Y019442D02*
X036988Y019442D01*
X036961Y019442D02*
X036709Y019442D01*
X036683Y019442D02*
X036565Y019442D01*
X036527Y019480D02*
X036721Y019480D01*
X036748Y019480D02*
X036999Y019480D01*
X037026Y019480D02*
X037251Y019480D01*
X037213Y019519D02*
X037065Y019519D01*
X037038Y019519D02*
X036787Y019519D01*
X036760Y019519D02*
X036508Y019519D01*
X036498Y019509D02*
X036861Y019871D01*
X036986Y019745D01*
X036624Y019383D01*
X036498Y019509D01*
X036861Y019871D01*
X036986Y019745D01*
X036624Y019383D01*
X036498Y019509D01*
X036485Y019522D02*
X036847Y019885D01*
X036721Y020010D01*
X036359Y019648D01*
X036485Y019522D01*
X036847Y019885D01*
X036721Y020010D01*
X036359Y019648D01*
X036485Y019522D01*
X036450Y019557D02*
X036520Y019557D01*
X036547Y019557D02*
X036798Y019557D01*
X036825Y019557D02*
X037077Y019557D01*
X037104Y019557D02*
X037174Y019557D01*
X037115Y019596D02*
X036864Y019596D01*
X036837Y019596D02*
X036585Y019596D01*
X036558Y019596D02*
X036411Y019596D01*
X036373Y019634D02*
X036597Y019634D01*
X036624Y019634D02*
X036875Y019634D01*
X036902Y019634D02*
X037097Y019634D01*
X037059Y019673D02*
X036941Y019673D01*
X036914Y019673D02*
X036662Y019673D01*
X036635Y019673D02*
X036384Y019673D01*
X036423Y019712D02*
X036674Y019712D01*
X036701Y019712D02*
X036952Y019712D01*
X036979Y019712D02*
X037020Y019712D01*
X036982Y019750D02*
X036740Y019750D01*
X036712Y019750D02*
X036461Y019750D01*
X036500Y019789D02*
X036751Y019789D01*
X036778Y019789D02*
X036943Y019789D01*
X036905Y019827D02*
X036817Y019827D01*
X036790Y019827D02*
X036538Y019827D01*
X036577Y019866D02*
X036828Y019866D01*
X036855Y019866D02*
X036866Y019866D01*
X036828Y019904D02*
X036615Y019904D01*
X036654Y019943D02*
X036789Y019943D01*
X036750Y019981D02*
X036692Y019981D01*
X036671Y019403D02*
X036922Y019403D01*
X036644Y019403D02*
X036604Y019403D01*
X038107Y017900D02*
X038203Y017900D01*
X038164Y017861D02*
X038146Y017861D01*
X041357Y014025D02*
X041719Y013663D01*
X041593Y013537D01*
X041231Y013899D01*
X041357Y014025D01*
X041719Y013663D01*
X041593Y013537D01*
X041231Y013899D01*
X041357Y014025D01*
X041374Y014007D02*
X041339Y014007D01*
X041300Y013969D02*
X041413Y013969D01*
X041452Y013930D02*
X041262Y013930D01*
X041239Y013892D02*
X041490Y013892D01*
X041529Y013853D02*
X041277Y013853D01*
X041250Y013853D02*
X041185Y013853D01*
X041217Y013886D02*
X041580Y013524D01*
X041454Y013398D01*
X041092Y013760D01*
X041217Y013886D01*
X041580Y013524D01*
X041454Y013398D01*
X041092Y013760D01*
X041217Y013886D01*
X041146Y013814D02*
X041289Y013814D01*
X041316Y013814D02*
X041567Y013814D01*
X041606Y013776D02*
X041354Y013776D01*
X041327Y013776D02*
X041107Y013776D01*
X041114Y013737D02*
X041366Y013737D01*
X041393Y013737D02*
X041644Y013737D01*
X041683Y013699D02*
X041431Y013699D01*
X041404Y013699D02*
X041153Y013699D01*
X041126Y013699D02*
X041030Y013699D01*
X040992Y013660D02*
X041165Y013660D01*
X041192Y013660D02*
X041443Y013660D01*
X041470Y013660D02*
X041716Y013660D01*
X041678Y013622D02*
X041509Y013622D01*
X041481Y013622D02*
X041230Y013622D01*
X041203Y013622D02*
X040953Y013622D01*
X040952Y013621D02*
X041078Y013747D01*
X041441Y013384D01*
X041315Y013259D01*
X040952Y013621D01*
X041078Y013747D01*
X041441Y013384D01*
X041315Y013259D01*
X040952Y013621D01*
X040939Y013607D02*
X041301Y013245D01*
X041176Y013119D01*
X040813Y013482D01*
X040939Y013607D01*
X041301Y013245D01*
X041176Y013119D01*
X040813Y013482D01*
X040939Y013607D01*
X040915Y013583D02*
X040963Y013583D01*
X040990Y013583D02*
X041242Y013583D01*
X041269Y013583D02*
X041520Y013583D01*
X041547Y013583D02*
X041639Y013583D01*
X041601Y013545D02*
X041586Y013545D01*
X041559Y013545D02*
X041307Y013545D01*
X041280Y013545D02*
X041029Y013545D01*
X041002Y013545D02*
X040876Y013545D01*
X040838Y013506D02*
X041040Y013506D01*
X041067Y013506D02*
X041319Y013506D01*
X041346Y013506D02*
X041562Y013506D01*
X041524Y013468D02*
X041384Y013468D01*
X041357Y013468D02*
X041106Y013468D01*
X041079Y013468D02*
X040827Y013468D01*
X040801Y013468D02*
X040799Y013468D01*
X040800Y013468D02*
X041162Y013106D01*
X041036Y012980D01*
X040674Y013343D01*
X040800Y013468D01*
X041162Y013106D01*
X041036Y012980D01*
X040674Y013343D01*
X040800Y013468D01*
X040760Y013429D02*
X040839Y013429D01*
X040866Y013429D02*
X041117Y013429D01*
X041144Y013429D02*
X041396Y013429D01*
X041423Y013429D02*
X041485Y013429D01*
X041434Y013390D02*
X041183Y013390D01*
X041156Y013390D02*
X040905Y013390D01*
X040878Y013390D02*
X040722Y013390D01*
X040683Y013352D02*
X040916Y013352D01*
X040943Y013352D02*
X041194Y013352D01*
X041221Y013352D02*
X041408Y013352D01*
X041370Y013313D02*
X041260Y013313D01*
X041233Y013313D02*
X040982Y013313D01*
X040955Y013313D02*
X040703Y013313D01*
X040676Y013313D02*
X040645Y013313D01*
X040661Y013329D02*
X041023Y012967D01*
X040897Y012841D01*
X040535Y013203D01*
X040661Y013329D01*
X041023Y012967D01*
X040897Y012841D01*
X040535Y013203D01*
X040661Y013329D01*
X040715Y013275D02*
X040606Y013275D01*
X040568Y013236D02*
X040753Y013236D01*
X040780Y013236D02*
X041032Y013236D01*
X041059Y013236D02*
X041292Y013236D01*
X041299Y013275D02*
X041331Y013275D01*
X041272Y013275D02*
X041020Y013275D01*
X040993Y013275D02*
X040742Y013275D01*
X040792Y013198D02*
X040540Y013198D01*
X040521Y013190D02*
X040884Y012828D01*
X040758Y012702D01*
X040396Y013064D01*
X040521Y013190D01*
X040884Y012828D01*
X040758Y012702D01*
X040396Y013064D01*
X040521Y013190D01*
X040491Y013159D02*
X040552Y013159D01*
X040579Y013159D02*
X040830Y013159D01*
X040858Y013159D02*
X041109Y013159D01*
X041136Y013159D02*
X041215Y013159D01*
X041177Y013121D02*
X041174Y013121D01*
X041147Y013121D02*
X040896Y013121D01*
X040869Y013121D02*
X040618Y013121D01*
X040591Y013121D02*
X040452Y013121D01*
X040414Y013082D02*
X040629Y013082D01*
X040656Y013082D02*
X040907Y013082D01*
X040935Y013082D02*
X041138Y013082D01*
X041100Y013044D02*
X040973Y013044D01*
X040946Y013044D02*
X040695Y013044D01*
X040668Y013044D02*
X040416Y013044D01*
X040389Y013044D02*
X040375Y013044D01*
X040382Y013051D02*
X040744Y012688D01*
X040619Y012563D01*
X040256Y012925D01*
X040382Y013051D01*
X040744Y012688D01*
X040619Y012563D01*
X040256Y012925D01*
X040382Y013051D01*
X040337Y013005D02*
X040428Y013005D01*
X040455Y013005D02*
X040706Y013005D01*
X040733Y013005D02*
X040985Y013005D01*
X041012Y013005D02*
X041061Y013005D01*
X041023Y012966D02*
X040772Y012966D01*
X040745Y012966D02*
X040493Y012966D01*
X040466Y012966D02*
X040298Y012966D01*
X040260Y012928D02*
X040505Y012928D01*
X040532Y012928D02*
X040783Y012928D01*
X040810Y012928D02*
X040984Y012928D01*
X040946Y012889D02*
X040849Y012889D01*
X040822Y012889D02*
X040571Y012889D01*
X040543Y012889D02*
X040292Y012889D01*
X040265Y012889D02*
X040221Y012889D01*
X040243Y012912D02*
X040605Y012549D01*
X040480Y012424D01*
X040117Y012786D01*
X040243Y012912D01*
X040605Y012549D01*
X040480Y012424D01*
X040117Y012786D01*
X040243Y012912D01*
X040182Y012851D02*
X040304Y012851D01*
X040331Y012851D02*
X040582Y012851D01*
X040609Y012851D02*
X040860Y012851D01*
X040887Y012851D02*
X040907Y012851D01*
X040868Y012812D02*
X040648Y012812D01*
X040621Y012812D02*
X040369Y012812D01*
X040342Y012812D02*
X040144Y012812D01*
X040129Y012774D02*
X040381Y012774D01*
X040408Y012774D02*
X040659Y012774D01*
X040686Y012774D02*
X040830Y012774D01*
X040791Y012735D02*
X040725Y012735D01*
X040698Y012735D02*
X040446Y012735D01*
X040419Y012735D02*
X040168Y012735D01*
X040141Y012735D02*
X040067Y012735D01*
X040104Y012772D02*
X040466Y012410D01*
X040340Y012284D01*
X039978Y012647D01*
X040104Y012772D01*
X040466Y012410D01*
X040340Y012284D01*
X039978Y012647D01*
X040104Y012772D01*
X040028Y012697D02*
X040179Y012697D01*
X040206Y012697D02*
X040458Y012697D01*
X040485Y012697D02*
X040736Y012697D01*
X040714Y012658D02*
X040523Y012658D01*
X040496Y012658D02*
X040245Y012658D01*
X040218Y012658D02*
X039990Y012658D01*
X039965Y012633D02*
X040327Y012271D01*
X040201Y012145D01*
X039839Y012507D01*
X039965Y012633D01*
X040327Y012271D01*
X040201Y012145D01*
X039839Y012507D01*
X039965Y012633D01*
X039978Y012620D02*
X039951Y012620D01*
X040005Y012620D02*
X040256Y012620D01*
X040284Y012620D02*
X040535Y012620D01*
X040562Y012620D02*
X040676Y012620D01*
X040637Y012581D02*
X040600Y012581D01*
X040574Y012581D02*
X040322Y012581D01*
X040295Y012581D02*
X040044Y012581D01*
X040017Y012581D02*
X039913Y012581D01*
X039874Y012543D02*
X040055Y012543D01*
X040082Y012543D02*
X040334Y012543D01*
X040361Y012543D02*
X040599Y012543D01*
X040560Y012504D02*
X040399Y012504D01*
X040372Y012504D02*
X040121Y012504D01*
X040094Y012504D02*
X039842Y012504D01*
X039825Y012494D02*
X039700Y012368D01*
X040062Y012006D01*
X040188Y012132D01*
X039825Y012494D01*
X040188Y012132D01*
X040062Y012006D01*
X039700Y012368D01*
X039825Y012494D01*
X039797Y012465D02*
X039854Y012465D01*
X039881Y012465D02*
X040132Y012465D01*
X040159Y012465D02*
X040411Y012465D01*
X040438Y012465D02*
X040522Y012465D01*
X040483Y012427D02*
X040476Y012427D01*
X040449Y012427D02*
X040198Y012427D01*
X040171Y012427D02*
X039919Y012427D01*
X039892Y012427D02*
X039758Y012427D01*
X039720Y012388D02*
X039931Y012388D01*
X039958Y012388D02*
X040209Y012388D01*
X040236Y012388D02*
X040444Y012388D01*
X040406Y012350D02*
X040275Y012350D01*
X040248Y012350D02*
X039997Y012350D01*
X039970Y012350D02*
X039718Y012350D01*
X039691Y012350D02*
X039681Y012350D01*
X039686Y012355D02*
X040049Y011992D01*
X039923Y011867D01*
X039561Y012229D01*
X039686Y012355D01*
X040049Y011992D01*
X039923Y011867D01*
X039561Y012229D01*
X039686Y012355D01*
X039643Y012311D02*
X039730Y012311D01*
X039757Y012311D02*
X040008Y012311D01*
X040035Y012311D02*
X040287Y012311D01*
X040313Y012311D02*
X040367Y012311D01*
X040325Y012273D02*
X040074Y012273D01*
X040047Y012273D02*
X039795Y012273D01*
X039768Y012273D02*
X039604Y012273D01*
X039566Y012234D02*
X039807Y012234D01*
X039834Y012234D02*
X040085Y012234D01*
X040112Y012234D02*
X040290Y012234D01*
X040252Y012196D02*
X040151Y012196D01*
X040124Y012196D02*
X039872Y012196D01*
X039845Y012196D02*
X039594Y012196D01*
X039567Y012196D02*
X039527Y012196D01*
X039547Y012216D02*
X039909Y011853D01*
X039784Y011727D01*
X039421Y012090D01*
X039547Y012216D01*
X039909Y011853D01*
X039784Y011727D01*
X039421Y012090D01*
X039547Y012216D01*
X039489Y012157D02*
X039605Y012157D01*
X039633Y012157D02*
X039884Y012157D01*
X039911Y012157D02*
X040162Y012157D01*
X040189Y012157D02*
X040213Y012157D01*
X040175Y012119D02*
X039949Y012119D01*
X039922Y012119D02*
X039671Y012119D01*
X039644Y012119D02*
X039450Y012119D01*
X039431Y012080D02*
X039683Y012080D01*
X039710Y012080D02*
X039961Y012080D01*
X039988Y012080D02*
X040136Y012080D01*
X040098Y012041D02*
X040026Y012041D01*
X040000Y012041D02*
X039748Y012041D01*
X039721Y012041D02*
X039470Y012041D01*
X039443Y012041D02*
X039373Y012041D01*
X039408Y012076D02*
X039770Y011714D01*
X039644Y011588D01*
X039282Y011951D01*
X039408Y012076D01*
X039770Y011714D01*
X039644Y011588D01*
X039282Y011951D01*
X039408Y012076D01*
X039334Y012003D02*
X039481Y012003D01*
X039508Y012003D02*
X039760Y012003D01*
X039787Y012003D02*
X040038Y012003D01*
X040021Y011964D02*
X039825Y011964D01*
X039798Y011964D02*
X039547Y011964D01*
X039520Y011964D02*
X039296Y011964D01*
X039269Y011937D02*
X039631Y011575D01*
X039505Y011449D01*
X039143Y011811D01*
X039269Y011937D01*
X039631Y011575D01*
X039505Y011449D01*
X039143Y011811D01*
X039269Y011937D01*
X039280Y011926D02*
X039257Y011926D01*
X039307Y011926D02*
X039558Y011926D01*
X039585Y011926D02*
X039837Y011926D01*
X039864Y011926D02*
X039982Y011926D01*
X039943Y011887D02*
X039902Y011887D01*
X039875Y011887D02*
X039624Y011887D01*
X039597Y011887D02*
X039346Y011887D01*
X039319Y011887D02*
X039219Y011887D01*
X039180Y011849D02*
X039357Y011849D01*
X039384Y011849D02*
X039636Y011849D01*
X039662Y011849D02*
X039905Y011849D01*
X039866Y011810D02*
X039701Y011810D01*
X039674Y011810D02*
X039423Y011810D01*
X039396Y011810D02*
X039144Y011810D01*
X039129Y011798D02*
X039492Y011436D01*
X039366Y011310D01*
X039004Y011672D01*
X039129Y011798D01*
X039492Y011436D01*
X039366Y011310D01*
X039004Y011672D01*
X039129Y011798D01*
X039103Y011772D02*
X039156Y011772D01*
X039183Y011772D02*
X039434Y011772D01*
X039461Y011772D02*
X039713Y011772D01*
X039739Y011772D02*
X039828Y011772D01*
X039789Y011733D02*
X039778Y011733D01*
X039751Y011733D02*
X039500Y011733D01*
X039473Y011733D02*
X039221Y011733D01*
X039194Y011733D02*
X039065Y011733D01*
X039026Y011695D02*
X039233Y011695D01*
X039260Y011695D02*
X039511Y011695D01*
X039538Y011695D02*
X039751Y011695D01*
X039712Y011656D02*
X039577Y011656D01*
X039550Y011656D02*
X039298Y011656D01*
X039271Y011656D02*
X039020Y011656D01*
X038993Y011656D02*
X038988Y011656D01*
X038990Y011659D02*
X039353Y011296D01*
X039227Y011171D01*
X038864Y011533D01*
X038990Y011659D01*
X039353Y011296D01*
X039227Y011171D01*
X038864Y011533D01*
X038990Y011659D01*
X038949Y011617D02*
X039032Y011617D01*
X039059Y011617D02*
X039310Y011617D01*
X039337Y011617D02*
X039588Y011617D01*
X039615Y011617D02*
X039674Y011617D01*
X039627Y011579D02*
X039375Y011579D01*
X039349Y011579D02*
X039097Y011579D01*
X039070Y011579D02*
X038910Y011579D01*
X038872Y011540D02*
X039109Y011540D01*
X039136Y011540D02*
X039387Y011540D01*
X039414Y011540D02*
X039596Y011540D01*
X039558Y011502D02*
X039452Y011502D01*
X039426Y011502D02*
X039174Y011502D01*
X039147Y011502D02*
X038896Y011502D01*
X038869Y011502D02*
X038833Y011502D01*
X038851Y011520D02*
X039213Y011157D01*
X039088Y011032D01*
X038725Y011394D01*
X038851Y011520D01*
X039213Y011157D01*
X039088Y011032D01*
X038725Y011394D01*
X038851Y011520D01*
X038795Y011463D02*
X038907Y011463D01*
X038934Y011463D02*
X039186Y011463D01*
X039213Y011463D02*
X039464Y011463D01*
X039491Y011463D02*
X039519Y011463D01*
X039481Y011425D02*
X039251Y011425D01*
X039224Y011425D02*
X038973Y011425D01*
X038946Y011425D02*
X038756Y011425D01*
X038733Y011386D02*
X038984Y011386D01*
X039011Y011386D02*
X039263Y011386D01*
X039290Y011386D02*
X039442Y011386D01*
X039404Y011348D02*
X039328Y011348D01*
X039301Y011348D02*
X039050Y011348D01*
X039023Y011348D02*
X038772Y011348D01*
X038745Y011348D02*
X038679Y011348D01*
X038712Y011380D02*
X039074Y011018D01*
X038948Y010892D01*
X038586Y011255D01*
X038712Y011380D01*
X039074Y011018D01*
X038948Y010892D01*
X038586Y011255D01*
X038712Y011380D01*
X038641Y011309D02*
X038783Y011309D01*
X038810Y011309D02*
X039062Y011309D01*
X039088Y011309D02*
X039340Y011309D01*
X039327Y011271D02*
X039127Y011271D01*
X039100Y011271D02*
X038849Y011271D01*
X038822Y011271D02*
X038602Y011271D01*
X038609Y011232D02*
X038860Y011232D01*
X038887Y011232D02*
X039139Y011232D01*
X039166Y011232D02*
X039288Y011232D01*
X039250Y011194D02*
X039204Y011194D01*
X039177Y011194D02*
X038926Y011194D01*
X038899Y011194D02*
X038647Y011194D01*
X038620Y011194D02*
X038525Y011194D01*
X038564Y011232D02*
X038582Y011232D01*
X038573Y011241D02*
X038935Y010879D01*
X038809Y010753D01*
X038447Y011115D01*
X038573Y011241D01*
X038935Y010879D01*
X038809Y010753D01*
X038447Y011115D01*
X038573Y011241D01*
X038659Y011155D02*
X038486Y011155D01*
X038448Y011116D02*
X038698Y011116D01*
X038724Y011116D02*
X038976Y011116D01*
X039003Y011116D02*
X039173Y011116D01*
X039134Y011078D02*
X039041Y011078D01*
X039014Y011078D02*
X038763Y011078D01*
X038736Y011078D02*
X038485Y011078D01*
X038458Y011078D02*
X038409Y011078D01*
X038434Y011102D02*
X038796Y010740D01*
X038670Y010614D01*
X038308Y010976D01*
X038434Y011102D01*
X038796Y010740D01*
X038670Y010614D01*
X038308Y010976D01*
X038434Y011102D01*
X038496Y011039D02*
X038371Y011039D01*
X038332Y011001D02*
X038535Y011001D01*
X038562Y011001D02*
X038813Y011001D01*
X038840Y011001D02*
X039057Y011001D01*
X039053Y011039D02*
X038801Y011039D01*
X038775Y011039D02*
X038523Y011039D01*
X038573Y010962D02*
X038322Y010962D01*
X038295Y010962D02*
X038294Y010962D01*
X038294Y010963D02*
X038657Y010601D01*
X038531Y010475D01*
X038169Y010837D01*
X038294Y010963D01*
X038657Y010601D01*
X038531Y010475D01*
X038169Y010837D01*
X038294Y010963D01*
X038255Y010924D02*
X038333Y010924D01*
X038360Y010924D02*
X038612Y010924D01*
X038639Y010924D02*
X038890Y010924D01*
X038917Y010924D02*
X038980Y010924D01*
X039018Y010962D02*
X038879Y010962D01*
X038852Y010962D02*
X038600Y010962D01*
X038650Y010885D02*
X038399Y010885D01*
X038372Y010885D02*
X038217Y010885D01*
X038178Y010847D02*
X038411Y010847D01*
X038437Y010847D02*
X038689Y010847D01*
X038716Y010847D02*
X038903Y010847D01*
X038929Y010885D02*
X038677Y010885D01*
X038727Y010808D02*
X038476Y010808D01*
X038449Y010808D02*
X038198Y010808D01*
X038171Y010808D02*
X038140Y010808D01*
X038155Y010824D02*
X038517Y010461D01*
X038266Y010461D01*
X038239Y010461D02*
X037988Y010461D01*
X037961Y010461D02*
X037793Y010461D01*
X037831Y010500D02*
X037922Y010500D01*
X037949Y010500D02*
X038201Y010500D01*
X038228Y010500D02*
X038479Y010500D01*
X038506Y010500D02*
X038556Y010500D01*
X038594Y010538D02*
X038467Y010538D01*
X038440Y010538D02*
X038189Y010538D01*
X038162Y010538D02*
X037911Y010538D01*
X037884Y010538D02*
X037870Y010538D01*
X037877Y010545D02*
X038239Y010183D01*
X038113Y010057D01*
X037751Y010419D01*
X037877Y010545D01*
X038239Y010183D01*
X038113Y010057D01*
X037751Y010419D01*
X037877Y010545D01*
X037890Y010559D02*
X038016Y010684D01*
X038378Y010322D01*
X038252Y010196D01*
X037890Y010559D01*
X038016Y010684D01*
X038378Y010322D01*
X038252Y010196D01*
X037890Y010559D01*
X037908Y010577D02*
X038124Y010577D01*
X038150Y010577D02*
X038402Y010577D01*
X038429Y010577D02*
X038633Y010577D01*
X038642Y010615D02*
X038390Y010615D01*
X038363Y010615D02*
X038112Y010615D01*
X038085Y010615D02*
X037947Y010615D01*
X037985Y010654D02*
X038046Y010654D01*
X038073Y010654D02*
X038325Y010654D01*
X038352Y010654D02*
X038603Y010654D01*
X038630Y010654D02*
X038710Y010654D01*
X038749Y010692D02*
X038592Y010692D01*
X038565Y010692D02*
X038313Y010692D01*
X038286Y010692D02*
X038035Y010692D01*
X038029Y010698D02*
X038155Y010824D01*
X038517Y010461D01*
X038392Y010336D01*
X038029Y010698D01*
X038155Y010824D01*
X038101Y010770D02*
X038209Y010770D01*
X038236Y010770D02*
X038488Y010770D01*
X038514Y010770D02*
X038766Y010770D01*
X038793Y010770D02*
X038826Y010770D01*
X038864Y010808D02*
X038754Y010808D01*
X038787Y010731D02*
X038553Y010731D01*
X038526Y010731D02*
X038275Y010731D01*
X038248Y010731D02*
X038063Y010731D01*
X038029Y010698D02*
X038392Y010336D01*
X038517Y010461D01*
X038479Y010423D02*
X038305Y010423D01*
X038278Y010423D02*
X038026Y010423D01*
X037999Y010423D02*
X037754Y010423D01*
X037738Y010406D02*
X038100Y010044D01*
X037974Y009918D01*
X037612Y010280D01*
X037738Y010406D01*
X038100Y010044D01*
X037974Y009918D01*
X037612Y010280D01*
X037738Y010406D01*
X037759Y010384D02*
X037716Y010384D01*
X037677Y010346D02*
X037798Y010346D01*
X037825Y010346D02*
X038076Y010346D01*
X038103Y010346D02*
X038355Y010346D01*
X038382Y010346D02*
X038402Y010346D01*
X038440Y010384D02*
X038343Y010384D01*
X038316Y010384D02*
X038065Y010384D01*
X038038Y010384D02*
X037786Y010384D01*
X037837Y010307D02*
X037639Y010307D01*
X037624Y010268D02*
X037875Y010268D01*
X037902Y010268D02*
X038153Y010268D01*
X038180Y010268D02*
X038325Y010268D01*
X038286Y010230D02*
X038219Y010230D01*
X038192Y010230D02*
X037941Y010230D01*
X037914Y010230D02*
X037662Y010230D01*
X037635Y010230D02*
X037561Y010230D01*
X037598Y010267D02*
X037961Y009905D01*
X037835Y009779D01*
X037473Y010141D01*
X037598Y010267D01*
X037961Y009905D01*
X037835Y009779D01*
X037473Y010141D01*
X037598Y010267D01*
X037523Y010191D02*
X037674Y010191D01*
X037701Y010191D02*
X037952Y010191D01*
X037979Y010191D02*
X038230Y010191D01*
X038209Y010153D02*
X038018Y010153D01*
X037991Y010153D02*
X037739Y010153D01*
X037712Y010153D02*
X037484Y010153D01*
X037459Y010128D02*
X037821Y009765D01*
X037696Y009640D01*
X037334Y010002D01*
X037459Y010128D01*
X037821Y009765D01*
X037696Y009640D01*
X037334Y010002D01*
X037459Y010128D01*
X037446Y010114D02*
X037473Y010114D01*
X037499Y010114D02*
X037751Y010114D01*
X037778Y010114D02*
X038029Y010114D01*
X038056Y010114D02*
X038170Y010114D01*
X038132Y010076D02*
X038095Y010076D01*
X038068Y010076D02*
X037816Y010076D01*
X037789Y010076D02*
X037538Y010076D01*
X037511Y010076D02*
X037407Y010076D01*
X037369Y010037D02*
X037550Y010037D01*
X037576Y010037D02*
X037828Y010037D01*
X037855Y010037D02*
X038093Y010037D01*
X038055Y009999D02*
X037894Y009999D01*
X037866Y009999D02*
X037615Y009999D01*
X037588Y009999D02*
X037337Y009999D01*
X037320Y009988D02*
X037682Y009626D01*
X037556Y009500D01*
X037194Y009863D01*
X037320Y009988D01*
X037682Y009626D01*
X037556Y009500D01*
X037194Y009863D01*
X037320Y009988D01*
X037292Y009960D02*
X037348Y009960D01*
X037375Y009960D02*
X037627Y009960D01*
X037654Y009960D02*
X037905Y009960D01*
X037932Y009960D02*
X038016Y009960D01*
X037978Y009922D02*
X037971Y009922D01*
X037944Y009922D02*
X037692Y009922D01*
X037665Y009922D02*
X037414Y009922D01*
X037387Y009922D02*
X037253Y009922D01*
X037215Y009883D02*
X037425Y009883D01*
X037452Y009883D02*
X037704Y009883D01*
X037731Y009883D02*
X037939Y009883D01*
X037901Y009844D02*
X037769Y009844D01*
X037742Y009844D02*
X037491Y009844D01*
X037464Y009844D02*
X037212Y009844D01*
X037186Y009844D02*
X037176Y009844D01*
X037181Y009849D02*
X037543Y009487D01*
X037417Y009361D01*
X037055Y009724D01*
X037181Y009849D01*
X037543Y009487D01*
X037417Y009361D01*
X037055Y009724D01*
X037181Y009849D01*
X037224Y009806D02*
X037137Y009806D01*
X037099Y009767D02*
X037263Y009767D01*
X037289Y009767D02*
X037541Y009767D01*
X037568Y009767D02*
X037819Y009767D01*
X037808Y009806D02*
X037862Y009806D01*
X037781Y009806D02*
X037529Y009806D01*
X037502Y009806D02*
X037251Y009806D01*
X037301Y009729D02*
X037060Y009729D01*
X037041Y009710D02*
X037404Y009348D01*
X037278Y009222D01*
X036916Y009584D01*
X037041Y009710D01*
X037404Y009348D01*
X037278Y009222D01*
X036916Y009584D01*
X037041Y009710D01*
X037022Y009690D02*
X037061Y009690D01*
X037088Y009690D02*
X037340Y009690D01*
X037367Y009690D02*
X037618Y009690D01*
X037645Y009690D02*
X037746Y009690D01*
X037708Y009652D02*
X037684Y009652D01*
X037657Y009652D02*
X037405Y009652D01*
X037378Y009652D02*
X037127Y009652D01*
X037100Y009652D02*
X036983Y009652D01*
X036945Y009613D02*
X037138Y009613D01*
X037165Y009613D02*
X037417Y009613D01*
X037444Y009613D02*
X037669Y009613D01*
X037631Y009575D02*
X037482Y009575D01*
X037455Y009575D02*
X037204Y009575D01*
X037177Y009575D02*
X036925Y009575D01*
X036902Y009571D02*
X037265Y009209D01*
X037139Y009083D01*
X036777Y009445D01*
X036902Y009571D01*
X037265Y009209D01*
X037139Y009083D01*
X036777Y009445D01*
X036902Y009571D01*
X036868Y009536D02*
X036937Y009536D01*
X036964Y009536D02*
X037215Y009536D01*
X037243Y009536D02*
X037494Y009536D01*
X037521Y009536D02*
X037592Y009536D01*
X037532Y009498D02*
X037281Y009498D01*
X037254Y009498D02*
X037003Y009498D01*
X036976Y009498D02*
X036829Y009498D01*
X036791Y009459D02*
X037014Y009459D01*
X037041Y009459D02*
X037292Y009459D01*
X037320Y009459D02*
X037515Y009459D01*
X037477Y009421D02*
X037358Y009421D01*
X037331Y009421D02*
X037080Y009421D01*
X037053Y009421D02*
X036801Y009421D01*
X036774Y009421D02*
X036752Y009421D01*
X036763Y009432D02*
X037126Y009069D01*
X037000Y008944D01*
X036637Y009306D01*
X036763Y009432D01*
X037126Y009069D01*
X037000Y008944D01*
X036637Y009306D01*
X036763Y009432D01*
X036713Y009382D02*
X036813Y009382D01*
X036840Y009382D02*
X037091Y009382D01*
X037118Y009382D02*
X037370Y009382D01*
X037397Y009382D02*
X037438Y009382D01*
X037400Y009343D02*
X037157Y009343D01*
X037130Y009343D02*
X036878Y009343D01*
X036851Y009343D02*
X036675Y009343D01*
X036639Y009305D02*
X036890Y009305D01*
X036917Y009305D02*
X037168Y009305D01*
X037195Y009305D02*
X037361Y009305D01*
X037322Y009266D02*
X037234Y009266D01*
X037207Y009266D02*
X036956Y009266D01*
X036929Y009266D02*
X036677Y009266D01*
X036650Y009266D02*
X036598Y009266D01*
X036624Y009292D02*
X036986Y008930D01*
X036861Y008805D01*
X036498Y009167D01*
X036624Y009292D01*
X036986Y008930D01*
X036861Y008805D01*
X036498Y009167D01*
X036624Y009292D01*
X036559Y009228D02*
X036689Y009228D01*
X036716Y009228D02*
X036967Y009228D01*
X036994Y009228D02*
X037245Y009228D01*
X037272Y009228D02*
X037284Y009228D01*
X037245Y009189D02*
X037033Y009189D01*
X037006Y009189D02*
X036754Y009189D01*
X036727Y009189D02*
X036521Y009189D01*
X036514Y009151D02*
X036766Y009151D01*
X036793Y009151D02*
X037044Y009151D01*
X037071Y009151D02*
X037207Y009151D01*
X037168Y009112D02*
X037110Y009112D01*
X037083Y009112D02*
X036831Y009112D01*
X036804Y009112D02*
X036553Y009112D01*
X036526Y009112D02*
X036444Y009112D01*
X036482Y009151D02*
X036487Y009151D01*
X036485Y009153D02*
X036847Y008791D01*
X036721Y008665D01*
X036359Y009028D01*
X036485Y009153D01*
X036847Y008791D01*
X036721Y008665D01*
X036359Y009028D01*
X036485Y009153D01*
X036564Y009074D02*
X036405Y009074D01*
X036367Y009035D02*
X036603Y009035D01*
X036630Y009035D02*
X036881Y009035D01*
X036908Y009035D02*
X037091Y009035D01*
X037121Y009074D02*
X036870Y009074D01*
X036843Y009074D02*
X036591Y009074D01*
X036641Y008997D02*
X036390Y008997D01*
X036429Y008958D02*
X036680Y008958D01*
X036707Y008958D02*
X036959Y008958D01*
X036985Y008958D02*
X037014Y008958D01*
X036976Y008919D02*
X036746Y008919D01*
X036719Y008919D02*
X036467Y008919D01*
X036506Y008881D02*
X036757Y008881D01*
X036784Y008881D02*
X036937Y008881D01*
X036898Y008842D02*
X036823Y008842D01*
X036796Y008842D02*
X036544Y008842D01*
X036583Y008804D02*
X036834Y008804D01*
X036821Y008765D02*
X036621Y008765D01*
X036660Y008727D02*
X036783Y008727D01*
X036744Y008688D02*
X036698Y008688D01*
X036669Y008997D02*
X036920Y008997D01*
X036947Y008997D02*
X037053Y008997D01*
X037328Y009729D02*
X037579Y009729D01*
X037607Y009729D02*
X037785Y009729D01*
X037863Y010307D02*
X038115Y010307D01*
X038142Y010307D02*
X038363Y010307D01*
X038669Y010615D02*
X038671Y010615D01*
X038686Y011155D02*
X038937Y011155D01*
X038964Y011155D02*
X039211Y011155D01*
X039096Y011039D02*
X039080Y011039D01*
X040819Y013198D02*
X041070Y013198D01*
X041097Y013198D02*
X041254Y013198D01*
X041088Y013737D02*
X041069Y013737D01*
D23*
X027646Y024938D03*
X026646Y024938D03*
X025646Y024938D03*
X024646Y024938D03*
X023646Y024938D03*
X022646Y024938D03*
D24*
X032771Y024463D03*
X034346Y024463D03*
X034346Y022463D03*
X032771Y022463D03*
D25*
X034521Y033414D03*
X034521Y034162D03*
X035834Y034174D03*
X035834Y033426D03*
X037146Y033426D03*
X037146Y034174D03*
X038396Y034174D03*
X038396Y033426D03*
D26*
X043295Y034963D03*
X044397Y034963D03*
X035047Y029613D03*
X033945Y029613D03*
X023697Y026938D03*
X022595Y026938D03*
X020247Y028613D03*
X019145Y028613D03*
X019145Y032813D03*
X020247Y032813D03*
X043495Y015463D03*
X044597Y015463D03*
X049495Y015463D03*
X050597Y015463D03*
X050597Y012963D03*
X049495Y012963D03*
X044597Y003963D03*
X043495Y003963D03*
X049495Y026963D03*
X050597Y026963D03*
D27*
X022031Y030713D03*
D28*
X019157Y031610D03*
X019157Y029815D03*
D29*
X015746Y029963D03*
X015746Y027963D03*
D30*
X008446Y030563D03*
X007196Y028813D03*
X005946Y030563D03*
D31*
X032046Y027963D03*
X035046Y027963D03*
X035046Y021963D03*
X032046Y021963D03*
D32*
X013146Y030863D03*
D33*
X011146Y030863D03*
X011146Y032863D03*
X013146Y032863D03*
D34*
X034521Y032387D03*
X034521Y031088D03*
X035834Y031088D03*
X037146Y031088D03*
X038396Y031088D03*
X038396Y032387D03*
X037146Y032387D03*
X035834Y032387D03*
D35*
X051306Y033832D03*
X008012Y033832D03*
X008012Y003119D03*
X051306Y003119D03*
D36*
X042846Y003963D03*
X038046Y008563D03*
X036046Y009813D03*
X034796Y010663D03*
X033446Y011963D03*
X031146Y014313D03*
X029646Y014863D03*
X028696Y013963D03*
X026946Y012663D03*
X026446Y012313D03*
X026046Y011963D03*
X025646Y012313D03*
X025296Y011913D03*
X024946Y012313D03*
X024596Y011913D03*
X024046Y011913D03*
X020946Y011463D03*
X020446Y011463D03*
X019046Y010763D03*
X019046Y010263D03*
X020596Y009763D03*
X022196Y009763D03*
X023696Y009763D03*
X024696Y009763D03*
X026196Y009763D03*
X027546Y010113D03*
X028196Y010513D03*
X028646Y010763D03*
X029146Y010913D03*
X029546Y011263D03*
X029546Y011763D03*
X028646Y012063D03*
X027546Y010663D03*
X025896Y014063D03*
X026296Y014413D03*
X025896Y014763D03*
X026296Y015113D03*
X025896Y015463D03*
X026296Y015813D03*
X028046Y017413D03*
X027646Y017713D03*
X028546Y017263D03*
X028996Y017013D03*
X029396Y016663D03*
X028896Y016313D03*
X031296Y016663D03*
X034546Y017863D03*
X035646Y018963D03*
X036196Y018663D03*
X037196Y018363D03*
X038646Y016813D03*
X037301Y015078D03*
X037301Y013566D03*
X040596Y014363D03*
X041996Y013663D03*
X043496Y014813D03*
X047546Y015463D03*
X049496Y014763D03*
X048746Y012963D03*
X039046Y010413D03*
X035246Y008413D03*
X023896Y016313D03*
X023196Y017913D03*
X022146Y017913D03*
X020646Y017913D03*
X017849Y016035D03*
X020046Y014063D03*
X017996Y013713D03*
X014246Y013263D03*
X014246Y014263D03*
X014246Y015263D03*
X014246Y016263D03*
X014246Y017263D03*
X014246Y018263D03*
X014246Y019263D03*
X014246Y020263D03*
X014246Y021263D03*
X014246Y022263D03*
X020846Y028563D03*
X019146Y031063D03*
X019146Y032163D03*
X033296Y029613D03*
X042646Y034963D03*
X048646Y026963D03*
X036546Y020313D03*
X026296Y017913D03*
X024696Y017913D03*
X014246Y012263D03*
X014246Y011263D03*
D37*
X032046Y024963D03*
X035046Y024963D03*
M02*
